<svg width="24" height="24" viewBox="0 0 24 24" fill="none" xmlns="http://www.w3.org/2000/svg">
<path d="M9.05406 22.75C10.4211 22.75 11.5241 22.75 12.3911 22.633C13.2911 22.513 14.0491 22.253 14.6511 21.652C15.1751 21.127 15.4411 20.482 15.5801 19.724C15.7151 18.987 15.7411 18.086 15.7471 17.004C15.7481 16.8051 15.6701 16.6139 15.5302 16.4725C15.3903 16.3311 15.2 16.2511 15.0011 16.25C14.8021 16.2489 14.611 16.3269 14.4696 16.4668C14.3282 16.6067 14.2481 16.7971 14.2471 16.996C14.2411 18.089 14.2131 18.864 14.1051 19.453C14.0001 20.019 13.8331 20.348 13.5901 20.591C13.3131 20.868 12.9241 21.048 12.1901 21.147C11.4351 21.248 10.4341 21.25 8.99906 21.25H7.99906C6.56306 21.25 5.56206 21.248 4.80706 21.147C4.07306 21.048 3.68506 20.867 3.40706 20.591C3.12906 20.315 2.95106 19.926 2.85206 19.191C2.75006 18.437 2.74906 17.435 2.74906 16L2.74906 8C2.74906 6.565 2.75006 5.563 2.85206 4.808C2.95106 4.074 3.13106 3.686 3.40806 3.409C3.68506 3.132 4.07306 2.952 4.80706 2.853C5.56206 2.752 6.56306 2.75 7.99906 2.75H8.99906C10.4341 2.75 11.4351 2.752 12.1911 2.853C12.9241 2.952 13.3131 3.133 13.5901 3.409C13.8331 3.652 14.0001 3.981 14.1051 4.547C14.2131 5.136 14.2411 5.911 14.2471 7.004C14.2476 7.10249 14.2675 7.19991 14.3057 7.29071C14.3439 7.3815 14.3995 7.46389 14.4696 7.53316C14.5396 7.60243 14.6225 7.65724 14.7137 7.69444C14.8049 7.73165 14.9026 7.75053 15.0011 7.75C15.0996 7.74947 15.197 7.72956 15.2878 7.69138C15.3786 7.6532 15.4609 7.59752 15.5302 7.5275C15.5995 7.45749 15.6543 7.37451 15.6915 7.28332C15.7287 7.19212 15.7476 7.09449 15.7471 6.996C15.7411 5.914 15.7151 5.013 15.5801 4.276C15.4401 3.518 15.1751 2.873 14.6501 2.348C14.0491 1.746 13.2901 1.488 12.3901 1.366C11.5241 1.25 10.4211 1.25 9.05406 1.25H7.94406C6.57606 1.25 5.47406 1.25 4.60706 1.367C3.70706 1.487 2.94906 1.747 2.34706 2.348C1.74506 2.95 1.48706 3.708 1.36506 4.608C1.24906 5.475 1.24906 6.578 1.24906 7.945L1.24906 16.055C1.24906 17.422 1.24906 18.525 1.36506 19.392C1.48606 20.292 1.74506 21.05 2.34706 21.652C2.94906 22.254 3.70706 22.512 4.60706 22.633C5.47406 22.75 6.57706 22.75 7.94406 22.75H9.05406Z" fill="white" fill-opacity="0.97"/>
<path d="M8.99944 12.7496C8.80053 12.7496 8.60976 12.6706 8.46911 12.53C8.32846 12.3893 8.24944 12.1985 8.24944 11.9996C8.24944 11.8007 8.32846 11.61 8.46911 11.4693C8.60976 11.3287 8.80053 11.2496 8.99944 11.2496L19.9724 11.2496L18.0114 9.56964C17.8603 9.44021 17.7667 9.25603 17.7513 9.05762C17.7359 8.85921 17.8 8.66281 17.9294 8.51164C18.0589 8.36046 18.243 8.26689 18.4415 8.25152C18.6399 8.23614 18.8363 8.30021 18.9874 8.42964L22.4874 11.4296C22.5698 11.5 22.6359 11.5875 22.6812 11.6859C22.7265 11.7843 22.75 11.8913 22.75 11.9996C22.75 12.108 22.7265 12.215 22.6812 12.3134C22.6359 12.4118 22.5698 12.4992 22.4874 12.5696L18.9874 15.5696C18.9126 15.6337 18.8258 15.6824 18.7322 15.713C18.6385 15.7436 18.5397 15.7554 18.4415 15.7478C18.3432 15.7401 18.2474 15.7133 18.1596 15.6686C18.0717 15.624 17.9935 15.5625 17.9294 15.4876C17.8654 15.4128 17.8166 15.326 17.7861 15.2324C17.7555 15.1387 17.7437 15.0399 17.7513 14.9417C17.7589 14.8434 17.7858 14.7476 17.8305 14.6598C17.8751 14.5719 17.9366 14.4937 18.0114 14.4296L19.9714 12.7496L8.99944 12.7496Z" fill="white" fill-opacity="0.97"/>
</svg>
