<svg width="135" height="136" viewBox="0 0 135 136" fill="none" xmlns="http://www.w3.org/2000/svg">
<path d="M67.5011 135.408C104.817 135.408 134.909 105.153 134.909 68.0002C134.909 46.6193 124.945 27.5557 109.42 15.2118C97.9187 6.05909 83.3525 0.592773 67.5011 0.592773C51.6604 0.592773 37.0941 6.05909 25.5927 15.2118C20.6109 19.1614 16.1873 23.8273 12.4904 29.0303C4.68593 40.0366 0.09375 53.4865 0.09375 68.0002C0.09375 105.343 30.3777 135.408 67.5011 135.408ZM8.13356 121.218C9.75482 120.484 11.6744 121.225 12.4087 122.846C13.1429 124.467 12.4238 126.377 10.8026 127.111C9.18145 127.846 7.24978 127.136 6.51556 125.515C5.78134 123.894 6.51243 121.953 8.13356 121.218ZM1.79162 116.455C2.82352 115.987 4.0453 116.459 4.51262 117.491C4.97993 118.522 4.52228 119.738 3.49039 120.205C2.45858 120.673 1.22912 120.221 0.761808 119.189C0.294497 118.158 0.759819 116.922 1.79162 116.455ZM126.312 8.39282C127.662 7.23337 129.713 7.40637 130.872 8.75657C132.031 10.1068 131.877 12.1416 130.526 13.301C129.176 14.4604 127.123 14.3212 125.964 12.971C124.804 11.6208 124.962 9.55217 126.312 8.39282ZM118.889 5.59853C119.748 4.86057 121.053 4.97068 121.791 5.83005C122.529 6.68941 122.43 7.98453 121.571 8.72249C120.712 9.46038 119.405 9.37181 118.667 8.51244C117.929 7.65308 118.029 6.33643 118.889 5.59853Z" fill="#E1E1E1" fill-opacity="0.4"/>
<path d="M127.381 29.9874L102.701 124.582C101.418 129.496 96.395 132.441 91.4806 131.159L38.098 117.233C33.1836 115.951 30.2391 110.927 31.5213 106.013L56.2017 11.4183C57.4839 6.50391 62.5072 3.55942 67.4216 4.84163L120.804 18.7674C125.719 20.0496 128.663 25.073 127.381 29.9874Z" fill="#B7BDC4"/>
<path d="M100.079 105.324L119.496 31.4647C120.24 28.6143 118.516 25.6737 115.666 24.93L106.331 22.4955C105.268 22.2181 104.14 22.5724 103.426 23.4078L101.271 25.9305C100.865 26.4062 100.221 26.6131 99.6059 26.4527L82.4298 21.9714C81.8151 21.811 81.3535 21.3154 81.2321 20.7022L80.5842 17.4482C80.3697 16.3707 79.5585 15.5104 78.4954 15.233L69.7751 12.9589C66.9247 12.2152 63.9841 13.9389 63.2404 16.7893L43.8235 90.6485C42.8524 94.3707 45.0825 98.1753 48.8047 99.1465L91.5813 110.305C95.3034 111.276 99.1081 109.046 100.079 105.324Z" fill="white"/>
<path d="M95.275 19.2898C95.1119 19.9146 94.4732 20.289 93.8483 20.126L86.9462 18.3252C85.8499 18.0391 86.09 16.7788 86.11 16.8986C86.273 16.2737 86.9117 15.8993 87.5366 16.0623L94.4387 17.8631C95.0636 18.0262 95.438 18.6649 95.275 19.2898ZM96.8835 19.7094C96.7204 20.3343 97.0948 20.973 97.7197 21.1361L98.0608 21.2251C99.1563 21.5109 99.5707 20.2851 99.4874 20.3888C99.6504 19.764 99.2761 19.1252 98.6512 18.9622L98.3101 18.8732C97.6852 18.7102 97.0465 19.0846 96.8835 19.7094ZM71.4176 114.337C71.3047 116.378 69.5556 117.936 67.5145 117.824C65.4817 117.711 63.9149 115.97 64.0277 113.929C64.1405 111.887 65.8897 110.33 67.9225 110.442C69.9636 110.555 71.5304 112.296 71.4176 114.337Z" fill="white"/>
<path d="M77.2899 65.7917C77.4195 65.2331 77.9765 64.8858 78.5345 65.0154C79.0926 65.1445 79.4399 65.7015 79.3113 66.2596C79.1921 66.7728 79.5098 67.284 80.0253 67.4034C80.5479 67.5234 81.0573 67.2014 81.1747 66.6895C81.3044 66.1314 81.8624 65.7856 82.4194 65.9132C82.9774 66.0423 83.3248 66.5993 83.1961 67.1573C83.0128 67.9463 82.5338 68.6162 81.8452 69.0446C79.5405 70.4772 76.6889 68.3926 77.2899 65.7917ZM82.7526 78.7425C80.9812 78.2788 81.029 76.437 80.5276 76.3053C80.0186 76.179 79.1637 77.8083 77.3962 77.3414C76.2336 77.0375 75.8478 76.1271 75.5936 75.525C75.2636 74.7452 75.1754 74.7236 74.5079 75.2415C73.9914 75.6415 73.2116 76.2471 72.047 75.9428C70.2756 75.4799 70.3253 73.6395 69.8251 73.5072C69.2711 73.3623 68.9389 72.7957 69.0837 72.2418C69.2296 71.6873 69.7977 71.3561 70.3496 71.5009C72.121 71.9638 72.0714 73.8043 72.5716 73.9366C73.0766 74.0628 73.9241 72.4373 75.6999 72.899C77.4703 73.3624 77.4207 75.2029 77.9208 75.3351C78.425 75.464 79.2802 73.836 81.0522 74.2991C82.8239 74.7617 82.7776 76.6046 83.2772 76.7358C83.7785 76.8656 84.6464 75.2368 86.4106 75.7002C86.9645 75.8451 87.2967 76.4117 87.1519 76.9656C87.006 77.5201 86.4389 77.8533 85.886 77.7065C85.7472 77.6705 85.6601 77.6978 85.2155 78.0417C84.4417 78.6384 83.7434 79.0005 82.7526 78.7425Z" fill="#C5CAD0"/>
<path d="M73.9155 60.0111C73.2357 62.9529 70.2888 64.8004 67.3389 64.1188C64.4051 63.4408 62.5676 60.4877 63.2473 57.546C63.9272 54.604 66.8703 52.7727 69.8041 53.4506C72.754 54.1323 74.5953 57.0692 73.9155 60.0111Z" fill="#DEE1E4"/>
<path d="M67.1048 65.129C61.4533 63.8231 60.2497 56.3053 65.132 53.2613C66.6055 52.3408 68.3494 52.0491 70.0377 52.4405C73.5397 53.2497 75.7333 56.7507 74.9261 60.2446C74.1162 63.7438 70.6215 65.9411 67.1048 65.129ZM66.2298 55.021C62.9094 57.0907 63.7153 62.2173 67.5727 63.1086C69.962 63.6618 72.3535 62.1658 72.9047 59.7778C73.4546 57.3978 71.9588 55.0128 69.5698 54.4609C68.3844 54.1881 67.206 54.4117 66.2298 55.021Z" fill="#B5BFC8"/>
<path d="M73.0046 57.8575C72.609 59.5694 70.9017 60.6285 69.1981 60.2348C67.4946 59.8412 66.4338 58.1424 66.8293 56.4306C67.223 54.727 68.9216 53.6659 70.6251 54.0596C72.3286 54.4532 73.3982 56.154 73.0046 57.8575Z" fill="#C5CAD0"/>
<path d="M72.34 56.5915C72.1745 57.308 71.4598 57.7513 70.7468 57.5865C70.0338 57.4218 69.5898 56.7108 69.7553 55.9943C69.9201 55.2812 70.6311 54.8371 71.3441 55.0019C72.0571 55.1666 72.5048 55.8785 72.34 56.5915Z" fill="white"/>
<path d="M99.5137 66.7038C98.8339 69.6455 95.887 71.4931 92.937 70.8114C90.0033 70.1335 88.1657 67.1803 88.8455 64.2386C89.5253 61.2966 92.4685 59.4653 95.4022 60.1432C98.3522 60.8249 100.193 63.7618 99.5137 66.7038Z" fill="#E5E7E9"/>
<path d="M87.8345 64.0053C88.2254 62.3135 89.2533 60.8744 90.7299 59.9538C92.2044 59.0338 93.9463 58.7411 95.6356 59.133C99.1376 59.9422 101.331 63.4432 100.524 66.9371C100.132 68.6304 99.1032 70.072 97.6266 70.9957C92.7351 74.054 86.5254 69.6716 87.8345 64.0053ZM94.1661 61.0385C93.3468 61.0385 92.5417 61.2679 91.8277 61.7135C88.5073 63.7833 89.3132 68.9098 93.1706 69.8011C95.5514 70.3513 97.9492 68.8679 98.5026 66.4703C99.0525 64.0903 97.5567 61.7054 95.1677 61.1534C94.8355 61.077 94.4993 61.0385 94.1661 61.0385Z" fill="#B5BFC8"/>
<path d="M98.6023 64.5502C98.2067 66.262 96.4993 67.3211 94.7958 66.9275C93.0923 66.5338 92.0314 64.835 92.427 63.1232C92.8206 61.4197 94.5193 60.3585 96.2228 60.7522C97.9263 61.1458 98.9959 62.8466 98.6023 64.5502Z" fill="#C5CAD0"/>
<path d="M97.9377 63.2841C97.7721 64.0006 97.0575 64.4439 96.3445 64.2792C95.6315 64.1144 95.1874 63.4034 95.353 62.6869C95.5178 61.9739 96.2287 61.5297 96.9417 61.6945C97.6548 61.8593 98.1024 62.5711 97.9377 63.2841Z" fill="white"/>
<path d="M104.034 58.8272C103.826 58.8272 103.617 58.7649 103.435 58.6358L97.1657 54.1828C96.6989 53.8511 96.5895 53.2035 96.9207 52.7366C97.2518 52.2703 97.8979 52.1604 98.3668 52.4915L104.636 56.9445C105.103 57.2762 105.212 57.9238 104.881 58.3907C104.678 58.6753 104.359 58.8272 104.034 58.8272ZM62.4493 48.3829C62.3885 47.8132 62.8007 47.3023 63.3709 47.242L71.018 46.4273C71.576 46.3696 72.0986 46.7792 72.1584 47.3484C72.2191 47.918 71.8069 48.429 71.2368 48.4892L63.5896 49.304C63.0282 49.3663 62.5105 48.9571 62.4493 48.3829Z" fill="#C5CAD0"/>
<path d="M7.40173 60.1133C8.36376 72.1044 18.1332 81.8441 30.1143 82.7664C34.2204 83.0838 38.3266 82.3896 42.026 80.763L50.5061 83.4607C51.8829 83.8955 53.2766 82.7191 52.9955 81.249L51.5177 73.4433C63.7027 58.0885 53.8679 35.0507 34.2304 33.4037C26.9306 32.7789 19.7697 35.3873 14.6122 40.5349C9.44487 45.6725 6.81653 52.8136 7.40173 60.1133Z" fill="#D6DADD"/>
<path d="M50.1413 57.632C50.1413 67.6036 42.0673 75.6777 32.0956 75.6777C22.1239 75.6777 14.0381 67.6036 14.0381 57.632C14.0381 47.6602 22.1239 39.5745 32.0956 39.5745C42.0673 39.5745 50.1413 47.6602 50.1413 57.632Z" fill="white"/>
<path d="M20.9428 56.2851C20.2925 55.6348 20.2925 54.5802 20.9428 53.9298C27.0912 47.7815 37.0919 47.7791 43.237 53.9235C43.8874 54.5738 43.8874 55.6283 43.237 56.2788C42.5865 56.929 41.5322 56.929 40.8817 56.2788C36.0357 51.4326 28.1474 51.4354 23.2982 56.2851C22.6474 56.9355 21.5934 56.9353 20.9428 56.2851Z" fill="#E5E7E9"/>
<path d="M24.9902 60.7173C24.3399 60.0669 24.3399 59.0123 24.9902 58.362C28.907 54.4461 35.2763 54.443 39.1891 58.3556C39.8395 59.006 39.8395 60.0606 39.1891 60.7109C38.5386 61.3611 37.4844 61.3611 36.8338 60.7109C34.2199 58.0967 29.9634 58.0998 27.3455 60.7173C26.6948 61.3677 25.6408 61.3675 24.9902 60.7173Z" fill="#E5E7E9"/>
<path d="M34.4351 64.7646C34.4351 66.0599 33.3803 67.1146 32.085 67.1146C30.7934 67.1146 29.7461 66.0599 29.7461 64.7646C29.7461 63.4693 30.7934 62.4146 32.085 62.4146C33.3803 62.4146 34.4351 63.4693 34.4351 64.7646Z" fill="#B7BDC4"/>
<path d="M34.1703 48.8992L33.6227 59.4483C33.5804 60.2641 32.9065 60.9039 32.0896 60.9039C31.2727 60.9039 30.5989 60.2641 30.5565 59.4483L30.0089 48.8992C29.9634 48.0212 30.6629 47.2844 31.542 47.2844H32.6372C33.5163 47.2844 34.2159 48.0212 34.1703 48.8992Z" fill="#B7BDC4"/>
<path d="M30.0063 28.5975C29.4331 28.5975 28.9693 28.1332 28.9693 27.5605L28.9703 18.8246C28.9703 18.2519 29.4351 17.7876 30.0073 17.7876C30.5805 17.7876 31.0444 18.2519 31.0444 18.8246L31.0434 27.5605C31.0434 28.1332 30.5785 28.5975 30.0063 28.5975ZM23.457 30.7014L17.2814 24.5233C16.8763 24.1182 16.8763 23.4614 17.2814 23.0568C17.6865 22.6517 18.3427 22.6517 18.7478 23.0568L24.9234 29.235C25.3285 29.6401 25.3285 30.2969 24.9234 30.7014C24.5183 31.1065 23.8621 31.1065 23.457 30.7014ZM35.8214 31.0073C34.906 31.0073 34.4328 29.8916 35.0882 29.237L41.2669 23.0609C41.672 22.6558 42.3282 22.6558 42.7333 23.0609C43.1384 23.466 43.1384 24.1227 42.7333 24.5273C36.5386 30.5668 36.6156 31.0073 35.8214 31.0073Z" fill="#C5CAD0"/>
</svg>
