<svg width="84" height="88" viewBox="0 0 84 88" fill="none" xmlns="http://www.w3.org/2000/svg">
<path d="M2.00783 28.1797C2.19533 28.2266 2.39064 28.25 2.57814 28.25C3.62501 28.25 4.58595 27.5391 4.85158 26.4766C7.02345 17.7891 12.1953 10.0937 19.4063 4.82812C20.4531 4.0625 20.6797 2.60156 19.9141 1.55469C19.1485 0.507812 17.6875 0.28125 16.6406 1.04687C8.54689 6.96094 2.7422 15.5859 0.304702 25.3437C-0.0156104 26.5937 0.750015 27.8672 2.00783 28.1797ZM64.6016 4.82812C71.8125 10.0937 76.9766 17.7812 79.1563 26.4766C79.4219 27.5391 80.375 28.25 81.4297 28.25C81.6172 28.25 81.8125 28.2266 82 28.1797C83.2578 27.8672 84.0156 26.5937 83.7031 25.3359C81.2656 15.5859 75.461 6.95312 67.3672 1.03906C66.3203 0.273437 64.8594 0.5 64.0938 1.54687C63.3281 2.60156 63.5547 4.0625 64.6016 4.82812ZM7.00002 62.9766C6.23439 66.0312 6.90626 69.2109 8.85158 71.6875C10.7891 74.1719 13.711 75.5937 16.8594 75.5937H28.1563C29.2735 82.2344 35.0547 87.3125 42.0078 87.3125C48.961 87.3125 54.7344 82.2344 55.8594 75.5937H67.1563C70.3047 75.5937 73.2266 74.1719 75.1641 71.6875C77.1016 69.2031 77.7735 66.0312 77.0156 62.9766L68.5391 29.1328C65.4922 16.9297 54.5781 8.40625 42 8.40625C29.4219 8.40625 18.5078 16.9297 15.461 29.1328L7.00002 62.9766ZM42 82.625C37.6406 82.625 33.9766 79.6328 32.9297 75.5937H51.0625C50.0235 79.6328 46.3594 82.625 42 82.625ZM42 13.0937C52.4219 13.0937 61.4688 20.1562 63.9922 30.2656L72.4531 64.1094C72.8672 65.7578 72.5 67.4609 71.461 68.8047C70.4141 70.1406 68.8438 70.9062 67.1485 70.9062H16.8516C15.1563 70.9062 13.586 70.1406 12.5391 68.8047C11.4922 67.4687 11.1328 65.7578 11.5469 64.1094L20.0078 30.2656C22.5313 20.1562 31.5781 13.0937 42 13.0937Z" fill="white"/>
</svg>
