<svg width="24" height="24" viewBox="0 0 24 24" fill="none" xmlns="http://www.w3.org/2000/svg">
<path d="M21.4443 4.2898C18.2124 4.2898 13.9602 3.20952 12.4444 1.20809C12.2428 0.964883 11.8804 0.929821 11.6348 1.12958C11.6058 1.1531 11.5792 1.17941 11.5555 1.20813C10.0396 3.20935 5.7874 4.2898 2.55568 4.2898C2.24873 4.2898 2 4.53614 2 4.8401V11.994C2 18.0451 7.30491 21.6931 11.8475 22.9785C11.9471 23.0072 12.0528 23.0072 12.1525 22.9785C16.6951 21.6931 22 18.0451 22 11.994V4.8401C22 4.53614 21.7512 4.28976 21.4443 4.28976V4.2898ZM20.8887 11.9939C20.8887 17.3659 16.1362 20.659 12 21.8769C7.86372 20.659 3.11102 17.3659 3.11102 11.994V5.38078C6.3223 5.27323 10.1196 4.24782 12 2.37447C13.8806 4.24782 17.6777 5.27322 20.8889 5.38065V11.994L20.8887 11.9939Z" fill="white" fill-opacity="0.97" stroke="white" stroke-opacity="0.97" stroke-width="0.3"/>
<path d="M9.77818 9.79296V10.8935H9.22259C8.91573 10.8935 8.66699 11.1399 8.66699 11.4439V15.8462C8.66699 16.1501 8.91573 16.3965 9.22259 16.3965H14.7781C15.085 16.3965 15.3338 16.1501 15.3338 15.8462V11.4439C15.3338 11.1399 15.085 10.8935 14.7781 10.8935H14.2225V9.79296C14.2225 8.57724 13.2277 7.5918 12.0003 7.5918C10.773 7.5918 9.77818 8.57724 9.77818 9.79296ZM14.2225 15.296H9.77818V11.9941H14.2225L14.2225 15.296ZM13.1115 9.79296V10.8935H10.8893V9.79296C10.8893 9.18516 11.3866 8.6924 12.0003 8.6924C12.6139 8.6924 13.1115 9.18516 13.1115 9.79296Z" fill="white" fill-opacity="0.97" stroke="white" stroke-opacity="0.97" stroke-width="0.3"/>
</svg>
