<svg width="24" height="24" viewBox="0 0 24 24" fill="none" xmlns="http://www.w3.org/2000/svg">
<mask id="path-1-inside-1_710_13805" fill="white">
<path d="M18.9006 14.2888H13.6438C14.0775 12.9873 14.308 11.8919 14.346 10.9575C14.4357 8.75389 13.3952 7.8814 12.5066 7.53753C12.4694 7.5231 12.4307 7.5127 12.3913 7.5065C11.7027 7.39784 11.4576 7.72179 11.2951 8.08798L11.2738 8.13584C11.25 8.18838 11.2345 8.24427 11.2277 8.30154C11.0888 9.49232 10.7148 10.6437 10.1277 11.6889C9.5405 12.7341 8.75173 13.6524 7.80707 14.3906C7.70801 14.2331 7.57064 14.1033 7.4078 14.0133C7.24496 13.9233 7.06196 13.876 6.8759 13.8759H2.99329C2.7014 13.8762 2.42155 13.9923 2.21516 14.1987C2.00876 14.4051 1.89266 14.685 1.89234 14.9769V22.899C1.89266 23.1909 2.00876 23.4708 2.21516 23.6772C2.42155 23.8836 2.7014 23.9997 2.99329 24H6.8759C7.10176 23.9997 7.32209 23.9301 7.50711 23.8006C7.69213 23.671 7.83292 23.4878 7.91043 23.2757C8.33779 23.6148 8.83512 23.8547 9.36651 23.9782C9.40639 23.9875 9.44716 23.9924 9.4881 23.9929C9.92812 23.9976 10.4527 24 11.0576 24C11.6611 24 12.3444 23.9976 13.1027 23.9929H18.0549C18.3445 23.993 18.6288 23.9162 18.8789 23.7703C19.129 23.6244 19.3359 23.4147 19.4783 23.1626C19.6208 22.9105 19.6937 22.6251 19.6896 22.3356C19.6856 22.0461 19.6047 21.7628 19.4552 21.5149C19.7857 21.2644 20.0085 20.8976 20.0784 20.4888C20.1484 20.0801 20.0602 19.6601 19.8317 19.314C20.1525 19.042 20.356 18.6567 20.3998 18.2384C20.4435 17.8201 20.3241 17.4011 20.0665 17.0687C20.2923 16.839 20.4451 16.5477 20.5059 16.2315C20.5667 15.9152 20.5327 15.588 20.4081 15.291C20.2835 14.994 20.074 14.7405 19.8057 14.5622C19.5375 14.3839 19.2226 14.2889 18.9006 14.289V14.2888ZM6.85185 22.875H3.01748V15.0009H6.85185V22.875ZM15.6103 17.5586H18.7737C18.908 17.5599 19.0365 17.6142 19.1311 17.7097C19.2256 17.8051 19.2787 17.9341 19.2787 18.0685C19.2787 18.2029 19.2256 18.3318 19.1311 18.4273C19.0365 18.5228 18.908 18.5771 18.7737 18.5784H16.0613C15.9121 18.5784 15.769 18.6376 15.6635 18.7431C15.5581 18.8486 15.4988 18.9917 15.4988 19.1409C15.4988 19.2901 15.5581 19.4331 15.6635 19.5386C15.769 19.6441 15.9121 19.7034 16.0613 19.7034H18.467C18.6013 19.7047 18.7298 19.7589 18.8244 19.8544C18.9189 19.9499 18.972 20.0789 18.972 20.2133C18.972 20.3476 18.9189 20.4766 18.8244 20.5721C18.7298 20.6676 18.6013 20.7218 18.467 20.7231H16.4566C16.3074 20.7231 16.1643 20.7824 16.0588 20.8879C15.9534 20.9934 15.8941 21.1364 15.8941 21.2856C15.8941 21.4348 15.9534 21.5779 16.0588 21.6834C16.1643 21.7889 16.3074 21.8481 16.4566 21.8481H18.055C18.1894 21.8494 18.3178 21.9037 18.4124 21.9992C18.507 22.0947 18.56 22.2236 18.56 22.358C18.56 22.4924 18.507 22.6214 18.4124 22.7168C18.3178 22.8123 18.1894 22.8666 18.055 22.8679H13.0992C11.6207 22.877 10.432 22.8773 9.56484 22.8686C9.23228 22.7834 8.92028 22.6321 8.64747 22.4238C8.37466 22.2154 8.14664 21.9542 7.97699 21.6557V15.6609C9.14507 14.8625 10.1339 13.8293 10.8805 12.6274C11.627 11.4255 12.1149 10.0812 12.3129 8.6802C12.6924 8.87829 13.2841 9.38871 13.2223 10.9118C13.182 11.9027 12.8875 13.1275 12.3223 14.6562C12.2909 14.7413 12.2804 14.8327 12.2919 14.9226C12.3034 15.0126 12.3365 15.0984 12.3883 15.1728C12.4401 15.2472 12.5091 15.308 12.5895 15.3499C12.6699 15.3919 12.7592 15.4138 12.8499 15.4138H18.9006C19.0349 15.4151 19.1634 15.4694 19.2579 15.5649C19.3525 15.6604 19.4056 15.7893 19.4056 15.9237C19.4056 16.0581 19.3525 16.1871 19.2579 16.2825C19.1634 16.378 19.0349 16.4323 18.9006 16.4336H15.6103C15.4611 16.4336 15.318 16.4929 15.2126 16.5984C15.1071 16.7038 15.0478 16.8469 15.0478 16.9961C15.0478 17.1453 15.1071 17.2884 15.2126 17.3939C15.318 17.4993 15.4611 17.5586 15.6103 17.5586ZM3.31499 15.9424C3.31499 15.7933 3.37426 15.6502 3.47975 15.5447C3.58524 15.4392 3.72831 15.3799 3.87749 15.3799H4.29028C4.43946 15.3799 4.58253 15.4392 4.68802 15.5447C4.79351 15.6502 4.85278 15.7933 4.85278 15.9424C4.85278 16.0916 4.79351 16.2347 4.68802 16.3402C4.58253 16.4457 4.43946 16.5049 4.29028 16.5049H3.87754C3.72836 16.5049 3.58528 16.4457 3.47979 16.3402C3.3743 16.2347 3.31504 16.0916 3.31504 15.9424H3.31499ZM15.7866 2.75093C15.7533 2.64841 15.6912 2.55761 15.6078 2.48936C15.5243 2.42111 15.423 2.37827 15.3159 2.36595L13.339 2.13851L12.5118 0.328667C12.467 0.230619 12.395 0.147515 12.3043 0.0892466C12.2136 0.0309781 12.108 0 12.0002 0C11.8924 0 11.7869 0.0309781 11.6962 0.0892466C11.6055 0.147515 11.5334 0.230619 11.4886 0.328667L10.6614 2.13851L8.68453 2.36595C8.57744 2.37828 8.47614 2.42112 8.39271 2.48937C8.30927 2.55762 8.2472 2.64841 8.21389 2.75093C8.18058 2.85346 8.17743 2.96339 8.20481 3.06765C8.2322 3.17191 8.28896 3.26611 8.36835 3.33903L9.83399 4.68504L9.4394 6.63546C9.41803 6.74112 9.42747 6.8507 9.4666 6.95115C9.50573 7.0516 9.57289 7.13869 9.66011 7.20205C9.74732 7.26542 9.8509 7.30238 9.95853 7.30856C10.0661 7.31473 10.1733 7.28985 10.2672 7.23687L12.0002 6.25887L13.7332 7.23687C13.8271 7.28985 13.9343 7.31473 14.0419 7.30856C14.1495 7.30238 14.2531 7.26542 14.3403 7.20205C14.4275 7.13869 14.4947 7.0516 14.5338 6.95115C14.5729 6.8507 14.5824 6.74112 14.561 6.63546L14.1665 4.68504L15.6321 3.33903C15.7115 3.26611 15.7683 3.17192 15.7957 3.06765C15.8231 2.96339 15.8199 2.85346 15.7866 2.75093ZM13.1717 4.07117C13.1004 4.13668 13.0472 4.21951 13.0172 4.31163C12.9873 4.40374 12.9817 4.50203 13.0009 4.59696L13.2143 5.65226L12.2768 5.12314C12.1925 5.07554 12.0973 5.05053 12.0004 5.05053C11.9036 5.05053 11.8083 5.07554 11.724 5.12314L10.7865 5.65226L11 4.59696C11.0192 4.50203 11.0135 4.40374 10.9836 4.31163C10.9537 4.21951 10.9004 4.13668 10.8291 4.07117L10.0357 3.34287L11.1053 3.21982C11.2016 3.20876 11.2933 3.17302 11.3717 3.11609C11.4501 3.05915 11.5124 2.98294 11.5527 2.89484L12.0002 1.91562L12.4478 2.89484C12.4881 2.98293 12.5504 3.05914 12.6287 3.11608C12.7071 3.17301 12.7988 3.20875 12.8951 3.21982L13.9647 3.34287L13.1717 4.07117ZM22.4876 4.86031C22.4543 4.75778 22.3922 4.66699 22.3087 4.59873C22.2253 4.53048 22.124 4.48764 22.0169 4.47532L20.4817 4.29865L19.8395 2.8931C19.7946 2.79506 19.7226 2.71195 19.6319 2.65368C19.5412 2.59542 19.4357 2.56444 19.3279 2.56444C19.2201 2.56444 19.1145 2.59542 19.0238 2.65368C18.9331 2.71195 18.8611 2.79506 18.8163 2.8931L18.1737 4.29865L16.6384 4.47532C16.5313 4.48765 16.43 4.53049 16.3466 4.59875C16.2631 4.667 16.201 4.75779 16.1677 4.86031C16.1344 4.96283 16.1313 5.07276 16.1587 5.17702C16.186 5.28128 16.2428 5.37548 16.3222 5.4484L17.4604 6.49371L17.154 8.00843C17.1326 8.11409 17.1421 8.22367 17.1812 8.32412C17.2203 8.42457 17.2875 8.51166 17.3747 8.57502C17.4619 8.63838 17.5655 8.67535 17.6731 8.68153C17.7807 8.6877 17.8879 8.66282 17.9818 8.60984L19.3277 7.85046L20.6736 8.60984C20.7674 8.66282 20.8746 8.6877 20.9822 8.68153C21.0898 8.67535 21.1934 8.63838 21.2806 8.57502C21.3678 8.51166 21.435 8.42457 21.4741 8.32412C21.5133 8.22367 21.5227 8.11409 21.5013 8.00843L21.1949 6.49371L22.3332 5.4484C22.4125 5.37547 22.4693 5.28127 22.4967 5.17701C22.5241 5.07275 22.5209 4.96282 22.4876 4.86031ZM20.2001 5.87984C20.1287 5.94536 20.0755 6.02819 20.0456 6.12032C20.0156 6.21244 20.01 6.31074 20.0292 6.40568L20.1545 7.02528L19.604 6.71459C19.5197 6.66698 19.4244 6.64197 19.3276 6.64197C19.2307 6.64197 19.1355 6.66698 19.0511 6.71459L18.5006 7.02528L18.626 6.40568C18.6452 6.31074 18.6395 6.21244 18.6096 6.12032C18.5797 6.02819 18.5265 5.94536 18.4551 5.87984L17.9895 5.45224L18.6176 5.38001C18.7139 5.36894 18.8056 5.33321 18.884 5.27627C18.9623 5.21934 19.0247 5.14313 19.0649 5.05503L19.3277 4.4801L19.5905 5.05503C19.6307 5.14313 19.6931 5.21934 19.7714 5.27627C19.8498 5.33321 19.9416 5.36894 20.0378 5.38001L20.6659 5.45224L20.2001 5.87984ZM7.83304 4.86031C7.79973 4.75778 7.73765 4.66699 7.65421 4.59873C7.57076 4.53048 7.46947 4.48764 7.36237 4.47532L5.82679 4.29865L5.1846 2.8931C5.13979 2.79506 5.06774 2.71195 4.97704 2.65368C4.88635 2.59542 4.78081 2.56444 4.67301 2.56444C4.56521 2.56444 4.45967 2.59542 4.36897 2.65368C4.27828 2.71195 4.20623 2.79506 4.16142 2.8931L3.51881 4.29865L1.98356 4.47532C1.87646 4.48764 1.77517 4.53048 1.69172 4.59873C1.60828 4.66698 1.54621 4.75777 1.51289 4.86029C1.47957 4.96281 1.47642 5.07275 1.5038 5.17701C1.53118 5.28128 1.58795 5.37548 1.66734 5.4484L2.8056 6.49371L2.49918 8.00843C2.47781 8.11409 2.48725 8.22367 2.52638 8.32412C2.56551 8.42457 2.63267 8.51166 2.71989 8.57502C2.8071 8.63838 2.91068 8.67535 3.01831 8.68153C3.12593 8.6877 3.23306 8.66282 3.32695 8.60984L4.67287 7.85046L6.01874 8.60984C6.11263 8.66282 6.21976 8.6877 6.32738 8.68153C6.43501 8.67535 6.53859 8.63838 6.6258 8.57502C6.71302 8.51166 6.78018 8.42457 6.81931 8.32412C6.85844 8.22367 6.86788 8.11409 6.84651 8.00843L6.54009 6.49371L7.67831 5.4484C7.75774 5.37551 7.81456 5.28133 7.84199 5.17707C7.86943 5.0728 7.86632 4.96285 7.83304 4.86031ZM5.54554 5.87984C5.47419 5.94536 5.42098 6.02819 5.39104 6.12032C5.36111 6.21244 5.35547 6.31074 5.37468 6.40568L5.50003 7.02528L4.94952 6.71459C4.86514 6.66694 4.76987 6.6419 4.67296 6.6419C4.57605 6.6419 4.48079 6.66694 4.3964 6.71459L3.8459 7.02528L3.9712 6.40568C3.9904 6.31074 3.98477 6.21244 3.95483 6.12032C3.9249 6.02819 3.87168 5.94536 3.80034 5.87984L3.33478 5.45224L3.9629 5.38001C4.05913 5.36894 4.15088 5.33321 4.22925 5.27627C4.30762 5.21934 4.36996 5.14313 4.41023 5.05503L4.67301 4.4801L4.93551 5.05503C4.97578 5.14313 5.03812 5.21934 5.11649 5.27627C5.19486 5.33321 5.2866 5.36894 5.38284 5.38001L6.01096 5.45224L5.54554 5.87984Z"/>
</mask>
<path d="M18.9006 14.2888H13.6438C14.0775 12.9873 14.308 11.8919 14.346 10.9575C14.4357 8.75389 13.3952 7.8814 12.5066 7.53753C12.4694 7.5231 12.4307 7.5127 12.3913 7.5065C11.7027 7.39784 11.4576 7.72179 11.2951 8.08798L11.2738 8.13584C11.25 8.18838 11.2345 8.24427 11.2277 8.30154C11.0888 9.49232 10.7148 10.6437 10.1277 11.6889C9.5405 12.7341 8.75173 13.6524 7.80707 14.3906C7.70801 14.2331 7.57064 14.1033 7.4078 14.0133C7.24496 13.9233 7.06196 13.876 6.8759 13.8759H2.99329C2.7014 13.8762 2.42155 13.9923 2.21516 14.1987C2.00876 14.4051 1.89266 14.685 1.89234 14.9769V22.899C1.89266 23.1909 2.00876 23.4708 2.21516 23.6772C2.42155 23.8836 2.7014 23.9997 2.99329 24H6.8759C7.10176 23.9997 7.32209 23.9301 7.50711 23.8006C7.69213 23.671 7.83292 23.4878 7.91043 23.2757C8.33779 23.6148 8.83512 23.8547 9.36651 23.9782C9.40639 23.9875 9.44716 23.9924 9.4881 23.9929C9.92812 23.9976 10.4527 24 11.0576 24C11.6611 24 12.3444 23.9976 13.1027 23.9929H18.0549C18.3445 23.993 18.6288 23.9162 18.8789 23.7703C19.129 23.6244 19.3359 23.4147 19.4783 23.1626C19.6208 22.9105 19.6937 22.6251 19.6896 22.3356C19.6856 22.0461 19.6047 21.7628 19.4552 21.5149C19.7857 21.2644 20.0085 20.8976 20.0784 20.4888C20.1484 20.0801 20.0602 19.6601 19.8317 19.314C20.1525 19.042 20.356 18.6567 20.3998 18.2384C20.4435 17.8201 20.3241 17.4011 20.0665 17.0687C20.2923 16.839 20.4451 16.5477 20.5059 16.2315C20.5667 15.9152 20.5327 15.588 20.4081 15.291C20.2835 14.994 20.074 14.7405 19.8057 14.5622C19.5375 14.3839 19.2226 14.2889 18.9006 14.289V14.2888ZM6.85185 22.875H3.01748V15.0009H6.85185V22.875ZM15.6103 17.5586H18.7737C18.908 17.5599 19.0365 17.6142 19.1311 17.7097C19.2256 17.8051 19.2787 17.9341 19.2787 18.0685C19.2787 18.2029 19.2256 18.3318 19.1311 18.4273C19.0365 18.5228 18.908 18.5771 18.7737 18.5784H16.0613C15.9121 18.5784 15.769 18.6376 15.6635 18.7431C15.5581 18.8486 15.4988 18.9917 15.4988 19.1409C15.4988 19.2901 15.5581 19.4331 15.6635 19.5386C15.769 19.6441 15.9121 19.7034 16.0613 19.7034H18.467C18.6013 19.7047 18.7298 19.7589 18.8244 19.8544C18.9189 19.9499 18.972 20.0789 18.972 20.2133C18.972 20.3476 18.9189 20.4766 18.8244 20.5721C18.7298 20.6676 18.6013 20.7218 18.467 20.7231H16.4566C16.3074 20.7231 16.1643 20.7824 16.0588 20.8879C15.9534 20.9934 15.8941 21.1364 15.8941 21.2856C15.8941 21.4348 15.9534 21.5779 16.0588 21.6834C16.1643 21.7889 16.3074 21.8481 16.4566 21.8481H18.055C18.1894 21.8494 18.3178 21.9037 18.4124 21.9992C18.507 22.0947 18.56 22.2236 18.56 22.358C18.56 22.4924 18.507 22.6214 18.4124 22.7168C18.3178 22.8123 18.1894 22.8666 18.055 22.8679H13.0992C11.6207 22.877 10.432 22.8773 9.56484 22.8686C9.23228 22.7834 8.92028 22.6321 8.64747 22.4238C8.37466 22.2154 8.14664 21.9542 7.97699 21.6557V15.6609C9.14507 14.8625 10.1339 13.8293 10.8805 12.6274C11.627 11.4255 12.1149 10.0812 12.3129 8.6802C12.6924 8.87829 13.2841 9.38871 13.2223 10.9118C13.182 11.9027 12.8875 13.1275 12.3223 14.6562C12.2909 14.7413 12.2804 14.8327 12.2919 14.9226C12.3034 15.0126 12.3365 15.0984 12.3883 15.1728C12.4401 15.2472 12.5091 15.308 12.5895 15.3499C12.6699 15.3919 12.7592 15.4138 12.8499 15.4138H18.9006C19.0349 15.4151 19.1634 15.4694 19.2579 15.5649C19.3525 15.6604 19.4056 15.7893 19.4056 15.9237C19.4056 16.0581 19.3525 16.1871 19.2579 16.2825C19.1634 16.378 19.0349 16.4323 18.9006 16.4336H15.6103C15.4611 16.4336 15.318 16.4929 15.2126 16.5984C15.1071 16.7038 15.0478 16.8469 15.0478 16.9961C15.0478 17.1453 15.1071 17.2884 15.2126 17.3939C15.318 17.4993 15.4611 17.5586 15.6103 17.5586ZM3.31499 15.9424C3.31499 15.7933 3.37426 15.6502 3.47975 15.5447C3.58524 15.4392 3.72831 15.3799 3.87749 15.3799H4.29028C4.43946 15.3799 4.58253 15.4392 4.68802 15.5447C4.79351 15.6502 4.85278 15.7933 4.85278 15.9424C4.85278 16.0916 4.79351 16.2347 4.68802 16.3402C4.58253 16.4457 4.43946 16.5049 4.29028 16.5049H3.87754C3.72836 16.5049 3.58528 16.4457 3.47979 16.3402C3.3743 16.2347 3.31504 16.0916 3.31504 15.9424H3.31499ZM15.7866 2.75093C15.7533 2.64841 15.6912 2.55761 15.6078 2.48936C15.5243 2.42111 15.423 2.37827 15.3159 2.36595L13.339 2.13851L12.5118 0.328667C12.467 0.230619 12.395 0.147515 12.3043 0.0892466C12.2136 0.0309781 12.108 0 12.0002 0C11.8924 0 11.7869 0.0309781 11.6962 0.0892466C11.6055 0.147515 11.5334 0.230619 11.4886 0.328667L10.6614 2.13851L8.68453 2.36595C8.57744 2.37828 8.47614 2.42112 8.39271 2.48937C8.30927 2.55762 8.2472 2.64841 8.21389 2.75093C8.18058 2.85346 8.17743 2.96339 8.20481 3.06765C8.2322 3.17191 8.28896 3.26611 8.36835 3.33903L9.83399 4.68504L9.4394 6.63546C9.41803 6.74112 9.42747 6.8507 9.4666 6.95115C9.50573 7.0516 9.57289 7.13869 9.66011 7.20205C9.74732 7.26542 9.8509 7.30238 9.95853 7.30856C10.0661 7.31473 10.1733 7.28985 10.2672 7.23687L12.0002 6.25887L13.7332 7.23687C13.8271 7.28985 13.9343 7.31473 14.0419 7.30856C14.1495 7.30238 14.2531 7.26542 14.3403 7.20205C14.4275 7.13869 14.4947 7.0516 14.5338 6.95115C14.5729 6.8507 14.5824 6.74112 14.561 6.63546L14.1665 4.68504L15.6321 3.33903C15.7115 3.26611 15.7683 3.17192 15.7957 3.06765C15.8231 2.96339 15.8199 2.85346 15.7866 2.75093ZM13.1717 4.07117C13.1004 4.13668 13.0472 4.21951 13.0172 4.31163C12.9873 4.40374 12.9817 4.50203 13.0009 4.59696L13.2143 5.65226L12.2768 5.12314C12.1925 5.07554 12.0973 5.05053 12.0004 5.05053C11.9036 5.05053 11.8083 5.07554 11.724 5.12314L10.7865 5.65226L11 4.59696C11.0192 4.50203 11.0135 4.40374 10.9836 4.31163C10.9537 4.21951 10.9004 4.13668 10.8291 4.07117L10.0357 3.34287L11.1053 3.21982C11.2016 3.20876 11.2933 3.17302 11.3717 3.11609C11.4501 3.05915 11.5124 2.98294 11.5527 2.89484L12.0002 1.91562L12.4478 2.89484C12.4881 2.98293 12.5504 3.05914 12.6287 3.11608C12.7071 3.17301 12.7988 3.20875 12.8951 3.21982L13.9647 3.34287L13.1717 4.07117ZM22.4876 4.86031C22.4543 4.75778 22.3922 4.66699 22.3087 4.59873C22.2253 4.53048 22.124 4.48764 22.0169 4.47532L20.4817 4.29865L19.8395 2.8931C19.7946 2.79506 19.7226 2.71195 19.6319 2.65368C19.5412 2.59542 19.4357 2.56444 19.3279 2.56444C19.2201 2.56444 19.1145 2.59542 19.0238 2.65368C18.9331 2.71195 18.8611 2.79506 18.8163 2.8931L18.1737 4.29865L16.6384 4.47532C16.5313 4.48765 16.43 4.53049 16.3466 4.59875C16.2631 4.667 16.201 4.75779 16.1677 4.86031C16.1344 4.96283 16.1313 5.07276 16.1587 5.17702C16.186 5.28128 16.2428 5.37548 16.3222 5.4484L17.4604 6.49371L17.154 8.00843C17.1326 8.11409 17.1421 8.22367 17.1812 8.32412C17.2203 8.42457 17.2875 8.51166 17.3747 8.57502C17.4619 8.63838 17.5655 8.67535 17.6731 8.68153C17.7807 8.6877 17.8879 8.66282 17.9818 8.60984L19.3277 7.85046L20.6736 8.60984C20.7674 8.66282 20.8746 8.6877 20.9822 8.68153C21.0898 8.67535 21.1934 8.63838 21.2806 8.57502C21.3678 8.51166 21.435 8.42457 21.4741 8.32412C21.5133 8.22367 21.5227 8.11409 21.5013 8.00843L21.1949 6.49371L22.3332 5.4484C22.4125 5.37547 22.4693 5.28127 22.4967 5.17701C22.5241 5.07275 22.5209 4.96282 22.4876 4.86031ZM20.2001 5.87984C20.1287 5.94536 20.0755 6.02819 20.0456 6.12032C20.0156 6.21244 20.01 6.31074 20.0292 6.40568L20.1545 7.02528L19.604 6.71459C19.5197 6.66698 19.4244 6.64197 19.3276 6.64197C19.2307 6.64197 19.1355 6.66698 19.0511 6.71459L18.5006 7.02528L18.626 6.40568C18.6452 6.31074 18.6395 6.21244 18.6096 6.12032C18.5797 6.02819 18.5265 5.94536 18.4551 5.87984L17.9895 5.45224L18.6176 5.38001C18.7139 5.36894 18.8056 5.33321 18.884 5.27627C18.9623 5.21934 19.0247 5.14313 19.0649 5.05503L19.3277 4.4801L19.5905 5.05503C19.6307 5.14313 19.6931 5.21934 19.7714 5.27627C19.8498 5.33321 19.9416 5.36894 20.0378 5.38001L20.6659 5.45224L20.2001 5.87984ZM7.83304 4.86031C7.79973 4.75778 7.73765 4.66699 7.65421 4.59873C7.57076 4.53048 7.46947 4.48764 7.36237 4.47532L5.82679 4.29865L5.1846 2.8931C5.13979 2.79506 5.06774 2.71195 4.97704 2.65368C4.88635 2.59542 4.78081 2.56444 4.67301 2.56444C4.56521 2.56444 4.45967 2.59542 4.36897 2.65368C4.27828 2.71195 4.20623 2.79506 4.16142 2.8931L3.51881 4.29865L1.98356 4.47532C1.87646 4.48764 1.77517 4.53048 1.69172 4.59873C1.60828 4.66698 1.54621 4.75777 1.51289 4.86029C1.47957 4.96281 1.47642 5.07275 1.5038 5.17701C1.53118 5.28128 1.58795 5.37548 1.66734 5.4484L2.8056 6.49371L2.49918 8.00843C2.47781 8.11409 2.48725 8.22367 2.52638 8.32412C2.56551 8.42457 2.63267 8.51166 2.71989 8.57502C2.8071 8.63838 2.91068 8.67535 3.01831 8.68153C3.12593 8.6877 3.23306 8.66282 3.32695 8.60984L4.67287 7.85046L6.01874 8.60984C6.11263 8.66282 6.21976 8.6877 6.32738 8.68153C6.43501 8.67535 6.53859 8.63838 6.6258 8.57502C6.71302 8.51166 6.78018 8.42457 6.81931 8.32412C6.85844 8.22367 6.86788 8.11409 6.84651 8.00843L6.54009 6.49371L7.67831 5.4484C7.75774 5.37551 7.81456 5.28133 7.84199 5.17707C7.86943 5.0728 7.86632 4.96285 7.83304 4.86031ZM5.54554 5.87984C5.47419 5.94536 5.42098 6.02819 5.39104 6.12032C5.36111 6.21244 5.35547 6.31074 5.37468 6.40568L5.50003 7.02528L4.94952 6.71459C4.86514 6.66694 4.76987 6.6419 4.67296 6.6419C4.57605 6.6419 4.48079 6.66694 4.3964 6.71459L3.8459 7.02528L3.9712 6.40568C3.9904 6.31074 3.98477 6.21244 3.95483 6.12032C3.9249 6.02819 3.87168 5.94536 3.80034 5.87984L3.33478 5.45224L3.9629 5.38001C4.05913 5.36894 4.15088 5.33321 4.22925 5.27627C4.30762 5.21934 4.36996 5.14313 4.41023 5.05503L4.67301 4.4801L4.93551 5.05503C4.97578 5.14313 5.03812 5.21934 5.11649 5.27627C5.19486 5.33321 5.2866 5.36894 5.38284 5.38001L6.01096 5.45224L5.54554 5.87984Z" fill="white" stroke="white" stroke-opacity="0.97" stroke-width="2" mask="url(#path-1-inside-1_710_13805)"/>
</svg>
