<svg width="24" height="24" viewBox="0 0 24 24" fill="none" xmlns="http://www.w3.org/2000/svg">
<path d="M13.8856 21H6.45312C5.21187 21 4.20312 19.9905 4.20312 18.75V5.25C4.20312 4.0095 5.21187 3 6.45312 3H16.9531C18.1936 3 19.2031 4.0095 19.2031 5.25V15.975C19.2031 16.1752 19.2841 16.3553 19.4116 16.4895C19.481 16.5636 19.5649 16.6228 19.658 16.6633C19.7511 16.7038 19.8516 16.7248 19.9531 16.725C20.152 16.725 20.3428 16.646 20.4835 16.5053C20.6241 16.3647 20.7031 16.1739 20.7031 15.975V5.25C20.7031 3.18225 19.0201 1.5 16.9531 1.5H6.45312C4.38538 1.5 2.70312 3.18225 2.70312 5.25V18.75C2.70312 20.8177 4.38538 22.5 6.45312 22.5H13.8856C14.0845 22.5 14.2753 22.421 14.416 22.2803C14.5566 22.1397 14.6356 21.9489 14.6356 21.75C14.6348 21.5576 14.5596 21.3729 14.4256 21.2347C14.3563 21.1609 14.2727 21.102 14.1798 21.0617C14.087 21.0213 13.9869 21.0003 13.8856 21Z" fill="white" fill-opacity="0.97"/>
<path d="M16.2031 11.25H7.20312C7.00421 11.25 6.81345 11.329 6.6728 11.4697C6.53214 11.6103 6.45312 11.8011 6.45312 12C6.45312 12.1989 6.53214 12.3897 6.6728 12.5303C6.81345 12.671 7.00421 12.75 7.20312 12.75H16.2031C16.402 12.75 16.5928 12.671 16.7335 12.5303C16.8741 12.3897 16.9531 12.1989 16.9531 12C16.9531 11.8011 16.8741 11.6103 16.7335 11.4697C16.5928 11.329 16.402 11.25 16.2031 11.25ZM16.2031 7.5H7.20312C7.00421 7.5 6.81345 7.57902 6.6728 7.71967C6.53214 7.86032 6.45312 8.05109 6.45312 8.25C6.45312 8.44891 6.53214 8.63968 6.6728 8.78033C6.81345 8.92098 7.00421 9 7.20312 9H16.2031C16.402 9 16.5928 8.92098 16.7335 8.78033C16.8741 8.63968 16.9531 8.44891 16.9531 8.25C16.9531 8.05109 16.8741 7.86032 16.7335 7.71967C16.5928 7.57902 16.402 7.5 16.2031 7.5ZM16.2031 15H7.20312C7.00421 15 6.81345 15.079 6.6728 15.2197C6.53214 15.3603 6.45312 15.5511 6.45312 15.75C6.45312 15.9489 6.53214 16.1397 6.6728 16.2803C6.81345 16.421 7.00421 16.5 7.20312 16.5H16.2031C16.402 16.5 16.5928 16.421 16.7335 16.2803C16.8741 16.1397 16.9531 15.9489 16.9531 15.75C16.9531 15.5511 16.8741 15.3603 16.7335 15.2197C16.5928 15.079 16.402 15 16.2031 15ZM15.8274 19.536C15.7538 19.6102 15.6968 19.6992 15.6601 19.7971C15.6234 19.8949 15.6078 19.9994 15.6144 20.1038C15.6214 20.2888 15.6973 20.4646 15.8274 20.5965L17.3469 22.1152C17.4164 22.1851 17.499 22.2406 17.59 22.2784C17.681 22.3163 17.7786 22.3358 17.8771 22.3358C17.9757 22.3358 18.0733 22.3163 18.1643 22.2784C18.2553 22.2406 18.3379 22.1851 18.4074 22.1152L21.0774 19.4452C21.149 19.3761 21.2061 19.2933 21.2455 19.2018C21.2848 19.1103 21.3054 19.0119 21.3063 18.9123C21.3072 18.8127 21.2882 18.714 21.2505 18.6218C21.2128 18.5296 21.1571 18.4459 21.0867 18.3755C21.0163 18.305 20.9325 18.2493 20.8403 18.2116C20.7482 18.1739 20.6494 18.1549 20.5498 18.1558C20.4502 18.1567 20.3518 18.1774 20.2603 18.2167C20.1688 18.256 20.0861 18.3131 20.0169 18.3848L17.8771 20.5245L16.8871 19.536C16.763 19.4155 16.6006 19.3425 16.4281 19.3298C16.3189 19.3172 16.2083 19.3292 16.1044 19.3649C16.0005 19.4005 15.9058 19.459 15.8274 19.536Z" fill="white" fill-opacity="0.97"/>
</svg>
