<svg width="351" height="370" viewBox="0 0 351 370" fill="none" xmlns="http://www.w3.org/2000/svg">
<path opacity="0.7" d="M292.929 107.094C251.739 63.1635 189.279 37.3035 130.299 57.9135C81.2393 75.0335 40.6693 117.444 18.6093 164.704C3.08929 197.964 -5.51072 241.054 3.93928 277.304C12.1393 308.744 38.3393 322.724 68.2993 324.964C115.679 328.514 163.229 323.374 210.639 324.284C244.289 324.924 295.639 337.374 325.639 317.394C353.989 298.514 352.219 257.394 349.109 227.224C344.489 182.214 323.209 139.404 292.929 107.094Z" fill="#C5C5C5" fill-opacity="0.2"/>
<path d="M43.7593 252.914H21.7593C21.6267 252.914 21.4995 252.861 21.4058 252.767C21.312 252.673 21.2593 252.546 21.2593 252.414V218.714H14.7293C14.6354 218.715 14.543 218.689 14.4632 218.64C14.3834 218.59 14.3196 218.518 14.2793 218.434C14.2308 218.354 14.2051 218.262 14.2051 218.169C14.2051 218.075 14.2308 217.983 14.2793 217.904L32.2793 195.184C32.3272 195.127 32.3869 195.081 32.4543 195.05C32.5216 195.018 32.595 195.002 32.6693 195.002C32.7436 195.002 32.817 195.018 32.8844 195.05C32.9518 195.081 33.0115 195.127 33.0593 195.184L51.0593 217.904C51.1174 217.977 51.1537 218.065 51.164 218.159C51.1743 218.252 51.1582 218.346 51.1175 218.43C51.0769 218.515 51.0133 218.586 50.934 218.636C50.8548 218.686 50.7631 218.713 50.6693 218.714H44.1093V252.414C44.1144 252.524 44.0828 252.633 44.0195 252.723C43.9562 252.814 43.8647 252.881 43.7593 252.914ZM22.2793 251.914H43.2793V218.214C43.2793 218.081 43.332 217.954 43.4258 217.86C43.5195 217.766 43.6467 217.714 43.7793 217.714H49.7793L32.7793 196.304L15.7793 217.714H21.7793C21.9119 217.714 22.0391 217.766 22.1329 217.86C22.2267 217.954 22.2793 218.081 22.2793 218.214V251.914Z" fill="#C5CAD0"/>
<path d="M264.599 252.914H242.599C242.466 252.914 242.339 252.861 242.245 252.767C242.151 252.673 242.099 252.546 242.099 252.414V218.714H235.539C235.445 218.713 235.353 218.686 235.274 218.636C235.195 218.586 235.131 218.515 235.091 218.43C235.05 218.346 235.034 218.252 235.044 218.159C235.054 218.065 235.091 217.977 235.149 217.904L253.199 195.184C253.247 195.127 253.306 195.081 253.374 195.05C253.441 195.018 253.514 195.002 253.589 195.002C253.663 195.002 253.736 195.018 253.804 195.05C253.871 195.081 253.931 195.127 253.979 195.184L272.029 217.904C272.087 217.977 272.123 218.065 272.133 218.159C272.144 218.252 272.128 218.346 272.087 218.43C272.046 218.515 271.983 218.586 271.903 218.636C271.824 218.686 271.732 218.713 271.639 218.714H265.079V252.414C265.079 252.543 265.029 252.667 264.939 252.76C264.85 252.853 264.728 252.908 264.599 252.914ZM243.119 251.914H264.119V218.214C264.119 218.081 264.171 217.954 264.265 217.86C264.359 217.766 264.486 217.714 264.619 217.714H270.619L253.619 196.304L236.619 217.714H242.619C242.751 217.714 242.878 217.766 242.972 217.86C243.066 217.954 243.119 218.081 243.119 218.214V251.914Z" fill="#C5CAD0"/>
<path d="M320.319 308.864H298.319C298.186 308.864 298.059 308.811 297.965 308.717C297.871 308.623 297.819 308.496 297.819 308.364V274.664H291.289C291.195 274.663 291.103 274.636 291.024 274.586C290.945 274.536 290.881 274.465 290.841 274.38C290.8 274.296 290.784 274.202 290.794 274.109C290.804 274.015 290.841 273.927 290.899 273.854L308.899 251.144C308.947 251.087 309.006 251.041 309.074 251.01C309.141 250.978 309.214 250.962 309.289 250.962C309.363 250.962 309.436 250.978 309.504 251.01C309.571 251.041 309.631 251.087 309.679 251.144L327.679 273.854C327.737 273.927 327.773 274.015 327.783 274.109C327.794 274.202 327.778 274.296 327.737 274.38C327.696 274.465 327.633 274.536 327.553 274.586C327.474 274.636 327.382 274.663 327.289 274.664H320.729V308.364C320.731 308.482 320.691 308.597 320.615 308.689C320.54 308.78 320.435 308.842 320.319 308.864ZM298.849 307.864H319.849V274.164C319.849 274.031 319.901 273.904 319.995 273.81C320.089 273.716 320.216 273.664 320.349 273.664H326.349L309.349 252.254L292.349 273.664H298.349C298.481 273.666 298.606 273.72 298.699 273.813C298.793 273.906 298.846 274.032 298.849 274.164V307.864Z" fill="#C5CAD0"/>
<path d="M297.49 178.184H275.49C275.357 178.184 275.23 178.131 275.136 178.037C275.042 177.943 274.99 177.816 274.99 177.684V143.984H268.43C268.335 143.984 268.241 143.957 268.162 143.905C268.082 143.854 268.018 143.78 267.98 143.694C267.94 143.608 267.924 143.514 267.935 143.42C267.945 143.327 267.982 143.238 268.04 143.164L286.04 120.454C286.088 120.397 286.149 120.351 286.217 120.319C286.285 120.288 286.36 120.272 286.435 120.272C286.51 120.272 286.584 120.288 286.652 120.319C286.72 120.351 286.781 120.397 286.83 120.454L304.83 143.164C304.887 143.238 304.922 143.327 304.932 143.42C304.942 143.514 304.926 143.608 304.885 143.693C304.845 143.778 304.782 143.85 304.703 143.901C304.625 143.952 304.534 143.981 304.44 143.984H297.88V177.684C297.883 177.799 297.845 177.912 297.774 178.003C297.703 178.094 297.602 178.158 297.49 178.184ZM276.02 177.184H297.02V143.484C297.02 143.351 297.072 143.224 297.166 143.13C297.26 143.036 297.387 142.984 297.52 142.984H303.52L286.52 121.564L269.52 142.984H275.52C275.652 142.984 275.779 143.036 275.873 143.13C275.967 143.224 276.02 143.351 276.02 143.484V177.184Z" fill="#C5CAD0"/>
<path d="M89.6495 182.114H67.6495C67.5169 182.114 67.3898 182.061 67.296 181.967C67.2022 181.873 67.1495 181.746 67.1495 181.614V147.914H60.5995C60.505 147.915 60.4119 147.89 60.3312 147.84C60.2504 147.791 60.1854 147.72 60.1435 147.635C60.1016 147.55 60.0846 147.455 60.0946 147.361C60.1045 147.267 60.1409 147.178 60.1996 147.104L78.2495 124.384C78.2974 124.327 78.3571 124.281 78.4245 124.25C78.4919 124.218 78.5652 124.202 78.6395 124.202C78.7138 124.202 78.7872 124.218 78.8546 124.25C78.922 124.281 78.9817 124.327 79.0295 124.384L97.0795 147.104C97.1377 147.177 97.1739 147.265 97.1842 147.359C97.1945 147.452 97.1784 147.546 97.1378 147.63C97.0971 147.715 97.0335 147.786 96.9543 147.836C96.875 147.886 96.7833 147.913 96.6895 147.914H90.1295V181.614C90.1296 181.743 90.0797 181.867 89.9902 181.96C89.9007 182.053 89.7787 182.108 89.6495 182.114ZM68.1695 181.114H89.1695V147.414C89.1695 147.281 89.2222 147.154 89.316 147.06C89.4098 146.966 89.5369 146.914 89.6695 146.914H95.6695L78.6695 125.504L61.6695 146.914H67.6695C67.8021 146.914 67.9293 146.966 68.0231 147.06C68.1169 147.154 68.1695 147.281 68.1695 147.414V181.114Z" fill="#C5CAD0"/>
<path d="M124.65 308.864H102.65C102.517 308.864 102.39 308.811 102.296 308.717C102.202 308.623 102.15 308.496 102.15 308.364V274.664H95.5895C95.4958 274.663 95.4041 274.636 95.3248 274.586C95.2456 274.536 95.182 274.465 95.1413 274.38C95.1006 274.296 95.0845 274.202 95.0948 274.109C95.1051 274.015 95.1414 273.927 95.1995 273.854L113.249 251.144C113.297 251.087 113.357 251.041 113.424 251.01C113.492 250.978 113.565 250.962 113.639 250.962C113.714 250.962 113.787 250.978 113.855 251.01C113.922 251.041 113.982 251.087 114.029 251.144L132.079 273.854C132.138 273.928 132.175 274.017 132.184 274.111C132.194 274.205 132.177 274.3 132.136 274.385C132.094 274.47 132.029 274.541 131.948 274.59C131.867 274.64 131.774 274.665 131.68 274.664H125.13V308.364C125.13 308.493 125.08 308.617 124.99 308.71C124.901 308.803 124.779 308.858 124.65 308.864ZM103.169 307.864H124.169V274.164C124.169 274.031 124.222 273.904 124.316 273.81C124.41 273.716 124.537 273.664 124.669 273.664H130.669L113.669 252.254L96.6695 273.664H102.669C102.802 273.664 102.929 273.716 103.023 273.81C103.117 273.904 103.169 274.031 103.169 274.164V307.864Z" fill="#C5CAD0"/>
<path d="M178.49 369.963C234.823 369.963 280.49 364.667 280.49 358.133C280.49 351.6 234.823 346.303 178.49 346.303C122.157 346.303 76.4902 351.6 76.4902 358.133C76.4902 364.667 122.157 369.963 178.49 369.963Z" fill="#C5CAD0"/>
<path opacity="0.5" d="M178.49 369.963C234.823 369.963 280.49 364.667 280.49 358.133C280.49 351.6 234.823 346.303 178.49 346.303C122.157 346.303 76.4902 351.6 76.4902 358.133C76.4902 364.667 122.157 369.963 178.49 369.963Z" fill="white"/>
<path d="M243.759 74.2134C245.128 66.9267 244.314 59.3983 241.421 52.5721C238.527 45.746 233.683 39.926 227.495 35.8421C221.307 31.7582 214.051 29.5921 206.637 29.6154C199.223 29.6388 191.981 31.8506 185.819 35.9734C181.344 25.0943 173.232 16.1057 162.867 10.5416C152.502 4.97761 140.528 3.18316 128.987 5.46456C117.447 7.74595 107.056 13.9618 99.5884 23.0511C92.1205 32.1404 88.0386 43.5397 88.0394 55.3034C88.0394 55.9334 88.0394 56.5534 88.0394 57.1734C80.7436 59.2527 74.3845 63.7771 70.0285 69.9881C65.6724 76.1991 63.5842 83.719 64.114 91.2867C64.6438 98.8545 67.7595 106.01 72.9385 111.553C78.1176 117.097 85.0451 120.691 92.5594 121.733V122.083H242.139C248.217 121.873 253.987 119.363 258.285 115.061C262.583 110.76 265.088 104.987 265.294 98.9098C265.499 92.8324 263.391 86.9036 259.393 82.3212C255.396 77.7389 249.808 74.8447 243.759 74.2234V74.2134Z" fill="#7E7E7E" stroke="#7E7E7E" stroke-linecap="round" stroke-linejoin="round"/>
<path d="M191.89 203.763L185.6 207.063C185.6 207.063 178.71 210.063 174.21 212.453C169.71 214.843 147.54 231.933 147.54 231.933L143.05 232.233L140.35 234.033C140.35 234.033 135.85 234.933 135.85 235.833C135.85 236.733 136.75 237.023 137.65 237.023C139.004 236.682 140.313 236.182 141.55 235.533C141.55 235.533 138.5 239.993 139.7 239.993C141.437 240.173 143.163 240.45 144.87 240.823C146.855 240.454 148.857 240.187 150.87 240.023C152.37 240.023 155.96 231.933 155.96 231.933C155.96 231.933 181.73 221.743 185.03 219.343C188.33 216.943 197.91 210.953 197.91 210.953L191.89 203.763Z" fill="white" stroke="#7E7E7E" stroke-linecap="round" stroke-linejoin="round"/>
<path d="M216.08 179.144L187.99 204.664L196.09 214.254L211.67 208.264L217.06 179.494L216.08 179.144Z" fill="#C5CAD0" stroke="#7E7E7E" stroke-linecap="round" stroke-linejoin="round"/>
<path d="M191.74 201.263L187.99 204.663L196.09 214.253L200.92 212.393L191.74 201.263Z" fill="#7E7E7E" stroke="#7E7E7E" stroke-linecap="round" stroke-linejoin="round"/>
<path d="M265.109 338.834C265.109 338.834 274.029 348.114 274.939 352.664C275.849 357.214 273.669 361.224 270.029 360.124C266.389 359.024 263.109 347.754 262.199 345.754C261.289 343.754 260.199 341.564 260.199 341.564C260.199 341.564 262.929 337.924 265.109 338.834Z" fill="#C5CAD0" stroke="#7E7E7E" stroke-linecap="round" stroke-linejoin="round"/>
<path d="M275.019 353.153C275.679 357.493 273.529 361.153 270.019 360.153C268.749 359.783 267.529 358.153 266.439 356.153C268.819 352.303 272.649 352.513 275.019 353.153Z" fill="white" stroke="#7E7E7E" stroke-linecap="round" stroke-linejoin="round"/>
<path d="M265.199 353.523C267.199 356.253 269.739 359.183 271.659 358.673C273.579 358.163 274.589 354.553 274.939 352.673C275.839 357.213 273.659 361.193 270.029 360.103C268.249 359.593 266.569 356.643 265.199 353.523Z" fill="white" stroke="#7E7E7E" stroke-linecap="round" stroke-linejoin="round"/>
<path d="M263.289 343.933C263.289 343.933 267.289 341.743 267.479 342.473C267.669 343.203 263.659 345.203 263.109 345.203C262.559 345.203 262.199 345.023 263.289 343.933Z" fill="white" stroke="#7E7E7E" stroke-width="0.5" stroke-linecap="round" stroke-linejoin="round"/>
<path d="M264.199 345.204C264.199 345.204 268.199 343.024 268.389 343.754C268.579 344.484 264.569 346.484 264.019 346.484C263.469 346.484 263.109 346.304 264.199 345.204Z" fill="white" stroke="#7E7E7E" stroke-width="0.5" stroke-linecap="round" stroke-linejoin="round"/>
<path d="M265.109 346.483C265.109 346.483 269.109 344.293 269.299 345.023C269.489 345.753 265.479 347.754 264.929 347.754C264.379 347.754 264.019 347.573 265.109 346.483Z" fill="white" stroke="#7E7E7E" stroke-width="0.5" stroke-linecap="round" stroke-linejoin="round"/>
<path d="M266.019 347.754C266.019 347.754 270.019 345.574 270.209 346.294C270.399 347.014 266.389 349.024 265.839 349.024C265.289 349.024 264.929 348.844 266.019 347.754Z" fill="white" stroke="#7E7E7E" stroke-width="0.5" stroke-linecap="round" stroke-linejoin="round"/>
<path d="M193.239 347.184C193.239 347.184 196.719 352.034 197.029 354.784C197.339 357.534 195.029 357.604 192.089 357.294C189.149 356.984 185.639 359.154 181.499 359.044C177.359 358.934 172.569 357.124 174.869 355.154C177.169 353.184 183.169 351.564 184.469 350.434C185.245 349.754 185.974 349.023 186.649 348.244L193.239 347.184Z" fill="#C5CAD0" stroke="#7E7E7E" stroke-linecap="round" stroke-linejoin="round"/>
<path d="M174.87 355.154C175.679 354.518 176.566 353.99 177.51 353.583C178.568 354.15 179.498 354.926 180.244 355.865C180.991 356.804 181.537 357.886 181.85 359.043H181.49C177.35 358.933 172.57 357.124 174.87 355.154Z" fill="white" stroke="#7E7E7E" stroke-linecap="round" stroke-linejoin="round"/>
<path d="M184.849 349.793C184.849 349.793 189.119 352.023 188.039 352.463C186.959 352.903 183.719 350.403 184.849 349.793Z" fill="white" stroke="#7E7E7E" stroke-width="0.5" stroke-linecap="round" stroke-linejoin="round"/>
<path d="M183.189 350.243C183.189 350.243 187.459 352.473 186.379 352.913C185.299 353.353 182.059 350.853 183.189 350.243Z" fill="white" stroke="#7E7E7E" stroke-width="0.5" stroke-linecap="round" stroke-linejoin="round"/>
<path d="M182.23 350.904C182.23 350.904 186.5 353.134 185.42 353.574C184.34 354.014 181.1 351.514 182.23 350.904Z" fill="white" stroke="#7E7E7E" stroke-width="0.5" stroke-linecap="round" stroke-linejoin="round"/>
<path d="M180.49 351.703C180.49 351.703 184.76 353.933 183.68 354.373C182.6 354.813 179.34 352.303 180.49 351.703Z" fill="white" stroke="#7E7E7E" stroke-width="0.5" stroke-linecap="round" stroke-linejoin="round"/>
<path d="M174.39 355.764C177.383 357.526 180.945 358.053 184.32 357.234C187.454 356.545 190.637 356.104 193.84 355.914C194.93 355.882 196.01 355.7 197.05 355.374C196.97 357.544 194.81 357.584 192.05 357.294C189.11 356.974 185.6 359.154 181.46 359.044C177.78 358.944 173.58 357.484 174.39 355.764Z" fill="white" stroke="#7E7E7E" stroke-linecap="round" stroke-linejoin="round"/>
<path d="M236.969 240.303C236.969 240.303 234.869 269.543 236.139 276.633C237.409 283.723 240.539 304.833 240.539 304.833C240.539 304.833 245.279 308.293 250.009 315.933C254.739 323.573 265.109 338.863 265.109 338.863C265.109 338.863 265.479 341.593 262.199 342.503C262.199 342.503 260.559 343.233 259.649 342.503C258.739 341.773 227.649 313.023 223.979 307.023C220.309 301.023 215.429 264.103 215.429 264.103L210.699 263.193L190.699 301.413L194.179 347.873C194.179 347.873 194.449 349.473 192.179 350.123C189.909 350.773 188.079 351.003 186.719 349.833C185.359 348.663 174.829 297.783 175.719 295.963C176.609 294.143 196.789 244.123 196.789 244.123L198.419 239.943C198.419 239.943 217.529 242.123 226.079 240.483C234.629 238.843 236.249 237.543 236.969 240.303Z" fill="#7E7E7E" stroke="#7E7E7E" stroke-linecap="round" stroke-linejoin="round"/>
<path d="M210.7 263.163L200.32 260.073" stroke="white" stroke-linecap="round" stroke-linejoin="round"/>
<path d="M209.6 263.714L195.41 262.073" stroke="white" stroke-linecap="round" stroke-linejoin="round"/>
<path d="M233.71 245.963C233.71 245.963 226.03 250.863 233.71 254.133" stroke="white" stroke-linecap="round" stroke-linejoin="round"/>
<path d="M211.969 247.963L210.789 252.683L207.629 255.843L211.569 259.383" stroke="white" stroke-linecap="round" stroke-linejoin="round"/>
<path d="M256.96 192.023C249.96 186.343 241.27 179.483 241.27 179.483C241.27 179.483 222.84 179.063 216.08 179.143L206.58 209.463C206.58 209.463 197.85 239.663 198.21 240.943C198.57 242.223 204.77 245.123 218.6 246.763C232.43 248.403 238.25 242.583 238.6 240.763C238.751 239.115 238.629 237.453 238.24 235.843L242.97 227.473L258.62 201.733C259.564 200.188 259.916 198.352 259.611 196.567C259.306 194.782 258.364 193.168 256.96 192.023Z" fill="#C5CAD0" stroke="#7E7E7E" stroke-linecap="round" stroke-linejoin="round"/>
<path d="M251.489 187.593C246.129 183.293 241.299 179.483 241.299 179.483C241.299 179.483 235.179 179.343 228.709 179.243C227.069 182.983 224.239 190.623 226.569 194.403C229.409 199.063 238.799 200.453 251.489 187.593Z" fill="#7E7E7E" stroke="#7E7E7E" stroke-linecap="round" stroke-linejoin="round"/>
<path d="M243.16 148.303C243.16 148.303 237.89 149.763 235.7 153.033C233.51 156.303 227.15 175.423 227.33 177.033C227.51 178.643 235.7 177.033 235.7 177.033C235.7 177.033 230.06 188.863 230.06 190.863C230.06 192.863 232.61 193.963 235.88 193.233C239.15 192.503 250.32 173.303 250.32 173.303C250.32 173.303 253.63 177.143 255.72 175.823C258.12 174.313 257.36 171.273 255.54 171.273C253.72 171.273 260.63 163.813 258.27 158.903C255.91 153.993 245.35 146.673 243.16 148.303Z" fill="white" stroke="#7E7E7E" stroke-linecap="round" stroke-linejoin="round"/>
<path d="M241.16 142.493C241.16 142.493 230.97 142.493 230.42 147.403C229.87 152.313 235.16 154.503 240.98 153.593C246.8 152.683 252.08 153.043 252.81 153.953C253.54 154.863 245.71 156.683 247.53 157.953C248.588 158.713 249.869 159.1 251.17 159.053C251.17 159.053 248.62 159.773 248.8 161.593C248.98 163.413 250.57 171.453 251.8 171.453C253.03 171.453 255.5 171.293 255.5 171.293C257.804 170.135 259.897 168.596 261.69 166.743C264.42 163.833 265.14 157.643 261.69 154.013C258.24 150.383 255.5 146.853 252.77 143.943C250.04 141.033 247.49 137.943 242.03 137.213C236.57 136.483 233.7 138.663 241.16 142.493Z" fill="#7E7E7E" stroke="#7E7E7E" stroke-linecap="round" stroke-linejoin="round"/>
<path d="M262.41 161.303C262.598 162.37 262.635 163.457 262.52 164.533" stroke="white" stroke-linecap="round" stroke-linejoin="round"/>
<path d="M243.71 148.233C243.71 148.233 232.54 149.323 236.71 151.453C240.88 153.583 247.39 149.593 255.52 152.813C256.891 153.309 258.144 154.086 259.196 155.096C260.248 156.105 261.077 157.324 261.63 158.673" stroke="white" stroke-linecap="round" stroke-linejoin="round"/>
<path d="M250.49 156.713C250.49 156.713 258.12 160.443 259.13 165.863" stroke="white" stroke-linecap="round" stroke-linejoin="round"/>
<path d="M235.699 177.063C235.699 177.063 244.439 176.523 246.799 174.523" stroke="#7E7E7E" stroke-linecap="round" stroke-linejoin="round"/>
<path d="M232.969 169.783C232.969 169.783 239.339 171.603 241.159 167.783" stroke="#7E7E7E" stroke-linecap="round" stroke-linejoin="round"/>
<path d="M240.07 167.053L242.8 168.153" stroke="#7E7E7E" stroke-linecap="round" stroke-linejoin="round"/>
<path d="M234.97 161.414C234.97 161.414 229.33 162.144 229.33 163.054C229.33 163.964 232.97 166.514 232.97 166.514" fill="white"/>
<path d="M234.97 161.414C234.97 161.414 229.33 162.144 229.33 163.054C229.33 163.964 232.97 166.514 232.97 166.514" stroke="#7E7E7E" stroke-linecap="round" stroke-linejoin="round"/>
<path d="M235.689 159.663C235.429 160.453 234.899 160.983 234.499 160.853C234.099 160.723 233.999 159.983 234.269 159.193C234.539 158.403 235.059 157.873 235.459 158.003C235.859 158.133 235.959 158.883 235.689 159.663Z" fill="#7E7E7E"/>
<path d="M240.489 162.093C240.219 162.883 239.689 163.413 239.299 163.283C238.909 163.153 238.799 162.403 239.059 161.623C239.319 160.843 239.859 160.303 240.249 160.433C240.639 160.563 240.739 161.303 240.489 162.093Z" fill="#7E7E7E"/>
<path d="M240.74 156.924C240.74 156.924 243.5 157.174 243.24 160.924L240.74 156.924Z" fill="#7E7E7E" stroke="#7E7E7E" stroke-linecap="round" stroke-linejoin="round"/>
<path d="M238.239 155.174C238.239 155.174 236.729 153.174 234.729 155.924L238.239 155.174Z" fill="#7E7E7E" stroke="#7E7E7E" stroke-linecap="round" stroke-linejoin="round"/>
<path d="M188.02 88.6135L161.68 55.4635L135.35 88.6135H145.65V138.523H177.72V88.6135H188.02Z" fill="#7E7E7E" stroke="#7E7E7E" stroke-linecap="round" stroke-linejoin="round"/>
<path d="M188.02 86.4635L161.68 53.3135L135.35 86.4635H145.65V136.373H177.72V86.4635H188.02Z" fill="white" stroke="#7E7E7E" stroke-linecap="round" stroke-linejoin="round"/>
<path d="M213.049 130.743H105.939V237.853H213.049V130.743Z" fill="white" stroke="#7E7E7E" stroke-linecap="round" stroke-linejoin="round"/>
<path d="M208.07 135.723H110.92V232.873H208.07V135.723Z" fill="#7E7E7E" stroke="#7E7E7E" stroke-linecap="round" stroke-linejoin="round"/>
<path d="M185.54 168.433L162.88 192.113L145.24 187.173C144.371 186.931 143.458 186.888 142.57 187.047C141.682 187.207 140.841 187.564 140.11 188.093L110.92 209.303V232.913H208.07V182.913L194.17 168.423C193.61 167.845 192.939 167.385 192.197 167.071C191.455 166.758 190.658 166.596 189.853 166.597C189.048 166.598 188.251 166.761 187.51 167.077C186.769 167.392 186.099 167.854 185.54 168.433Z" fill="white" stroke="#7E7E7E" stroke-linecap="round" stroke-linejoin="round"/>
<path d="M158.28 166.514C160.852 160.251 157.859 153.088 151.595 150.517C145.331 147.945 138.169 150.939 135.598 157.202C133.026 163.466 136.019 170.628 142.283 173.2C148.547 175.771 155.709 172.778 158.28 166.514Z" fill="white" stroke="#7E7E7E" stroke-linecap="round" stroke-linejoin="round"/>
<path d="M243.58 196.654L216.81 224.174L176.01 235.414C176.01 235.414 172.37 231.184 169.75 231.154C167.13 231.124 158.69 234.154 158.69 234.154C158.69 234.154 157.62 236.774 159.69 236.794C161.818 236.644 163.929 236.309 166 235.794L154.43 237.794C154.569 238.674 155.017 239.477 155.692 240.06C156.368 240.642 157.228 240.966 158.12 240.974H163.33L172.24 242.104L180.67 239.554C180.67 239.554 220.61 235.204 222.72 234.694C224.83 234.184 258.72 205.094 258.72 205.094C258.72 205.094 262.55 201.724 261.09 197.814C259.63 193.904 252.16 191.134 252.16 191.134" fill="white"/>
<path d="M243.58 196.654L216.81 224.174L176.01 235.414C176.01 235.414 172.37 231.184 169.75 231.154C167.13 231.124 158.69 234.154 158.69 234.154C158.69 234.154 157.62 236.774 159.69 236.794C161.818 236.644 163.929 236.309 166 235.794L154.43 237.794C154.569 238.674 155.017 239.477 155.692 240.06C156.368 240.642 157.228 240.966 158.12 240.974H163.33L172.24 242.104L180.67 239.554C180.67 239.554 220.61 235.204 222.72 234.694C224.83 234.184 258.72 205.094 258.72 205.094C258.72 205.094 262.55 201.724 261.09 197.814C259.63 193.904 252.16 191.134 252.16 191.134" stroke="#7E7E7E" stroke-linecap="round" stroke-linejoin="round"/>
<path d="M238.75 199.524L218.34 219.994L233.49 230.924L259.81 206.134C261.094 204.931 261.929 203.324 262.174 201.582C262.42 199.839 262.062 198.065 261.16 196.554L261.07 196.414C259.182 193.42 256.513 191 253.35 189.414" fill="#C5CAD0"/>
<path d="M238.75 199.524L218.34 219.994L233.49 230.924L259.81 206.134C261.094 204.931 261.929 203.324 262.174 201.582C262.42 199.839 262.062 198.065 261.16 196.554L261.07 196.414C259.182 193.42 256.513 191 253.35 189.414" stroke="#7E7E7E" stroke-linecap="round" stroke-linejoin="round"/>
<path d="M233.53 230.923L237.09 227.563L221.86 216.463L218.34 219.993L233.53 230.923Z" fill="#7E7E7E" stroke="#7E7E7E" stroke-linecap="round" stroke-linejoin="round"/>
<path d="M135.85 235.833L139.7 239.993L143.43 240.403L137.64 235.443L135.85 235.833Z" fill="white" stroke="#7E7E7E" stroke-linecap="round" stroke-linejoin="round"/>
<path d="M143.09 235.833L146.94 239.993L150.66 240.403L144.87 235.443L143.09 235.833Z" fill="white" stroke="#7E7E7E" stroke-linecap="round" stroke-linejoin="round"/>
<path d="M143.43 240.404L139.08 234.823H141.77L147.15 240.404L144.87 240.823L143.43 240.404Z" fill="white" stroke="#7E7E7E" stroke-linecap="round" stroke-linejoin="round"/>
<path d="M134.33 236.273L136.19 239.784L139.7 239.993L135.85 235.833L134.33 236.273Z" fill="white" stroke="#7E7E7E" stroke-linecap="round" stroke-linejoin="round"/>
</svg>
