<svg width="352" height="371" viewBox="0 0 352 371" fill="none" xmlns="http://www.w3.org/2000/svg">
<path opacity="0.7" d="M293.439 107.79C252.249 63.8601 189.789 38.0001 130.809 58.6101C81.7491 75.7301 41.1791 118.14 19.1191 165.4C3.59905 198.66 -5.00095 241.75 4.44905 278C12.649 309.44 38.8491 323.42 68.8091 325.66C116.189 329.21 163.739 324.07 211.149 324.98C244.799 325.62 296.149 338.07 326.149 318.09C354.499 299.21 352.729 258.09 349.619 227.92C344.999 182.91 323.719 140.1 293.439 107.79Z" fill="#C5C5C5" fill-opacity="0.2"/>
<path d="M44.2691 195.699H22.2691C22.1365 195.699 22.0093 195.751 21.9155 195.845C21.8218 195.939 21.7691 196.066 21.7691 196.199V229.899H15.2391C15.1451 229.897 15.0528 229.923 14.973 229.973C14.8932 230.022 14.8294 230.094 14.7891 230.179C14.7405 230.259 14.7148 230.35 14.7148 230.444C14.7148 230.537 14.7405 230.629 14.7891 230.709L32.7891 253.429C32.837 253.486 32.8967 253.531 32.964 253.563C33.0314 253.594 33.1048 253.61 33.1791 253.61C33.2534 253.61 33.3268 253.594 33.3942 253.563C33.4615 253.531 33.5212 253.486 33.5691 253.429L51.5691 230.709C51.6272 230.635 51.6635 230.547 51.6738 230.454C51.6841 230.36 51.668 230.266 51.6273 230.182C51.5866 230.097 51.5231 230.026 51.4438 229.976C51.3646 229.926 51.2728 229.899 51.1791 229.899H44.6191V196.199C44.6242 196.088 44.5925 195.98 44.5292 195.889C44.4659 195.799 44.3745 195.732 44.2691 195.699ZM22.7891 196.699H43.7891V230.399C43.7891 230.531 43.8418 230.659 43.9355 230.752C44.0293 230.846 44.1565 230.899 44.2891 230.899H50.2891L33.2891 252.309L16.2891 230.899H22.2891C22.4217 230.899 22.5489 230.846 22.6427 230.752C22.7364 230.659 22.7891 230.531 22.7891 230.399V196.699Z" fill="#C5CAD0"/>
<path d="M265.108 195.699H243.108C242.976 195.699 242.849 195.751 242.755 195.845C242.661 195.939 242.608 196.066 242.608 196.199V229.899H236.048C235.955 229.899 235.863 229.926 235.784 229.976C235.705 230.026 235.641 230.097 235.6 230.182C235.56 230.266 235.544 230.36 235.554 230.454C235.564 230.547 235.6 230.635 235.658 230.709L253.708 253.429C253.756 253.486 253.816 253.531 253.883 253.563C253.951 253.594 254.024 253.61 254.098 253.61C254.173 253.61 254.246 253.594 254.314 253.563C254.381 253.531 254.441 253.486 254.488 253.429L272.538 230.709C272.597 230.635 272.633 230.547 272.643 230.454C272.653 230.36 272.637 230.266 272.597 230.182C272.556 230.097 272.492 230.026 272.413 229.976C272.334 229.926 272.242 229.899 272.148 229.899H265.588V196.199C265.589 196.07 265.539 195.945 265.449 195.852C265.36 195.759 265.238 195.704 265.108 195.699ZM243.628 196.699H264.628V230.399C264.628 230.531 264.681 230.659 264.775 230.752C264.869 230.846 264.996 230.899 265.128 230.899H271.128L254.128 252.309L237.128 230.899H243.128C243.261 230.899 243.388 230.846 243.482 230.752C243.576 230.659 243.628 230.531 243.628 230.399V196.699Z" fill="#C5CAD0"/>
<path d="M320.828 251.659H298.828C298.696 251.659 298.569 251.711 298.475 251.805C298.381 251.899 298.328 252.026 298.328 252.159V285.859H291.798C291.705 285.859 291.613 285.886 291.534 285.936C291.455 285.986 291.391 286.057 291.35 286.142C291.31 286.226 291.294 286.32 291.304 286.414C291.314 286.507 291.35 286.595 291.408 286.669L309.408 309.379C309.456 309.436 309.516 309.481 309.583 309.512C309.651 309.544 309.724 309.56 309.798 309.56C309.873 309.56 309.946 309.544 310.014 309.512C310.081 309.481 310.141 309.436 310.188 309.379L328.188 286.669C328.247 286.595 328.283 286.507 328.293 286.414C328.303 286.32 328.287 286.226 328.247 286.142C328.206 286.057 328.142 285.986 328.063 285.936C327.984 285.886 327.892 285.859 327.798 285.859H321.238V252.159C321.24 252.04 321.2 251.925 321.125 251.833C321.05 251.742 320.945 251.68 320.828 251.659ZM299.358 252.659H320.358V286.359C320.358 286.491 320.411 286.618 320.505 286.712C320.599 286.806 320.726 286.859 320.858 286.859H326.858L309.858 308.269L292.858 286.859H298.858C298.99 286.856 299.116 286.803 299.209 286.709C299.302 286.616 299.356 286.491 299.358 286.359V252.659Z" fill="#C5CAD0"/>
<path d="M297.999 120.968H275.999C275.867 120.968 275.74 121.021 275.646 121.115C275.552 121.209 275.499 121.336 275.499 121.468V155.168H268.939C268.844 155.168 268.751 155.195 268.671 155.246C268.591 155.298 268.528 155.372 268.489 155.458C268.45 155.544 268.434 155.638 268.445 155.732C268.455 155.825 268.491 155.914 268.549 155.988L286.549 178.698C286.598 178.755 286.659 178.801 286.727 178.833C286.795 178.864 286.869 178.88 286.944 178.88C287.02 178.88 287.094 178.864 287.162 178.833C287.23 178.801 287.291 178.755 287.339 178.698L305.339 155.988C305.397 155.914 305.432 155.825 305.442 155.732C305.452 155.638 305.436 155.544 305.395 155.459C305.355 155.374 305.292 155.302 305.213 155.251C305.135 155.2 305.043 155.171 304.949 155.168H298.389V121.468C298.392 121.353 298.355 121.24 298.284 121.149C298.213 121.057 298.112 120.994 297.999 120.968ZM276.529 121.968H297.529V155.668C297.529 155.801 297.582 155.928 297.676 156.022C297.77 156.116 297.897 156.168 298.029 156.168H304.029L287.029 177.588L270.029 156.168H276.029C276.162 156.168 276.289 156.116 276.383 156.022C276.477 155.928 276.529 155.801 276.529 155.668V121.968Z" fill="#C5CAD0"/>
<path d="M90.1593 124.899H68.1593C68.0267 124.899 67.8995 124.951 67.8058 125.045C67.712 125.139 67.6593 125.266 67.6593 125.399V159.099H61.1093C61.0147 159.097 60.9217 159.123 60.8409 159.172C60.7602 159.221 60.6951 159.292 60.6533 159.377C60.6114 159.462 60.5944 159.557 60.6043 159.651C60.6142 159.745 60.6507 159.834 60.7093 159.909L78.7593 182.629C78.8072 182.686 78.8669 182.731 78.9343 182.762C79.0016 182.794 79.075 182.81 79.1493 182.81C79.2236 182.81 79.297 182.794 79.3644 182.762C79.4317 182.731 79.4914 182.686 79.5393 182.629L97.5893 159.909C97.6474 159.835 97.6837 159.747 97.694 159.654C97.7043 159.56 97.6882 159.466 97.6475 159.382C97.6069 159.297 97.5433 159.226 97.464 159.176C97.3848 159.126 97.293 159.099 97.1993 159.099H90.6393V125.399C90.6394 125.269 90.5895 125.145 90.5 125.052C90.4105 124.959 90.2884 124.904 90.1593 124.899ZM68.6793 125.899H89.6793V159.599C89.6793 159.731 89.732 159.858 89.8258 159.952C89.9195 160.046 90.0467 160.099 90.1793 160.099H96.1793L79.1793 181.509L62.1793 160.099H68.1793C68.3119 160.099 68.4391 160.046 68.5329 159.952C68.6266 159.858 68.6793 159.731 68.6793 159.599V125.899Z" fill="#C5CAD0"/>
<path d="M125.159 251.659H103.159C103.027 251.659 102.899 251.711 102.806 251.805C102.712 251.899 102.659 252.026 102.659 252.159V285.859H96.0993C96.0055 285.859 95.9138 285.886 95.8346 285.936C95.7553 285.986 95.6917 286.057 95.6511 286.142C95.6104 286.226 95.5943 286.32 95.6046 286.414C95.6149 286.507 95.6512 286.595 95.7093 286.669L113.759 309.379C113.807 309.436 113.867 309.481 113.934 309.512C114.002 309.544 114.075 309.56 114.149 309.56C114.224 309.56 114.297 309.544 114.364 309.512C114.432 309.481 114.491 309.436 114.539 309.379L132.589 286.669C132.648 286.594 132.684 286.505 132.694 286.411C132.704 286.317 132.687 286.222 132.645 286.137C132.603 286.052 132.538 285.981 132.458 285.932C132.377 285.883 132.284 285.857 132.189 285.859H125.639V252.159C125.639 252.029 125.589 251.905 125.5 251.812C125.41 251.719 125.288 251.664 125.159 251.659ZM103.679 252.659H124.679V286.359C124.679 286.491 124.732 286.618 124.826 286.712C124.919 286.806 125.047 286.859 125.179 286.859H131.179L114.179 308.269L97.1793 286.859H103.179C103.312 286.859 103.439 286.806 103.533 286.712C103.627 286.618 103.679 286.491 103.679 286.359V252.659Z" fill="#C5CAD0"/>
<path d="M179 370.66C235.333 370.66 281 365.364 281 358.83C281 352.296 235.333 347 179 347C122.667 347 77 352.296 77 358.83C77 365.364 122.667 370.66 179 370.66Z" fill="#C5CAD0"/>
<path opacity="0.5" d="M179 370.66C235.333 370.66 281 365.364 281 358.83C281 352.296 235.333 347 179 347C122.667 347 77 352.296 77 358.83C77 365.364 122.667 370.66 179 370.66Z" fill="white"/>
<path d="M244.269 74.91C245.637 67.6233 244.824 60.0948 241.93 53.2687C239.037 46.4425 234.193 40.6226 228.005 36.5386C221.817 32.4547 214.561 30.2886 207.147 30.312C199.733 30.3353 192.491 32.5471 186.329 36.67C181.854 25.7909 173.741 16.8022 163.377 11.2382C153.012 5.67415 141.038 3.87969 129.497 6.16109C117.957 8.44248 107.566 14.6583 100.098 23.7476C92.6303 32.8369 88.5484 44.2363 88.5492 56C88.5492 56.63 88.5492 57.25 88.5492 57.87C81.2534 59.9492 74.8943 64.4737 70.5382 70.6847C66.1821 76.8956 64.0939 84.4155 64.6238 91.9833C65.1536 99.551 68.2693 106.707 73.4483 112.25C78.6273 117.793 85.5548 121.388 93.0692 122.43V122.78H242.649C248.726 122.569 254.497 120.059 258.795 115.758C263.093 111.456 265.598 105.684 265.804 99.6063C266.009 93.529 263.9 87.6001 259.903 83.0178C255.906 78.4354 250.318 75.5412 244.269 74.92V74.91Z" fill="#7E7E7E" stroke="#7E7E7E" stroke-linecap="round" stroke-linejoin="round"/>
<path d="M192.399 204.46L186.109 207.76C186.109 207.76 179.219 210.76 174.719 213.15C170.219 215.54 148.049 232.63 148.049 232.63L143.559 232.93L140.859 234.73C140.859 234.73 136.359 235.63 136.359 236.53C136.359 237.43 137.259 237.72 138.159 237.72C139.513 237.379 140.823 236.878 142.059 236.23C142.059 236.23 139.009 240.69 140.209 240.69C141.947 240.87 143.673 241.147 145.379 241.52C147.364 241.15 149.367 240.883 151.379 240.72C152.879 240.72 156.469 232.63 156.469 232.63C156.469 232.63 182.239 222.44 185.539 220.04C188.839 217.64 198.419 211.65 198.419 211.65L192.399 204.46Z" fill="white" stroke="#7E7E7E" stroke-linecap="round" stroke-linejoin="round"/>
<path d="M216.59 179.84L188.5 205.36L196.6 214.95L212.18 208.96L217.57 180.19L216.59 179.84Z" fill="#C5CAD0" stroke="#7E7E7E" stroke-linecap="round" stroke-linejoin="round"/>
<path d="M192.25 201.96L188.5 205.36L196.6 214.95L201.43 213.09L192.25 201.96Z" fill="#7E7E7E" stroke="#7E7E7E" stroke-linecap="round" stroke-linejoin="round"/>
<path d="M265.619 339.53C265.619 339.53 274.539 348.81 275.449 353.36C276.359 357.91 274.179 361.92 270.539 360.82C266.899 359.72 263.619 348.45 262.709 346.45C261.799 344.45 260.709 342.26 260.709 342.26C260.709 342.26 263.439 338.62 265.619 339.53Z" fill="#C5CAD0" stroke="#7E7E7E" stroke-linecap="round" stroke-linejoin="round"/>
<path d="M275.529 353.85C276.189 358.19 274.039 361.85 270.529 360.85C269.259 360.48 268.039 358.85 266.949 356.85C269.329 353 273.159 353.21 275.529 353.85Z" fill="white" stroke="#7E7E7E" stroke-linecap="round" stroke-linejoin="round"/>
<path d="M265.709 354.22C267.709 356.95 270.249 359.88 272.169 359.37C274.089 358.86 275.099 355.25 275.449 353.37C276.349 357.91 274.169 361.89 270.539 360.8C268.759 360.29 267.079 357.34 265.709 354.22Z" fill="white" stroke="#7E7E7E" stroke-linecap="round" stroke-linejoin="round"/>
<path d="M263.799 344.63C263.799 344.63 267.799 342.44 267.989 343.17C268.179 343.9 264.169 345.9 263.619 345.9C263.069 345.9 262.709 345.72 263.799 344.63Z" fill="white" stroke="#7E7E7E" stroke-width="0.5" stroke-linecap="round" stroke-linejoin="round"/>
<path d="M264.709 345.9C264.709 345.9 268.709 343.72 268.899 344.45C269.089 345.18 265.079 347.18 264.529 347.18C263.979 347.18 263.619 347 264.709 345.9Z" fill="white" stroke="#7E7E7E" stroke-width="0.5" stroke-linecap="round" stroke-linejoin="round"/>
<path d="M265.619 347.18C265.619 347.18 269.619 344.99 269.809 345.72C269.999 346.45 265.989 348.45 265.439 348.45C264.889 348.45 264.529 348.27 265.619 347.18Z" fill="white" stroke="#7E7E7E" stroke-width="0.5" stroke-linecap="round" stroke-linejoin="round"/>
<path d="M266.529 348.45C266.529 348.45 270.529 346.27 270.719 346.99C270.909 347.71 266.899 349.72 266.349 349.72C265.799 349.72 265.439 349.54 266.529 348.45Z" fill="white" stroke="#7E7E7E" stroke-width="0.5" stroke-linecap="round" stroke-linejoin="round"/>
<path d="M193.749 347.88C193.749 347.88 197.229 352.73 197.539 355.48C197.849 358.23 195.539 358.3 192.599 357.99C189.659 357.68 186.149 359.85 182.009 359.74C177.869 359.63 173.079 357.82 175.379 355.85C177.679 353.88 183.679 352.26 184.979 351.13C185.755 350.451 186.484 349.719 187.159 348.94L193.749 347.88Z" fill="#C5CAD0" stroke="#7E7E7E" stroke-linecap="round" stroke-linejoin="round"/>
<path d="M175.38 355.85C176.188 355.215 177.076 354.687 178.02 354.28C179.077 354.846 180.008 355.623 180.754 356.562C181.5 357.501 182.047 358.582 182.36 359.74H182C177.86 359.63 173.08 357.82 175.38 355.85Z" fill="white" stroke="#7E7E7E" stroke-linecap="round" stroke-linejoin="round"/>
<path d="M185.359 350.49C185.359 350.49 189.629 352.72 188.549 353.16C187.469 353.6 184.229 351.1 185.359 350.49Z" fill="white" stroke="#7E7E7E" stroke-width="0.5" stroke-linecap="round" stroke-linejoin="round"/>
<path d="M183.699 350.94C183.699 350.94 187.969 353.17 186.889 353.61C185.809 354.05 182.569 351.55 183.699 350.94Z" fill="white" stroke="#7E7E7E" stroke-width="0.5" stroke-linecap="round" stroke-linejoin="round"/>
<path d="M182.74 351.6C182.74 351.6 187.01 353.83 185.93 354.27C184.85 354.71 181.61 352.21 182.74 351.6Z" fill="white" stroke="#7E7E7E" stroke-width="0.5" stroke-linecap="round" stroke-linejoin="round"/>
<path d="M181 352.4C181 352.4 185.27 354.63 184.19 355.07C183.11 355.51 179.85 353 181 352.4Z" fill="white" stroke="#7E7E7E" stroke-width="0.5" stroke-linecap="round" stroke-linejoin="round"/>
<path d="M174.9 356.46C177.893 358.222 181.455 358.749 184.83 357.93C187.964 357.242 191.147 356.8 194.35 356.61C195.44 356.578 196.52 356.397 197.56 356.07C197.48 358.24 195.32 358.28 192.56 357.99C189.62 357.67 186.11 359.85 181.97 359.74C178.29 359.64 174.09 358.18 174.9 356.46Z" fill="white" stroke="#7E7E7E" stroke-linecap="round" stroke-linejoin="round"/>
<path d="M237.479 241C237.479 241 235.379 270.24 236.649 277.33C237.919 284.42 241.049 305.53 241.049 305.53C241.049 305.53 245.789 308.99 250.519 316.63C255.249 324.27 265.619 339.56 265.619 339.56C265.619 339.56 265.989 342.29 262.709 343.2C262.709 343.2 261.069 343.93 260.159 343.2C259.249 342.47 228.159 313.72 224.489 307.72C220.819 301.72 215.939 264.8 215.939 264.8L211.209 263.89L191.209 302.11L194.689 348.57C194.689 348.57 194.959 350.17 192.689 350.82C190.419 351.47 188.589 351.7 187.229 350.53C185.869 349.36 175.339 298.48 176.229 296.66C177.119 294.84 197.299 244.82 197.299 244.82L198.929 240.64C198.929 240.64 218.039 242.82 226.589 241.18C235.139 239.54 236.759 238.24 237.479 241Z" fill="#7E7E7E" stroke="#7E7E7E" stroke-linecap="round" stroke-linejoin="round"/>
<path d="M211.21 263.86L200.83 260.77" stroke="white" stroke-linecap="round" stroke-linejoin="round"/>
<path d="M210.11 264.41L195.92 262.77" stroke="white" stroke-linecap="round" stroke-linejoin="round"/>
<path d="M234.22 246.66C234.22 246.66 226.54 251.56 234.22 254.83" stroke="white" stroke-linecap="round" stroke-linejoin="round"/>
<path d="M212.479 248.66L211.299 253.38L208.139 256.54L212.079 260.08" stroke="white" stroke-linecap="round" stroke-linejoin="round"/>
<path d="M257.47 192.72C250.47 187.04 241.78 180.18 241.78 180.18C241.78 180.18 223.35 179.76 216.59 179.84L207.09 210.16C207.09 210.16 198.36 240.36 198.72 241.64C199.08 242.92 205.28 245.82 219.11 247.46C232.94 249.1 238.76 243.28 239.11 241.46C239.261 239.811 239.139 238.149 238.75 236.54L243.48 228.17L259.13 202.43C260.074 200.884 260.426 199.049 260.121 197.264C259.815 195.478 258.874 193.864 257.47 192.72Z" fill="#C5CAD0" stroke="#7E7E7E" stroke-linecap="round" stroke-linejoin="round"/>
<path d="M251.999 188.29C246.639 183.99 241.809 180.18 241.809 180.18C241.809 180.18 235.689 180.04 229.219 179.94C227.579 183.68 224.749 191.32 227.079 195.1C229.919 199.76 239.309 201.15 251.999 188.29Z" fill="#7E7E7E" stroke="#7E7E7E" stroke-linecap="round" stroke-linejoin="round"/>
<path d="M243.67 149C243.67 149 238.4 150.46 236.21 153.73C234.02 157 227.66 176.12 227.84 177.73C228.02 179.34 236.21 177.73 236.21 177.73C236.21 177.73 230.57 189.56 230.57 191.56C230.57 193.56 233.12 194.66 236.39 193.93C239.66 193.2 250.83 174 250.83 174C250.83 174 254.14 177.84 256.23 176.52C258.63 175.01 257.87 171.97 256.05 171.97C254.23 171.97 261.14 164.51 258.78 159.6C256.42 154.69 245.86 147.37 243.67 149Z" fill="white" stroke="#7E7E7E" stroke-linecap="round" stroke-linejoin="round"/>
<path d="M241.67 143.19C241.67 143.19 231.48 143.19 230.93 148.1C230.38 153.01 235.67 155.2 241.49 154.29C247.31 153.38 252.59 153.74 253.32 154.65C254.05 155.56 246.22 157.38 248.04 158.65C249.098 159.41 250.378 159.797 251.68 159.75C251.68 159.75 249.13 160.47 249.31 162.29C249.49 164.11 251.08 172.15 252.31 172.15C253.54 172.15 256.01 171.99 256.01 171.99C258.314 170.831 260.406 169.293 262.2 167.44C264.93 164.53 265.65 158.34 262.2 154.71C258.75 151.08 256.01 147.55 253.28 144.64C250.55 141.73 248 138.64 242.54 137.91C237.08 137.18 234.21 139.36 241.67 143.19Z" fill="#7E7E7E" stroke="#7E7E7E" stroke-linecap="round" stroke-linejoin="round"/>
<path d="M262.92 162C263.108 163.066 263.145 164.154 263.03 165.23" stroke="white" stroke-linecap="round" stroke-linejoin="round"/>
<path d="M244.219 148.93C244.219 148.93 233.049 150.02 237.219 152.15C241.389 154.28 247.899 150.29 256.029 153.51C257.401 154.005 258.653 154.783 259.706 155.792C260.758 156.802 261.587 158.02 262.139 159.37" stroke="white" stroke-linecap="round" stroke-linejoin="round"/>
<path d="M251 157.41C251 157.41 258.63 161.14 259.64 166.56" stroke="white" stroke-linecap="round" stroke-linejoin="round"/>
<path d="M236.209 177.76C236.209 177.76 244.949 177.22 247.309 175.22" stroke="#7E7E7E" stroke-linecap="round" stroke-linejoin="round"/>
<path d="M233.479 170.48C233.479 170.48 239.849 172.3 241.669 168.48" stroke="#7E7E7E" stroke-linecap="round" stroke-linejoin="round"/>
<path d="M240.58 167.75L243.31 168.85" stroke="#7E7E7E" stroke-linecap="round" stroke-linejoin="round"/>
<path d="M235.48 162.11C235.48 162.11 229.84 162.84 229.84 163.75C229.84 164.66 233.48 167.21 233.48 167.21" fill="white"/>
<path d="M235.48 162.11C235.48 162.11 229.84 162.84 229.84 163.75C229.84 164.66 233.48 167.21 233.48 167.21" stroke="#7E7E7E" stroke-linecap="round" stroke-linejoin="round"/>
<path d="M236.198 160.36C235.938 161.15 235.408 161.68 235.008 161.55C234.608 161.42 234.508 160.68 234.778 159.89C235.048 159.1 235.568 158.57 235.968 158.7C236.368 158.83 236.468 159.58 236.198 160.36Z" fill="#7E7E7E"/>
<path d="M240.999 162.79C240.729 163.58 240.199 164.11 239.809 163.98C239.419 163.85 239.309 163.1 239.569 162.32C239.829 161.54 240.369 161 240.759 161.13C241.149 161.26 241.249 162 240.999 162.79Z" fill="#7E7E7E"/>
<path d="M241.25 157.62C241.25 157.62 244.01 157.87 243.75 161.62L241.25 157.62Z" fill="#7E7E7E" stroke="#7E7E7E" stroke-linecap="round" stroke-linejoin="round"/>
<path d="M238.748 155.87C238.748 155.87 237.238 153.87 235.238 156.62L238.748 155.87Z" fill="#7E7E7E" stroke="#7E7E7E" stroke-linecap="round" stroke-linejoin="round"/>
<path d="M188.529 106.07L162.189 139.22L135.859 106.07H146.159V56.16H178.229V106.07H188.529Z" fill="#7E7E7E" stroke="#7E7E7E" stroke-linecap="round" stroke-linejoin="round"/>
<path d="M188.529 103.92L162.189 137.07L135.859 103.92H146.159V54.0101H178.229V103.92H188.529Z" fill="white" stroke="#7E7E7E" stroke-linecap="round" stroke-linejoin="round"/>
<path d="M213.559 131.44H106.449V238.55H213.559V131.44Z" fill="white" stroke="#7E7E7E" stroke-linecap="round" stroke-linejoin="round"/>
<path d="M208.58 136.42H111.43V233.57H208.58V136.42Z" fill="#7E7E7E" stroke="#7E7E7E" stroke-linecap="round" stroke-linejoin="round"/>
<path d="M186.05 169.13L163.39 192.81L145.75 187.87C144.88 187.628 143.968 187.585 143.08 187.744C142.191 187.903 141.351 188.261 140.62 188.79L111.43 210V233.61H208.58V183.61L194.68 169.12C194.119 168.541 193.449 168.082 192.707 167.768C191.965 167.454 191.168 167.293 190.363 167.294C189.557 167.295 188.76 167.458 188.019 167.773C187.278 168.089 186.609 168.55 186.05 169.13Z" fill="white" stroke="#7E7E7E" stroke-linecap="round" stroke-linejoin="round"/>
<path d="M158.79 167.211C161.362 160.947 158.369 153.785 152.105 151.213C145.841 148.642 138.679 151.635 136.107 157.899C133.536 164.162 136.529 171.325 142.793 173.896C149.056 176.468 156.219 173.475 158.79 167.211Z" fill="white" stroke="#7E7E7E" stroke-linecap="round" stroke-linejoin="round"/>
<path d="M244.089 197.35L217.319 224.87L176.519 236.11C176.519 236.11 172.879 231.88 170.259 231.85C167.639 231.82 159.199 234.85 159.199 234.85C159.199 234.85 158.129 237.47 160.199 237.49C162.328 237.34 164.439 237.006 166.509 236.49L154.939 238.49C155.079 239.371 155.526 240.174 156.202 240.756C156.878 241.338 157.738 241.662 158.629 241.67H163.839L172.749 242.8L181.179 240.25C181.179 240.25 221.119 235.9 223.229 235.39C225.339 234.88 259.229 205.79 259.229 205.79C259.229 205.79 263.059 202.42 261.599 198.51C260.139 194.6 252.669 191.83 252.669 191.83" fill="white"/>
<path d="M244.089 197.35L217.319 224.87L176.519 236.11C176.519 236.11 172.879 231.88 170.259 231.85C167.639 231.82 159.199 234.85 159.199 234.85C159.199 234.85 158.129 237.47 160.199 237.49C162.328 237.34 164.439 237.006 166.509 236.49L154.939 238.49C155.079 239.371 155.526 240.174 156.202 240.756C156.878 241.338 157.738 241.662 158.629 241.67H163.839L172.749 242.8L181.179 240.25C181.179 240.25 221.119 235.9 223.229 235.39C225.339 234.88 259.229 205.79 259.229 205.79C259.229 205.79 263.059 202.42 261.599 198.51C260.139 194.6 252.669 191.83 252.669 191.83" stroke="#7E7E7E" stroke-linecap="round" stroke-linejoin="round"/>
<path d="M239.26 200.22L218.85 220.69L234 231.62L260.32 206.83C261.604 205.627 262.439 204.021 262.684 202.278C262.93 200.536 262.572 198.761 261.67 197.25L261.58 197.11C259.692 194.117 257.023 191.697 253.86 190.11" fill="#C5CAD0"/>
<path d="M239.26 200.22L218.85 220.69L234 231.62L260.32 206.83C261.604 205.627 262.439 204.021 262.684 202.278C262.93 200.536 262.572 198.761 261.67 197.25L261.58 197.11C259.692 194.117 257.023 191.697 253.86 190.11" stroke="#7E7E7E" stroke-linecap="round" stroke-linejoin="round"/>
<path d="M234.04 231.62L237.6 228.26L222.37 217.16L218.85 220.69L234.04 231.62Z" fill="#7E7E7E" stroke="#7E7E7E" stroke-linecap="round" stroke-linejoin="round"/>
<path d="M136.359 236.53L140.209 240.69L143.939 241.1L138.149 236.14L136.359 236.53Z" fill="white" stroke="#7E7E7E" stroke-linecap="round" stroke-linejoin="round"/>
<path d="M143.6 236.53L147.45 240.69L151.17 241.1L145.38 236.14L143.6 236.53Z" fill="white" stroke="#7E7E7E" stroke-linecap="round" stroke-linejoin="round"/>
<path d="M143.94 241.1L139.59 235.52H142.28L147.66 241.1L145.38 241.52L143.94 241.1Z" fill="white" stroke="#7E7E7E" stroke-linecap="round" stroke-linejoin="round"/>
<path d="M134.84 236.97L136.7 240.48L140.21 240.69L136.36 236.53L134.84 236.97Z" fill="white" stroke="#7E7E7E" stroke-linecap="round" stroke-linejoin="round"/>
</svg>
