<svg width="127" height="128" viewBox="0 0 127 128" fill="none" xmlns="http://www.w3.org/2000/svg">
<path d="M112.787 14.4325C113.419 13.0221 115.12 12.3792 116.53 13.0221C117.941 13.6651 118.563 15.3451 117.92 16.7554C117.277 18.1762 115.618 18.7984 114.207 18.1555C112.787 17.5228 112.144 15.8428 112.787 14.4325Z" fill="#E1E1E1" fill-opacity="0.4"/>
<path d="M126.517 64.0029C126.517 98.965 98.1586 127.013 63.4967 127.013C28.9873 127.013 0.486328 99.0983 0.486328 64.0029C0.486328 52.0459 3.81518 40.8666 9.60192 31.3362L8.49222 28.5881C8.37816 28.2977 8.54413 27.9658 8.84491 27.8829L10.0685 27.5407C10.3486 27.4577 10.6493 27.634 10.7219 27.9244L11.0122 29.1169C22.7668 11.5484 42.2561 0.982178 63.4967 0.982178C84.9527 0.982178 103.991 11.796 115.141 27.8829H117.205C117.506 27.8829 117.723 28.1733 117.63 28.4637L116.956 30.6103C123.023 40.2962 126.517 51.7348 126.517 64.0029Z" fill="#E1E1E1" fill-opacity="0.4"/>
<path d="M10.2344 11.9644C10.8775 10.554 12.5677 9.92146 13.9782 10.554C15.3988 11.197 16.0108 12.877 15.3678 14.2977C14.7352 15.7081 13.0655 16.3303 11.6552 15.6978C10.2448 15.0547 9.59156 13.3851 10.2344 11.9644Z" fill="#E1E1E1" fill-opacity="0.4"/>
<path d="M15.3678 114.828C14.7352 116.249 13.0655 116.871 11.6552 116.228C10.2448 115.596 9.59156 113.916 10.2344 112.505C10.8775 111.095 12.5677 110.452 13.9782 111.095C15.3988 111.738 16.0108 113.418 15.3678 114.828Z" fill="#E1E1E1" fill-opacity="0.4"/>
<path d="M108.628 8.90509C109.032 8.00287 110.111 7.59841 111.013 8.00287C111.915 8.40733 112.309 9.48583 111.895 10.3777C111.49 11.2799 110.432 11.6843 109.53 11.2696C108.638 10.8651 108.223 9.79699 108.628 8.90509Z" fill="#E1E1E1" fill-opacity="0.4"/>
<path d="M9.35294 108.45C8.94836 109.352 7.88018 109.757 6.98847 109.342C6.08612 108.938 5.67141 107.869 6.08612 106.978C6.49071 106.075 7.56914 105.671 8.46098 106.075C9.36332 106.48 9.75728 107.558 9.35294 108.45Z" fill="#E1E1E1" fill-opacity="0.4"/>
<path d="M112.783 14.4308C112.143 15.8443 112.789 17.518 114.202 18.1581C115.616 18.7983 117.281 18.1714 117.921 16.7578C118.561 15.3444 117.943 13.6602 116.529 13.0201C115.116 12.3799 113.423 13.0174 112.783 14.4308ZM108.629 8.90139C108.222 9.80108 108.633 10.8663 109.533 11.2738C110.432 11.6812 111.492 11.2822 111.9 10.3825C112.307 9.4829 111.913 8.41096 111.014 8.00352C110.114 7.59608 109.037 8.00178 108.629 8.90139ZM10.2339 112.504C9.59374 113.917 10.2398 115.591 11.6532 116.231C13.0667 116.871 14.7318 116.244 15.372 114.831C16.0121 113.417 15.3937 111.733 13.9803 111.093C12.5669 110.453 10.8741 111.09 10.2339 112.504ZM10.2339 11.9678C9.59374 13.3813 10.2398 15.055 11.6532 15.6951C13.0667 16.3353 14.7318 15.7084 15.372 14.2948C16.0121 12.8814 15.3937 11.1972 13.9803 10.5571C12.5669 9.91693 10.8741 10.5544 10.2339 11.9678ZM6.08047 106.974C5.673 107.874 6.08421 108.939 6.98382 109.347C7.88343 109.754 8.94325 109.355 9.35072 108.455C9.75816 107.556 9.36455 106.484 8.46494 106.076C7.56533 105.669 6.48791 106.075 6.08047 106.974Z" fill="#E1E1E1" fill-opacity="0.4"/>
<path d="M103.392 105.348C103.392 111.718 85.1393 116.885 62.6286 116.885C47.1667 116.885 33.718 114.449 26.8081 110.859C26.1278 110.505 25.8631 109.67 26.198 108.981L27.2146 106.887C27.3219 106.666 27.1019 106.428 26.8731 106.518L24.0423 107.631C23.354 107.902 22.5641 107.6 22.2404 106.935C21.9872 106.416 21.8564 105.885 21.8564 105.348C21.8564 98.9782 40.1091 93.8201 62.6286 93.8201C68.6472 93.8201 74.3601 94.1909 79.5019 94.8537C80.65 95.0017 81.3114 96.2319 80.8043 97.2726C80.6965 97.4939 80.917 97.7321 81.1459 97.6418L85.3109 95.9993C85.566 95.8987 85.8489 95.8734 86.1179 95.9271C96.5717 98.0134 103.392 101.453 103.392 105.348Z" fill="white"/>
<path d="M94.504 105.357C94.504 109.476 80.2324 112.817 62.6289 112.817C55.4652 112.817 30.7451 111.449 30.7451 105.357C30.7451 101.237 45.0166 97.8965 62.6289 97.8965C66.0474 97.8965 69.3363 98.0178 72.4259 98.2599C85.2348 99.2209 94.504 102.034 94.504 105.357Z" fill="url(#paint0_linear_8991_29865)"/>
<path d="M94.504 105.357C94.504 109.476 80.2324 112.817 62.6289 112.817C56.0069 112.817 30.7451 111.521 30.7451 105.357C30.7451 101.237 45.0166 97.8965 62.6289 97.8965C70.4639 97.8965 82.2909 98.6606 89.6228 101.385C92.7124 102.535 94.504 103.894 94.504 105.357Z" fill="#DEE1E4"/>
<path d="M61.5754 97.9028C44.4522 98.0332 30.7451 101.32 30.7451 105.357C30.7451 111.45 55.42 112.756 61.5754 112.803V97.9028Z" fill="#DEE1E4"/>
<path d="M94.4433 104.898C90.9641 102.83 83.6683 101.229 74.5981 100.545C55.788 99.0708 32.9173 102.26 32.9173 107.642C32.9173 107.797 32.9347 107.953 32.9779 108.1C22.8448 102.154 47.6164 96.3156 72.4258 98.26C84.6376 99.1774 93.6384 101.774 94.4433 104.898Z" fill="#D3D5D8"/>
<path d="M98.4098 15.37L18.0214 23.2428C15.6329 23.4767 13.9299 25.6669 14.2917 28.0394L21.1677 73.1274C21.4827 75.1924 23.2719 76.709 25.3606 76.6815L62.472 76.1921L64.7672 79.5417C65.2831 80.2945 64.949 81.3318 64.0907 81.6421L49.0652 87.0738C48.2513 87.368 48.2398 88.515 49.0476 88.8256L56.4947 91.6883C56.999 91.8822 57.2344 92.462 57.008 92.9526L55.3673 96.5076C55.1299 97.0221 55.4011 97.6279 55.943 97.7935L66.3313 100.967C66.8977 101.14 67.1625 101.79 66.8786 102.309L61.7136 111.764C61.8174 111.739 63.0031 111.823 63.8619 110.706L71.7214 100.487C72.1249 99.9625 71.8705 99.1963 71.2334 99.0172L59.7701 95.7938C59.1337 95.6148 58.879 94.8499 59.2811 94.3252L61.8785 90.936C62.1108 90.6328 62.1353 90.2188 61.9404 89.8903L60.7653 87.9104C60.4341 87.3523 60.7584 86.6347 61.3962 86.5146L77.2362 83.5314C77.678 83.4482 77.998 83.0623 77.998 82.6127V76.0131L96.0892 75.7676C98.2918 75.7378 100.094 74.0058 100.212 71.8061L102.997 19.7592C103.134 17.2003 100.96 15.1202 98.4098 15.37Z" fill="#C5CAD0"/>
<path d="M38.4453 15.8841L90.465 9.64496C90.9205 9.59032 91.3215 9.94604 91.3215 10.4049V12.5203C91.3215 12.9282 91.0016 13.2644 90.5942 13.2847L38.4453 15.8841Z" fill="#DEE1E4"/>
<path d="M106.978 21.8398H108.918C109.192 21.8398 109.403 22.0818 109.366 22.3534L104.209 59.9641L106.526 22.2642C106.541 22.0258 106.739 21.8398 106.978 21.8398Z" fill="#DEE1E4"/>
<path d="M111.928 27.8784H117.203C117.508 27.8784 117.726 28.1745 117.635 28.4657L109.437 54.6465L111.477 28.2956C111.495 28.0602 111.692 27.8784 111.928 27.8784Z" fill="#DEE1E4"/>
<path d="M7.19724 51.345H14.4504C14.7168 51.345 14.9411 51.5442 14.9724 51.8088L17.8712 76.2521L6.71991 52.091C6.55913 51.7426 6.81357 51.345 7.19724 51.345Z" fill="#DEE1E4"/>
<path d="M8.84161 27.8852L10.0645 27.5413C10.3504 27.4609 10.6461 27.6331 10.7173 27.9214L14.6303 43.7834L8.49644 28.5881C8.37924 28.2978 8.54021 27.97 8.84161 27.8852Z" fill="#DEE1E4"/>
<path d="M27.2549 54.1751V41.2222C27.2549 40.872 27.5388 40.5881 27.889 40.5881H36.2032C36.5534 40.5881 36.8373 40.872 36.8373 41.2222V42.4333C36.8373 42.7835 36.5534 43.0674 36.2032 43.0674H30.2622V46.4556H35.7105C36.0607 46.4556 36.3446 46.7395 36.3446 47.0897V48.3008C36.3446 48.651 36.0607 48.9349 35.7105 48.9349H30.2622V52.3299H36.2307C36.5809 52.3299 36.8648 52.6138 36.8648 52.964V54.1751C36.8648 54.5253 36.5809 54.8092 36.2307 54.8092H27.889C27.5388 54.8092 27.2549 54.5253 27.2549 54.1751Z" fill="white"/>
<path d="M47.4254 49.2839C50.6914 47.8817 50.8588 42.7908 47.5953 41.1588C46.8343 40.7784 45.9173 40.5881 44.8439 40.5881H39.8665C39.5163 40.5881 39.2324 40.872 39.2324 41.2222V54.1729C39.2324 54.5231 39.5163 54.807 39.8665 54.807H41.6078C41.958 54.807 42.2419 54.5231 42.2419 54.1729V49.7662H44.4295C46.9907 54.3073 46.8291 54.807 47.5064 54.807H49.3786C49.8603 54.807 50.1661 54.291 49.9348 53.8685L47.4254 49.2839ZM42.2419 47.3477V43.0474C43.6368 43.1222 45.7715 42.6832 46.5626 44.0393C46.9323 44.6964 46.9407 45.7593 46.5626 46.4034C45.8096 47.6673 43.8595 47.3086 42.2419 47.3477Z" fill="white"/>
<path d="M60.2584 49.2839C62.9436 48.133 63.354 44.8473 62.1674 42.7757C61.2438 41.1791 59.5211 40.5881 57.6769 40.5881H52.6995C52.3493 40.5881 52.0654 40.872 52.0654 41.2222V54.1729C52.0654 54.5231 52.3493 54.807 52.6995 54.807H54.4341C54.7843 54.807 55.0682 54.5231 55.0682 54.1729V49.7662H57.2625C59.8237 54.3073 59.6621 54.807 60.3394 54.807H62.2116C62.6933 54.807 62.9991 54.291 62.7678 53.8684L60.2584 49.2839ZM55.0682 47.3477V43.0474C56.6616 43.1327 58.6083 42.6892 59.3956 44.0393C59.7669 44.6994 59.7722 45.7618 59.3956 46.4034C58.6441 47.6651 56.6829 47.3088 55.0682 47.3477Z" fill="white"/>
<path d="M71.3067 55.0028C68.8221 55.0028 66.711 53.8656 65.5227 51.649C64.3495 49.4606 64.3489 45.9314 65.5227 43.74C66.7013 41.5415 68.8017 40.3931 71.3067 40.3931C80.3161 40.3931 80.2623 55.0028 71.3067 55.0028ZM73.2089 43.5879C72.6681 43.2316 72.033 43.0529 71.3067 43.0529C69.3266 43.0529 67.6957 44.4458 67.6957 47.6984C67.6957 53.3855 73.0752 53.463 74.4691 50.2395C75.2392 48.4646 75.1999 44.8972 73.2089 43.5879Z" fill="white"/>
<path d="M88.3853 49.2771C91.8157 48.2953 92.4639 40.5881 85.797 40.5881H80.8196C80.4694 40.5881 80.1855 40.872 80.1855 41.2222V54.1729C80.1855 54.5231 80.4694 54.807 80.8196 54.807H82.5609C82.9111 54.807 83.195 54.5231 83.195 54.1729V49.7662H85.3825C87.9438 54.3073 87.7822 54.807 88.4595 54.807H90.3335C90.8148 54.807 91.1206 54.2918 90.8901 53.8693L88.3853 49.2771ZM83.195 47.3477V43.0474C84.1759 43.2055 86.6495 42.5544 87.5158 44.0393C87.885 44.6725 87.8957 45.779 87.5158 46.4034C86.7622 47.6682 84.8162 47.3085 83.195 47.3477Z" fill="white"/>
<defs>
<linearGradient id="paint0_linear_8991_29865" x1="62.9231" y1="109.635" x2="61.3499" y2="87.1428" gradientUnits="userSpaceOnUse">
<stop stop-color="#AAB2C5"/>
<stop offset="1" stop-color="#D6DCE8"/>
</linearGradient>
</defs>
</svg>
