<svg width="1000" height="1000" viewBox="0 0 1000 1000" fill="none" xmlns="http://www.w3.org/2000/svg">
<path opacity="0.75" d="M499.997 342.43V409.43H471.247L463.907 364.29C463.227 361.65 460.437 360.4 458.027 361.28C457.767 361.37 457.517 361.49 457.267 361.64C457.027 361.78 456.787 361.96 456.557 362.15L422.907 390.92C422.907 390.92 372.147 374.97 332.557 378.69C292.967 382.4 265.247 397.11 265.247 397.11L245.427 366.96C245.227 366.57 244.967 366.22 244.697 365.94C243.227 364.39 240.817 364.21 239.017 365.33C238.637 365.56 238.277 365.85 237.977 366.21C237.817 366.38 237.677 366.57 237.547 366.78C237.417 366.98 237.287 367.19 237.187 367.43L214.147 418.55C212.947 419.61 211.697 420.78 210.437 422.05C210.017 422.46 209.587 422.9 209.157 423.34C209.157 423.34 209.167 423.34 209.157 423.35C208.727 423.8 208.297 424.25 207.877 424.71C207.457 425.18 207.017 425.66 206.587 426.15C205.927 426.89 205.287 427.64 204.637 428.42C204.217 428.94 203.777 429.48 203.347 430.01C202.697 430.82 202.057 431.66 201.417 432.52L200.787 433.39C200.367 433.97 199.937 434.56 199.527 435.16C199.327 435.46 199.117 435.77 198.907 436.07C198.497 436.68 198.087 437.31 197.677 437.94C196.867 439.2 196.067 440.5 195.297 441.84C195.297 441.84 195.307 441.85 195.297 441.85C194.907 442.52 194.527 443.2 194.157 443.89C193.967 444.24 193.777 444.58 193.597 444.94C193.037 445.99 192.507 447.04 191.987 448.14C190.777 450.68 189.657 453.33 188.657 456.09C188.367 456.88 188.097 457.67 187.837 458.46C186.917 461.28 186.127 464.2 185.487 467.21C185.307 468.07 185.137 468.94 184.987 469.8C181.297 490.7 185.447 515.99 206.687 543.62C207.747 545.01 208.877 546.35 210.077 547.66C210.667 548.31 211.277 548.95 211.917 549.59C212.537 550.22 213.187 550.85 213.847 551.47C216.487 553.94 219.357 556.26 222.457 558.44C224.057 559.58 225.727 560.67 227.457 561.73C229.187 562.79 230.967 563.8 232.787 564.78C236.447 566.74 240.317 568.56 244.367 570.2C246.977 571.27 249.647 572.27 252.397 573.22C253.087 573.46 253.777 573.7 254.477 573.92C254.937 574.08 255.397 574.22 255.867 574.38C256.387 574.55 256.917 574.7 257.447 574.87C258.617 575.24 259.797 575.58 260.997 575.93C261.657 576.12 262.327 576.31 262.997 576.49C263.707 576.69 264.437 576.88 265.157 577.07C265.167 577.07 265.177 577.08 265.187 577.08C265.927 577.27 266.647 577.46 267.387 577.64C268.127 577.83 268.877 578.01 269.627 578.19C270.377 578.37 271.117 578.54 271.867 578.7C272.617 578.87 273.367 579.03 274.137 579.19C275.837 579.56 277.567 579.89 279.307 580.21C280.377 580.42 281.457 580.61 282.537 580.79C283.087 580.89 283.617 580.98 284.167 581.07C285.047 581.23 285.927 581.36 286.807 581.48C287.557 581.6 288.297 581.71 289.047 581.81C289.967 581.95 290.917 582.09 291.857 582.2C292.307 582.27 292.747 582.32 293.197 582.38C294.687 582.57 296.197 582.75 297.707 582.9C297.727 582.91 297.747 582.91 297.777 582.91C299.377 583.09 301.007 583.26 302.637 583.39C303.757 583.5 304.907 583.59 306.047 583.67C306.707 583.73 307.387 583.78 308.047 583.83C309.607 583.94 311.167 584.03 312.737 584.12C312.757 584.26 312.807 584.4 312.827 584.54H169.867V311.56C169.867 310.97 169.887 310.39 169.937 309.81H278.757L304.817 332.93C310.497 337.97 319.487 333.93 319.487 326.33V309.81H347.887C357.577 309.81 365.427 301.95 365.427 292.27V285.73H387.317C396.197 285.73 404.467 290.34 409.207 297.9L429.367 330.31C434.077 337.86 442.337 342.45 451.257 342.45H500.007L499.997 342.43Z" fill="#B1BEC6"/>
<path d="M222.438 558.421C224.038 559.561 225.708 560.661 227.438 561.721C225.708 560.661 224.038 559.571 222.438 558.431C219.338 556.251 216.468 553.931 213.828 551.461C216.468 553.921 219.338 556.251 222.438 558.421Z" fill="#B1BEC6"/>
<path d="M227.178 562.151C225.348 561.031 223.708 559.951 222.148 558.851C219.008 556.631 216.088 554.271 213.488 551.841L214.168 551.111C216.798 553.561 219.678 555.891 222.718 558.031C224.318 559.171 225.998 560.271 227.688 561.311L227.168 562.161L227.178 562.151Z" fill="#B1BEC6"/>
<path d="M227.438 561.721C229.168 562.781 230.948 563.791 232.768 564.771C230.928 563.791 229.158 562.781 227.438 561.721Z" fill="#B1BEC6"/>
<path d="M232.537 565.21C230.727 564.25 228.947 563.23 227.227 562.18C227.227 562.18 227.218 562.18 227.208 562.18C227.208 562.18 227.197 562.18 227.188 562.17L227.708 561.32C227.708 561.32 227.717 561.32 227.727 561.33C227.727 561.33 227.728 561.33 227.738 561.33C229.388 562.34 231.107 563.33 233.007 564.35L232.537 565.23V565.21Z" fill="#B1BEC6"/>
<path opacity="0.75" d="M842.037 368.221V523.661C841.917 523.651 841.797 523.651 841.677 523.651H823.398C810.098 458.471 752.428 409.431 683.318 409.431H587.188V342.441H816.258C830.518 342.441 842.028 354.001 842.028 368.231L842.037 368.221Z" fill="#B1BEC6"/>
<path d="M315.138 586.531H167.848V311.551C167.848 310.911 167.868 310.291 167.918 309.651L168.058 307.801H279.498L306.128 331.421C308.558 333.571 311.498 333.411 313.438 332.541C315.388 331.661 317.468 329.571 317.468 326.321V307.801H347.868C356.438 307.801 363.408 300.831 363.408 292.261V283.721H387.298C396.918 283.721 405.738 288.621 410.888 296.831L431.048 329.241C435.418 336.251 442.968 340.431 451.248 340.431H501.998V411.431H469.538L461.948 364.721C461.718 363.931 461.198 363.511 460.798 363.301C460.158 362.971 459.408 362.921 458.718 363.171C458.568 363.221 458.428 363.291 458.298 363.371C458.128 363.471 457.978 363.591 457.828 363.721L423.378 393.171L422.318 392.841C421.818 392.681 371.468 377.051 332.758 380.691C294.068 384.311 266.478 398.741 266.198 398.891L264.588 399.741L243.658 367.891C243.558 367.691 243.418 367.501 243.258 367.341C242.468 366.511 241.128 366.391 240.068 367.041C239.838 367.181 239.648 367.341 239.508 367.511C239.378 367.661 239.308 367.751 239.238 367.851C239.128 368.021 239.068 368.121 239.028 368.221L215.788 419.771L215.458 420.061C214.238 421.131 213.028 422.281 211.848 423.461C211.448 423.851 211.078 424.231 210.698 424.621C210.668 424.661 210.628 424.701 210.598 424.741C210.178 425.171 209.788 425.591 209.388 426.021L209.188 426.241C208.818 426.651 208.448 427.061 208.068 427.481C207.418 428.201 206.788 428.941 206.158 429.701L204.878 431.281C204.258 432.061 203.628 432.871 203.008 433.711L202.378 434.571C201.968 435.131 201.558 435.711 201.158 436.291C200.968 436.581 200.738 436.911 200.518 437.221C200.138 437.781 199.738 438.391 199.348 439.011C198.538 440.261 197.788 441.481 197.108 442.671L196.628 443.851H196.438C196.258 444.171 196.078 444.501 195.908 444.831C195.718 445.171 195.538 445.501 195.378 445.831C194.798 446.921 194.288 447.941 193.778 448.991C192.578 451.491 191.488 454.111 190.528 456.761C190.258 457.511 190.008 458.241 189.758 458.981L189.718 459.091C188.808 461.871 188.038 464.751 187.428 467.611C187.258 468.451 187.088 469.301 186.938 470.151C182.698 494.181 189.868 518.491 208.258 542.401C209.208 543.651 210.278 544.931 211.538 546.321C212.098 546.941 212.698 547.561 213.308 548.181C213.928 548.811 214.558 549.421 215.198 550.031C217.708 552.381 220.528 554.661 223.578 556.821C225.098 557.901 226.698 558.951 228.468 560.031C230.098 561.031 231.808 562.011 233.698 563.021C237.328 564.961 241.158 566.761 245.088 568.351C247.628 569.391 250.288 570.391 253.018 571.331C253.708 571.571 254.378 571.801 255.058 572.021C255.348 572.121 255.598 572.201 255.848 572.281L256.478 572.491C256.758 572.581 257.068 572.671 257.378 572.771L258.028 572.971C259.188 573.331 260.348 573.671 261.538 574.011C262.178 574.201 262.838 574.381 263.498 574.551C264.148 574.731 264.778 574.901 265.408 575.061H265.648L265.898 575.191L266.108 575.241C266.688 575.391 267.258 575.541 267.848 575.681C268.518 575.851 269.168 576.011 269.808 576.161L270.078 576.231C270.818 576.411 271.558 576.571 272.288 576.741C273.018 576.911 273.768 577.071 274.518 577.221C276.008 577.541 277.578 577.851 279.648 578.241C280.718 578.451 281.778 578.641 282.838 578.811C283.408 578.911 283.928 579.001 284.458 579.091C285.338 579.251 286.198 579.381 287.048 579.491C287.828 579.621 288.548 579.731 289.278 579.821C290.218 579.971 291.138 580.101 292.058 580.211C292.548 580.281 292.978 580.341 293.408 580.391C294.888 580.581 296.378 580.751 297.878 580.911L298.258 580.951C300.038 581.151 301.438 581.281 302.758 581.391C303.898 581.501 305.018 581.591 306.138 581.671C306.818 581.731 307.488 581.781 308.138 581.831C309.678 581.941 311.208 582.031 312.748 582.121L314.358 582.211L314.668 583.811C314.708 583.981 314.738 584.111 314.758 584.231L315.118 586.541L315.138 586.531ZM171.848 582.531H280.908C280.248 582.411 279.578 582.291 278.908 582.161C276.818 581.771 275.208 581.451 273.708 581.131C272.948 580.981 272.178 580.811 271.418 580.641C270.658 580.471 269.908 580.301 269.148 580.121L268.878 580.061C268.208 579.901 267.528 579.741 266.878 579.571C266.298 579.431 265.698 579.281 265.098 579.121L264.918 579.071H264.668L264.418 578.941C263.748 578.771 263.088 578.591 262.438 578.411C261.778 578.241 261.098 578.041 260.418 577.851C259.198 577.501 258.008 577.151 256.818 576.781L256.198 576.591C255.878 576.491 255.548 576.391 255.228 576.291L254.608 576.091C254.338 576.001 254.068 575.911 253.798 575.821C253.118 575.611 252.408 575.361 251.698 575.111C248.918 574.151 246.178 573.131 243.578 572.061C239.528 570.411 235.568 568.561 231.808 566.551C229.848 565.501 228.068 564.481 226.368 563.441C224.518 562.301 222.838 561.211 221.258 560.081C218.058 557.831 215.088 555.421 212.438 552.941C211.758 552.291 211.088 551.651 210.448 551.001C209.808 550.361 209.168 549.691 208.558 549.021C207.208 547.531 206.068 546.171 205.058 544.841C185.968 520.011 178.538 494.651 182.978 469.461C183.138 468.571 183.308 467.681 183.488 466.801C184.118 463.791 184.928 460.771 185.898 457.831L185.938 457.701C186.198 456.931 186.458 456.161 186.738 455.391C187.738 452.621 188.888 449.891 190.138 447.271C190.668 446.171 191.208 445.091 191.788 444.001C191.958 443.661 192.158 443.301 192.358 442.931C192.488 442.691 192.608 442.451 192.748 442.221H192.738L193.518 440.851C194.268 439.551 195.078 438.211 195.958 436.861C196.358 436.231 196.778 435.591 197.208 434.961C197.438 434.641 197.638 434.341 197.828 434.051C198.268 433.411 198.698 432.801 199.138 432.211L199.768 431.341C200.428 430.451 201.088 429.601 201.748 428.771L203.048 427.161C203.568 426.531 204.078 425.931 204.598 425.341H204.378L207.688 421.941C208.178 421.441 208.588 421.011 209.008 420.611C210.118 419.491 211.288 418.381 212.468 417.331L235.328 366.611C235.448 366.321 235.628 366.011 235.848 365.671C236.008 365.411 236.238 365.121 236.478 364.851C236.838 364.421 237.348 363.991 237.928 363.631C240.588 361.991 244.028 362.381 246.108 364.571C246.508 364.981 246.848 365.451 247.118 365.951L265.918 394.531C272.488 391.361 298.208 379.901 332.338 376.701C368.708 373.281 414.838 386.431 422.408 388.691L455.228 360.641C455.538 360.391 455.858 360.141 456.228 359.931C456.598 359.711 456.968 359.541 457.348 359.411C459.058 358.781 460.998 358.911 462.638 359.771C464.238 360.611 465.368 362.051 465.828 363.811L465.868 363.991L472.938 407.451H497.988V344.451H451.238C441.578 344.451 432.758 339.561 427.648 331.371L407.488 298.961C403.078 291.931 395.528 287.731 387.288 287.731H367.398V292.271C367.398 303.041 358.628 311.811 347.858 311.811H321.458V326.331C321.458 330.651 319.008 334.431 315.068 336.201C311.128 337.971 306.688 337.291 303.458 334.431L277.968 311.821H171.838V582.551L171.848 582.531ZM844.038 525.911L841.678 525.651H821.768L821.438 524.051C808.118 458.791 750.028 411.431 683.318 411.431H585.188V340.441H816.258C831.568 340.441 844.028 352.901 844.028 368.231V525.921L844.038 525.911ZM825.028 521.651H840.038V368.221C840.038 355.101 829.378 344.431 816.268 344.431H589.198V407.421H683.328C716.938 407.421 749.698 419.181 775.568 440.551C800.678 461.281 818.198 490.031 825.028 521.651Z" fill="#B1BEC6"/>
<path d="M328.919 584.529H312.809C312.789 584.389 312.739 584.249 312.719 584.109C314.289 584.199 315.879 584.279 317.479 584.319C319.369 584.389 321.259 584.439 323.149 584.479C323.179 584.479 323.209 584.479 323.239 584.479C325.129 584.509 327.029 584.529 328.929 584.529H328.919Z" fill="#B1BEC6"/>
<path d="M328.919 585.03H312.379L312.309 584.61C312.309 584.55 312.289 584.49 312.269 584.44C312.249 584.36 312.229 584.27 312.219 584.19L312.129 583.58L312.749 583.62C314.649 583.73 316.109 583.79 317.489 583.83C319.379 583.9 321.269 583.95 323.159 583.99C325.139 584.03 327.029 584.04 328.929 584.04V585.04L328.919 585.03Z" fill="#B1BEC6"/>
<path opacity="0.25" d="M491.578 577.689C492.388 577.079 493.158 576.419 493.908 575.729V575.709C493.158 576.399 492.378 577.059 491.578 577.689Z" fill="#B1BEC6"/>
<path opacity="0.25" d="M683.318 409.43H587.198V324.26C587.198 312.22 582.308 301.32 574.418 293.44C566.528 285.54 555.628 280.67 543.588 280.67C519.508 280.67 499.998 300.18 499.998 324.26V409.43H471.248L472.478 416.99L473.068 420.66C473.068 420.66 501.338 465.19 488.348 509.04C488.038 510.14 487.678 511.24 487.298 512.33C487.088 512.94 486.868 513.57 486.648 514.18C486.188 515.4 485.688 516.64 485.168 517.86C483.188 522.42 480.718 526.94 477.648 531.36C476.998 532.31 476.318 533.25 475.608 534.2C474.968 535.06 474.288 535.92 473.598 536.76C472.848 537.68 472.088 538.57 471.288 539.47C470.268 540.63 469.198 541.77 468.068 542.91C463.508 547.54 457.988 551.83 451.698 555.74C451.058 556.14 450.408 556.53 449.748 556.92C446.778 558.69 443.638 560.38 440.358 562C439.038 562.64 437.678 563.29 436.298 563.91C435.378 564.34 434.438 564.75 433.498 565.16C432.568 565.56 431.618 565.96 430.658 566.35C426.818 567.93 422.838 569.41 418.728 570.8C416.668 571.5 414.568 572.17 412.458 572.8C410.628 573.36 408.778 573.89 406.918 574.39C405.268 574.86 403.588 575.31 401.908 575.73C398.878 576.5 395.798 577.22 392.678 577.89C391.328 578.18 389.958 578.47 388.588 578.74C385.568 579.34 382.518 579.89 379.438 580.41C379.238 580.44 379.048 580.47 378.848 580.51C370.738 581.83 362.458 582.84 354.088 583.51C352.018 583.69 349.948 583.84 347.878 583.96H347.808C345.748 584.09 343.688 584.18 341.628 584.26C340.638 584.3 339.638 584.34 338.638 584.37C337.218 584.42 335.788 584.45 334.368 584.47C332.548 584.51 330.738 584.53 328.918 584.53H406.408V680.63C406.408 704.8 425.998 724.38 450.158 724.38C474.318 724.38 493.908 704.8 493.908 680.63V575.73C493.158 576.42 492.388 577.08 491.578 577.69C492.378 577.06 493.158 576.4 493.908 575.71V575.73C494.318 575.35 494.718 574.96 495.098 574.56C495.488 574.16 495.868 573.76 496.238 573.33C496.568 572.94 496.898 572.54 497.228 572.14C497.258 572.1 497.298 572.05 497.338 572.01C497.668 571.59 497.988 571.15 498.308 570.71C498.618 570.27 498.918 569.83 499.208 569.37C499.228 569.35 499.238 569.31 499.258 569.28C499.558 568.81 499.848 568.33 500.118 567.86C500.388 567.39 500.648 566.91 500.878 566.43C500.908 566.37 500.928 566.33 500.958 566.29C501.198 565.8 501.438 565.29 501.658 564.79L510.978 543.37C516.198 531.38 528.038 523.66 541.078 523.66H734.748L711.078 682.48C699.828 758.06 634.938 813.99 558.548 813.99H501.768C484.418 813.99 470.348 828.05 470.348 845.42C470.348 854.09 473.868 861.95 479.548 867.63C485.238 873.32 493.088 876.85 501.768 876.85H587.488C678.358 876.85 755.758 810.8 770.048 721.07L801.498 523.66H823.398C810.098 458.47 752.438 409.43 683.318 409.43ZM474.298 584.41C474.418 584.4 474.538 584.38 474.658 584.37C474.808 584.36 474.958 584.35 475.098 584.33C474.828 584.36 474.568 584.39 474.298 584.41ZM479.108 583.64C479.228 583.61 479.348 583.58 479.458 583.55C479.588 583.52 479.708 583.49 479.838 583.46C479.598 583.52 479.348 583.59 479.108 583.64ZM489.078 579.44C489.078 579.44 489.118 579.41 489.138 579.39C489.208 579.35 489.278 579.31 489.348 579.26C489.258 579.32 489.168 579.38 489.078 579.44ZM544.028 355.85C531.748 355.85 521.798 345.92 521.798 333.65C521.798 321.38 531.748 311.42 544.028 311.42C556.308 311.42 566.238 321.38 566.238 333.65C566.238 345.92 556.288 355.85 544.028 355.85Z" fill="#B1BEC6"/>
<path d="M328.919 586.53H311.089L310.829 584.84C310.789 584.67 310.759 584.54 310.739 584.42L310.359 581.98L312.829 582.12C314.709 582.23 316.159 582.29 317.529 582.33C319.419 582.4 321.299 582.45 323.179 582.49C325.149 582.53 327.029 582.54 328.919 582.54V586.54V586.53ZM492.779 579.29L490.339 576.12C491.119 575.51 491.859 574.88 492.549 574.24L495.899 571.15V576.59L495.249 577.21C494.369 578.02 493.559 578.7 492.769 579.29H492.779Z" fill="#B1BEC6"/>
<path d="M587.488 878.85H501.768C492.848 878.85 484.458 875.37 478.138 869.04C471.818 862.71 468.348 854.34 468.348 845.42C468.348 826.99 483.338 811.99 501.768 811.99H558.548C633.358 811.99 698.088 756.19 709.098 682.19L732.428 525.66H541.078C528.798 525.66 517.708 532.92 512.808 544.17L503.488 565.59C503.248 566.12 502.998 566.66 502.748 567.17L502.628 567.38C502.408 567.83 502.148 568.31 501.838 568.85C501.568 569.32 501.278 569.8 500.988 570.26C500.958 570.32 500.908 570.4 500.848 570.48C500.548 570.95 500.248 571.4 499.928 571.85C499.578 572.34 499.238 572.8 498.898 573.24L498.758 573.41C498.428 573.82 498.088 574.22 497.748 574.62C497.398 575.03 497.038 575.41 496.678 575.78C496.658 576.36 496.378 576.93 495.888 577.3V680.63C495.888 705.86 475.368 726.38 450.138 726.38C424.908 726.38 404.388 705.86 404.388 680.63V586.53H328.898V582.53C330.708 582.53 332.498 582.51 334.308 582.47C335.728 582.45 337.148 582.42 338.548 582.37C339.548 582.34 340.548 582.3 341.528 582.26C343.358 582.19 345.518 582.1 347.668 581.96H347.798C349.778 581.84 351.848 581.69 353.908 581.51C362.138 580.85 370.408 579.85 378.518 578.53C378.678 578.5 378.908 578.46 379.138 578.43C382.428 577.87 385.398 577.33 388.188 576.78C389.548 576.51 390.908 576.22 392.248 575.94C395.348 575.27 398.428 574.55 401.408 573.8C403.048 573.39 404.718 572.94 406.358 572.47C408.258 571.96 410.098 571.43 411.858 570.89C413.948 570.27 416.028 569.6 418.068 568.91C422.178 567.52 426.158 566.04 429.878 564.5C430.838 564.11 431.768 563.72 432.688 563.32C433.628 562.91 434.538 562.51 435.428 562.09C436.818 561.47 438.158 560.82 439.458 560.19C442.748 558.57 445.858 556.88 448.698 555.19C449.348 554.8 449.988 554.42 450.608 554.03C456.868 550.14 462.248 545.92 466.608 541.49C467.748 540.34 468.778 539.24 469.748 538.13C470.548 537.23 471.288 536.37 472.008 535.48C472.738 534.6 473.388 533.76 473.958 532.99C474.708 531.98 475.368 531.07 475.958 530.21C478.828 526.08 481.288 521.65 483.298 517.04C483.818 515.83 484.298 514.61 484.738 513.45C484.948 512.88 485.158 512.26 485.368 511.66C485.798 510.43 486.118 509.43 486.388 508.48C498.968 466.01 471.618 422.15 471.348 421.71L471.128 421.36L468.868 407.41H497.968V324.24C497.968 299.1 518.418 278.65 543.558 278.65C555.748 278.65 567.198 283.39 575.808 292.01C584.428 300.62 589.178 312.06 589.178 324.24V407.41H683.298C716.908 407.41 749.668 419.17 775.548 440.54C801.078 461.62 818.758 490.99 825.338 523.24L825.828 525.64H803.188L772.008 721.36C765.018 765.23 742.558 805.27 708.768 834.11C674.978 862.95 631.898 878.83 587.478 878.83L587.488 878.85ZM501.768 815.99C485.548 815.99 472.348 829.19 472.348 845.42C472.348 853.28 475.408 860.66 480.958 866.22C486.528 871.79 493.918 874.85 501.768 874.85H587.488C677.908 874.85 753.848 810.04 768.068 720.76L799.788 521.66H820.928C806.688 457.64 749.218 411.43 683.318 411.43H585.198V324.26C585.198 313.15 580.868 302.71 573.008 294.85C565.158 286.99 554.718 282.66 543.588 282.66C520.658 282.66 501.998 301.32 501.998 324.25V411.42H473.598L474.978 419.93C477.828 424.55 502.898 466.95 490.268 509.59C489.988 510.59 489.638 511.67 489.188 512.97C488.978 513.58 488.758 514.22 488.528 514.84C488.058 516.08 487.548 517.35 487.008 518.63C484.898 523.5 482.298 528.15 479.288 532.49C478.678 533.39 477.988 534.34 477.208 535.39C476.588 536.22 475.918 537.08 475.138 538.02C474.378 538.95 473.608 539.86 472.778 540.79C471.758 541.95 470.678 543.11 469.488 544.31C464.908 548.96 459.278 553.38 452.748 557.43C452.098 557.84 451.438 558.24 450.758 558.63C447.838 560.37 444.628 562.1 441.238 563.78C439.888 564.43 438.508 565.09 437.108 565.72C436.218 566.14 435.268 566.55 434.328 566.96C433.338 567.39 432.368 567.79 431.398 568.19C427.608 569.75 423.548 571.26 419.358 572.68C417.278 573.39 415.138 574.07 413.018 574.7C411.228 575.25 409.338 575.79 407.428 576.31C405.768 576.78 404.068 577.24 402.388 577.66C399.368 578.43 396.238 579.16 393.088 579.83C391.728 580.12 390.348 580.41 388.968 580.69C386.138 581.25 383.128 581.8 379.758 582.37C379.548 582.4 379.388 582.43 379.228 582.46C379.108 582.48 378.988 582.5 378.858 582.52H408.388V680.62C408.388 703.64 427.118 722.37 450.138 722.37C473.158 722.37 491.888 703.64 491.888 680.62V579.71C473.138 589.38 442.518 585.4 441.138 585.22C440.048 585.07 439.278 584.07 439.428 582.97C439.578 581.88 440.588 581.11 441.678 581.25C442.008 581.29 473.158 585.34 490.688 575.82C491.338 575.3 491.958 574.76 492.538 574.23L493.128 573.69C493.298 573.52 493.468 573.35 493.638 573.18C494.018 572.79 494.368 572.42 494.708 572.02C495.008 571.66 495.328 571.28 495.648 570.9C495.698 570.84 495.748 570.78 495.798 570.72C496.098 570.34 496.388 569.94 496.678 569.54C496.938 569.17 497.208 568.77 497.478 568.36C497.508 568.31 497.538 568.26 497.568 568.21C497.848 567.77 498.118 567.32 498.378 566.88C498.618 566.46 498.858 566.02 499.068 565.59C499.118 565.49 499.158 565.41 499.198 565.34C499.408 564.9 499.618 564.45 499.818 564L509.138 542.59C514.668 529.89 527.208 521.68 541.068 521.68H737.058L713.048 682.8C707.538 719.83 688.888 753.68 660.538 778.12C632.188 802.56 595.968 816.02 558.538 816.02H501.758L501.768 815.99ZM544.028 357.85C530.668 357.85 519.798 346.99 519.798 333.65C519.798 320.31 530.668 309.42 544.028 309.42C557.388 309.42 568.238 320.29 568.238 333.65C568.238 347.01 557.378 357.85 544.028 357.85ZM544.028 313.42C532.868 313.42 523.798 322.5 523.798 333.65C523.798 344.8 532.878 353.85 544.028 353.85C555.178 353.85 564.238 344.79 564.238 333.65C564.238 322.51 555.168 313.42 544.028 313.42Z" fill="#B1BEC6"/>
<path d="M328.919 586.531H311.089L310.829 584.841C310.789 584.671 310.759 584.54 310.739 584.42L310.359 581.98L312.829 582.12C314.709 582.23 316.159 582.291 317.529 582.331C319.419 582.401 321.299 582.45 323.179 582.49C325.149 582.53 327.029 582.54 328.919 582.54V586.54V586.531Z" fill="#B1BEC6"/>
<path opacity="0.25" d="M473.069 420.662L472.469 416.982L471.239 409.432L463.899 364.292C463.219 361.652 460.429 360.402 458.019 361.282C457.759 361.382 457.509 361.492 457.259 361.642C457.019 361.782 456.779 361.962 456.549 362.152L422.899 390.922C422.899 390.922 372.139 374.972 332.549 378.692C292.959 382.402 265.239 397.112 265.239 397.112L245.419 366.962C245.219 366.572 244.959 366.222 244.689 365.942C243.209 364.402 240.799 364.222 239.009 365.332C238.629 365.562 238.269 365.852 237.969 366.212C237.809 366.382 237.669 366.572 237.539 366.782C237.409 366.982 237.279 367.192 237.179 367.432L214.139 418.552C212.939 419.612 211.689 420.782 210.429 422.052C210.009 422.472 209.579 422.902 209.149 423.342C209.149 423.342 209.159 423.342 209.149 423.352C208.729 423.782 208.299 424.242 207.869 424.712C207.449 425.182 207.009 425.662 206.579 426.152C205.929 426.892 205.289 427.642 204.629 428.422C204.209 428.942 203.769 429.482 203.339 430.012C202.689 430.822 202.059 431.662 201.409 432.522L200.779 433.392C200.369 433.972 199.939 434.562 199.519 435.162C199.319 435.462 199.109 435.772 198.899 436.072C198.489 436.682 198.079 437.312 197.669 437.942C196.859 439.202 196.069 440.502 195.289 441.842C195.289 441.842 195.299 441.852 195.289 441.852C194.909 442.522 194.519 443.202 194.149 443.892C193.959 444.242 193.769 444.582 193.589 444.942C193.029 445.992 192.499 447.062 191.979 448.142C190.769 450.682 189.649 453.332 188.649 456.092C188.369 456.872 188.089 457.662 187.829 458.462C186.909 461.282 186.119 464.202 185.479 467.212C185.299 468.072 185.129 468.922 184.979 469.802C181.289 490.702 185.439 515.992 206.679 543.622C207.739 545.012 208.869 546.351 210.069 547.661C210.669 548.311 211.279 548.952 211.909 549.592C212.529 550.222 213.179 550.851 213.839 551.471C216.479 553.941 219.349 556.262 222.449 558.442C224.049 559.582 225.719 560.672 227.449 561.732C229.179 562.792 230.949 563.802 232.779 564.782C236.439 566.742 240.309 568.562 244.359 570.202C246.969 571.272 249.639 572.271 252.389 573.221C253.079 573.461 253.769 573.702 254.469 573.922C254.929 574.082 255.389 574.222 255.859 574.382C256.379 574.552 256.909 574.712 257.439 574.872C258.609 575.242 259.789 575.582 260.989 575.932C261.659 576.122 262.329 576.312 262.989 576.492C263.699 576.692 264.429 576.882 265.149 577.072C265.159 577.072 265.169 577.082 265.179 577.082C265.919 577.272 266.649 577.462 267.379 577.642C268.119 577.832 268.869 578.012 269.619 578.192C270.369 578.362 271.109 578.542 271.859 578.702C272.619 578.872 273.369 579.032 274.129 579.192C275.829 579.562 277.559 579.892 279.299 580.212C280.369 580.422 281.449 580.612 282.529 580.792C283.079 580.892 283.609 580.992 284.159 581.072C285.039 581.212 285.919 581.362 286.799 581.482C287.549 581.612 288.279 581.712 289.039 581.812C289.979 581.952 290.899 582.082 291.849 582.202C292.299 582.272 292.739 582.322 293.189 582.382C294.679 582.572 296.189 582.752 297.699 582.902C297.719 582.912 297.739 582.911 297.769 582.911C299.379 583.091 300.999 583.242 302.629 583.392C303.769 583.492 304.889 583.592 306.039 583.672C306.709 583.742 307.379 583.782 308.039 583.832C309.599 583.942 311.159 584.032 312.729 584.122C314.309 584.202 315.889 584.282 317.489 584.332C319.379 584.402 321.269 584.452 323.159 584.492C323.189 584.492 323.219 584.492 323.249 584.492C324.209 584.512 325.179 584.532 326.139 584.542H328.929C330.009 584.542 331.089 584.542 332.169 584.542C332.899 584.542 333.639 584.502 334.379 584.492C335.799 584.472 337.229 584.432 338.649 584.392C339.649 584.362 340.649 584.322 341.639 584.282C343.699 584.202 345.759 584.102 347.819 583.982H347.889C349.959 583.862 352.029 583.712 354.099 583.532C362.459 582.862 370.749 581.852 378.859 580.522C379.059 580.492 379.249 580.452 379.449 580.422C382.529 579.912 385.589 579.352 388.599 578.752C389.969 578.482 391.339 578.192 392.689 577.902C395.809 577.222 398.889 576.512 401.919 575.742C403.599 575.322 405.279 574.872 406.929 574.402C408.799 573.892 410.649 573.352 412.459 572.812C414.589 572.162 416.669 571.502 418.729 570.812C422.839 569.432 426.829 567.952 430.669 566.372C431.629 565.982 432.569 565.582 433.509 565.182C434.449 564.772 435.379 564.362 436.309 563.932C437.689 563.312 439.039 562.662 440.369 562.012C443.639 560.402 446.779 558.702 449.759 556.932C450.419 556.542 451.059 556.152 451.709 555.752C457.999 551.842 463.509 547.552 468.079 542.922C469.199 541.782 470.269 540.642 471.299 539.482C472.099 538.582 472.869 537.682 473.609 536.772C474.299 535.922 474.979 535.072 475.629 534.212C476.339 533.262 477.019 532.322 477.669 531.372C480.739 526.952 483.219 522.432 485.189 517.872C485.709 516.642 486.209 515.422 486.669 514.182C486.889 513.572 487.119 512.942 487.329 512.332C487.709 511.242 488.059 510.142 488.379 509.042C501.359 465.192 473.099 420.652 473.099 420.652L473.069 420.662ZM230.089 404.632C232.409 396.702 237.609 380.642 240.809 383.472C245.039 387.182 252.799 398.552 251.369 401.042C250.329 402.812 239.379 406.032 233.139 407.722C231.219 408.252 229.519 406.532 230.089 404.622V404.632ZM457.559 405.792C451.889 403.022 441.949 397.922 441.389 396.002C440.599 393.302 450.999 383.572 456.059 380.692C459.899 378.512 460.999 395.142 461.309 403.302C461.399 405.272 459.319 406.642 457.569 405.792H457.559Z" fill="#B1BEC6"/>
<path d="M331.07 586.531C330.71 586.531 330.35 586.531 329.99 586.531H326.12C325.22 586.521 324.35 586.501 323.48 586.481H323.07C321.19 586.431 319.28 586.391 317.39 586.311C315.86 586.261 314.33 586.181 312.81 586.111H312.62C310.98 586.011 309.43 585.921 307.89 585.811C307.15 585.761 306.49 585.721 305.83 585.651C304.78 585.581 303.68 585.481 302.57 585.381H302.45C300.85 585.231 299.25 585.071 297.66 584.901H297.3L297.18 584.851C295.76 584.701 294.35 584.531 292.94 584.351C292.48 584.291 292.02 584.231 291.56 584.161C290.64 584.041 289.7 583.921 288.75 583.771C288 583.671 287.24 583.571 286.46 583.431C285.68 583.321 284.82 583.181 283.95 583.041L283.84 583.021C283.33 582.951 282.8 582.851 282.25 582.751C281.11 582.561 280.01 582.371 278.92 582.151C276.83 581.761 275.22 581.441 273.72 581.121C272.97 580.971 272.2 580.801 271.44 580.631L268.9 580.051C268.23 579.891 267.55 579.731 266.9 579.561C266.26 579.411 265.6 579.241 264.94 579.071H264.69L264.44 578.941C263.78 578.771 263.11 578.591 262.46 578.411C261.82 578.241 261.16 578.051 260.5 577.871C259.23 577.501 258.03 577.161 256.85 576.781C256.34 576.631 255.8 576.461 255.26 576.291L254.64 576.091C254.37 576.001 254.1 575.911 253.83 575.821C253.15 575.611 252.44 575.361 251.73 575.111C248.95 574.151 246.21 573.131 243.61 572.061C239.56 570.411 235.6 568.561 231.84 566.551C229.99 565.561 228.16 564.521 226.4 563.441C224.55 562.301 222.87 561.211 221.29 560.081C218.09 557.831 215.12 555.421 212.47 552.941C211.79 552.291 211.12 551.651 210.48 551.001C209.85 550.351 209.22 549.691 208.61 549.041C207.25 547.541 206.11 546.171 205.1 544.841C186.01 520.011 178.58 494.651 183.02 469.461C183.18 468.561 183.35 467.681 183.53 466.801C184.16 463.791 184.97 460.771 185.94 457.831C186.22 457.001 186.5 456.201 186.78 455.411C187.79 452.631 188.94 449.891 190.19 447.271C190.78 446.051 191.32 444.981 191.84 444.001C192.01 443.661 192.21 443.301 192.41 442.931C192.53 442.691 192.67 442.461 192.8 442.221L192.78 442.201L193.57 440.841C193.63 440.741 193.69 440.631 193.75 440.531L194.15 439.861C194.8 438.771 195.41 437.781 196 436.861C196.4 436.231 196.82 435.591 197.25 434.961C197.48 434.641 197.68 434.341 197.87 434.051C198.21 433.561 198.53 433.121 198.84 432.691L199.82 431.341C200.49 430.441 201.14 429.601 201.8 428.771L203.1 427.161C203.64 426.531 204.15 425.921 204.65 425.341H204.43L207.74 421.941C208.18 421.491 208.61 421.061 209.04 420.631C210.17 419.491 211.34 418.381 212.52 417.331L235.38 366.611C235.5 366.321 235.68 366.011 235.9 365.671C236.06 365.411 236.29 365.121 236.53 364.851C236.89 364.421 237.4 363.991 237.98 363.631C240.63 362.001 244.06 362.391 246.15 364.561C246.56 364.981 246.9 365.451 247.17 365.951L265.97 394.531C272.54 391.361 298.26 379.901 332.39 376.701C368.76 373.281 414.89 386.431 422.46 388.691L455.28 360.641C455.59 360.391 455.91 360.141 456.28 359.931C456.67 359.701 457.04 359.541 457.32 359.431C459.11 358.781 461.04 358.901 462.68 359.761C464.28 360.601 465.41 362.041 465.87 363.801L465.91 363.981L475.01 419.941C477.85 424.551 502.93 466.961 490.3 509.621C490 510.661 489.65 511.771 489.22 512.991C489.01 513.611 488.78 514.241 488.55 514.871C488.12 516.031 487.64 517.231 487.03 518.661C484.93 523.511 482.34 528.171 479.32 532.511C478.68 533.451 477.98 534.431 477.24 535.411C476.58 536.291 475.88 537.171 475.18 538.031C474.44 538.941 473.64 539.871 472.82 540.801C471.75 542.011 470.64 543.201 469.53 544.321C464.94 548.981 459.3 553.391 452.79 557.441C452.13 557.851 451.48 558.241 450.81 558.641C447.86 560.401 444.66 562.131 441.29 563.791C439.92 564.451 438.56 565.101 437.16 565.731C436.24 566.151 435.29 566.571 434.35 566.981C433.39 567.391 432.43 567.801 431.46 568.191C427.65 569.761 423.59 571.271 419.4 572.681C417.22 573.411 415.15 574.071 413.07 574.701C411.16 575.281 409.28 575.821 407.48 576.311C405.93 576.751 404.22 577.211 402.43 577.661C399.6 578.381 396.56 579.091 393.14 579.831C391.77 580.121 390.39 580.421 389.01 580.691C386.01 581.291 382.91 581.861 379.8 582.371L379.21 582.471C370.98 583.811 362.59 584.831 354.29 585.501C352.34 585.671 350.29 585.821 348.03 585.951H347.91C345.89 586.071 343.82 586.171 341.74 586.261C340.74 586.301 339.73 586.341 338.73 586.371C337.3 586.411 335.87 586.451 334.43 586.471C334.11 586.471 333.8 586.481 333.48 586.491C333.06 586.501 332.64 586.511 332.22 586.521C331.85 586.521 331.48 586.521 331.11 586.521L331.07 586.531ZM328.92 582.531H330C330.71 582.531 331.43 582.531 332.15 582.531C332.54 582.531 332.94 582.511 333.33 582.501C333.66 582.501 334 582.481 334.33 582.471C335.75 582.451 337.16 582.411 338.57 582.371C339.56 582.341 340.55 582.301 341.54 582.261C343.59 582.181 345.64 582.081 347.68 581.961H347.8C349.97 581.831 351.98 581.681 353.91 581.521C362.12 580.861 370.4 579.861 378.52 578.531L379.11 578.431C382.17 577.921 385.23 577.361 388.2 576.771C389.57 576.501 390.92 576.221 392.26 575.931C395.63 575.201 398.63 574.491 401.42 573.791C403.18 573.351 404.84 572.901 406.38 572.471C408.16 571.981 410.01 571.451 411.88 570.891C413.91 570.271 415.94 569.621 418.09 568.901C422.19 567.521 426.16 566.041 429.9 564.501C430.85 564.111 431.79 563.721 432.71 563.321C433.62 562.921 434.54 562.511 435.46 562.091C436.83 561.471 438.17 560.831 439.49 560.191C442.75 558.581 445.87 556.901 448.73 555.191C449.38 554.811 450.01 554.421 450.65 554.031C456.89 550.151 462.28 545.931 466.65 541.501C467.71 540.431 468.77 539.301 469.79 538.141C470.58 537.251 471.34 536.361 472.04 535.501C472.71 534.671 473.38 533.841 474.01 533.001C474.71 532.071 475.37 531.141 475.99 530.241C478.87 526.101 481.33 521.671 483.32 517.071C483.9 515.711 484.36 514.571 484.76 513.491C484.97 512.901 485.19 512.291 485.4 511.681C485.8 510.521 486.13 509.481 486.41 508.501C498.98 466.031 471.64 422.171 471.37 421.731L471.15 421.391L469.26 409.761L461.94 364.731C461.71 363.941 461.19 363.521 460.79 363.311C460.15 362.981 459.4 362.931 458.71 363.181C458.54 363.251 458.4 363.311 458.29 363.381C458.12 363.481 457.97 363.601 457.82 363.731L423.37 393.181L422.31 392.851C421.81 392.691 371.46 377.061 332.75 380.701C294.06 384.321 266.47 398.751 266.19 398.901L264.58 399.751L243.65 367.901C243.55 367.701 243.41 367.511 243.25 367.351C242.47 366.541 241.1 366.421 240.06 367.061C239.84 367.201 239.65 367.361 239.5 367.531C239.37 367.681 239.3 367.771 239.23 367.871C239.12 368.041 239.06 368.141 239.02 368.241L215.78 419.791L215.45 420.081C214.23 421.151 213.02 422.301 211.84 423.481C211.54 423.781 211.24 424.081 210.93 424.391L210.58 424.761C210.18 425.171 209.79 425.591 209.39 426.021L209.17 426.261C208.8 426.671 208.43 427.081 208.05 427.501C207.42 428.221 206.78 428.971 206.13 429.741L204.86 431.301C204.24 432.081 203.61 432.901 202.98 433.751L201.13 436.341C200.95 436.611 200.73 436.941 200.51 437.251C200.13 437.811 199.73 438.421 199.34 439.041C198.63 440.151 197.89 441.341 197.09 442.711L196.62 443.881H196.43C196.25 444.201 196.07 444.531 195.89 444.861C195.7 445.201 195.52 445.531 195.36 445.861C194.84 446.841 194.32 447.861 193.76 449.031C192.57 451.531 191.47 454.141 190.51 456.791C190.24 457.551 189.97 458.321 189.7 459.111C188.78 461.901 188.01 464.781 187.41 467.641C187.24 468.471 187.07 469.311 186.92 470.171C182.68 494.211 189.85 518.521 208.24 542.421C209.19 543.671 210.26 544.951 211.52 546.341C212.09 546.951 212.69 547.591 213.3 548.211C213.91 548.831 214.54 549.441 215.18 550.041C217.69 552.391 220.51 554.671 223.56 556.831C225.08 557.911 226.68 558.961 228.45 560.041C230.14 561.081 231.9 562.081 233.68 563.031C237.31 564.971 241.15 566.771 245.07 568.371C247.61 569.411 250.27 570.411 253 571.351C253.69 571.591 254.36 571.821 255.04 572.041C255.33 572.141 255.58 572.221 255.83 572.301L256.46 572.511C256.94 572.661 257.45 572.831 257.97 572.981C259.16 573.351 260.33 573.691 261.51 574.041C262.19 574.231 262.83 574.421 263.48 574.591C264.12 574.771 264.75 574.941 265.38 575.101H265.62L265.87 575.231C266.53 575.401 267.18 575.571 267.83 575.731C268.49 575.901 269.14 576.051 269.79 576.211L272.27 576.781C273.01 576.941 273.76 577.111 274.51 577.261C275.99 577.581 277.57 577.891 279.64 578.281C280.71 578.491 281.77 578.681 282.83 578.851L282.94 578.871C283.43 578.961 283.92 579.051 284.41 579.121L284.56 579.141C285.39 579.281 286.22 579.411 287.04 579.531C287.83 579.671 288.54 579.771 289.27 579.861C290.23 580.011 291.14 580.131 292.07 580.251C292.54 580.321 292.97 580.371 293.4 580.431C294.88 580.621 296.37 580.791 297.87 580.951L298.25 580.991C299.75 581.151 301.25 581.301 302.77 581.431H302.89C303.97 581.541 305.04 581.631 306.13 581.711C306.81 581.781 307.43 581.821 308.05 581.861C309.67 581.981 311.2 582.061 312.74 582.151H312.98C314.49 582.231 316 582.311 317.52 582.361C319.4 582.431 321.28 582.481 323.16 582.521H323.54C324.4 582.551 325.26 582.561 326.12 582.571H328.89L328.92 582.531Z" fill="#B1BEC6"/>
<path d="M232.42 409.831C231.24 409.831 230.11 409.371 229.25 408.491C228.1 407.321 227.69 405.661 228.17 404.061C234.43 382.631 237.84 381.641 239.12 381.271C240.18 380.961 241.28 381.221 242.14 381.971C245.34 384.781 255.65 397.621 253.11 402.041C252.58 402.951 251.48 404.821 233.67 409.651C233.26 409.771 232.84 409.821 232.43 409.821L232.42 409.831ZM239.94 385.381C238.7 386.671 235.88 391.931 232.01 405.191C231.95 405.401 231.99 405.561 232.11 405.691C232.2 405.781 232.36 405.871 232.61 405.801C243.83 402.751 248.4 400.831 249.55 400.051C249.36 397.681 244.05 389.241 239.94 385.381ZM458.67 408.051C458 408.051 457.32 407.901 456.69 407.591C440.36 399.601 439.79 397.621 439.48 396.561C438.09 391.821 451.27 381.121 455.08 378.951C456.12 378.361 457.28 378.341 458.27 378.901C459.54 379.611 462.5 381.261 463.31 403.221C463.38 404.841 462.6 406.361 461.22 407.271C460.44 407.781 459.56 408.041 458.68 408.041L458.67 408.051ZM458.43 403.991C458.68 404.111 458.9 404.011 459.01 403.931C459.13 403.851 459.32 403.681 459.3 403.381C458.8 389.961 457.4 384.291 456.52 382.731C451.55 385.781 444.25 393.091 443.41 395.441C444.41 396.431 448.43 399.091 458.43 403.991Z" fill="#B1BEC6"/>
<path d="M291.81 492.431C291.65 492.431 291.49 492.411 291.32 492.371C290.99 492.291 258.4 484.311 226.03 490.121C224.93 490.311 223.9 489.591 223.71 488.501C223.52 487.411 224.24 486.371 225.33 486.181C258.58 480.221 291.97 488.411 292.3 488.491C293.37 488.761 294.02 489.842 293.76 490.922C293.53 491.832 292.72 492.441 291.82 492.441L291.81 492.431ZM245.12 531.481C244.58 531.481 244.05 531.272 243.66 530.842C242.91 530.032 242.95 528.772 243.76 528.012C267.96 505.432 290.51 497.712 291.46 497.392C292.51 497.042 293.64 497.601 293.99 498.651C294.34 499.701 293.78 500.831 292.73 501.181C292.51 501.261 270.01 508.991 246.49 530.931C246.1 531.291 245.61 531.471 245.13 531.471L245.12 531.481ZM384.27 487.512C383.65 487.512 383.05 487.231 382.66 486.691C382.01 485.801 382.2 484.551 383.08 483.901C384.02 483.211 406.42 467.172 442.17 481.202C443.2 481.602 443.7 482.762 443.3 483.792C442.9 484.822 441.74 485.332 440.71 484.922C407.12 471.732 385.67 486.961 385.46 487.121C385.1 487.381 384.69 487.512 384.28 487.512H384.27ZM448.7 531.311C448.17 531.311 447.65 531.101 447.25 530.691C427.15 509.621 386.43 497.632 386.02 497.512C384.96 497.202 384.35 496.091 384.66 495.031C384.97 493.971 386.08 493.362 387.14 493.672C388.85 494.172 429.3 506.081 450.15 527.931C450.91 528.731 450.88 530.002 450.08 530.762C449.69 531.132 449.2 531.311 448.7 531.311Z" fill="#B1BEC6"/>
<path d="M319.652 524.701C315.902 524.701 312.862 523.631 310.572 521.501C306.502 517.701 306.382 511.941 306.892 509.421C307.112 508.341 308.162 507.631 309.252 507.861C310.332 508.081 311.032 509.131 310.812 510.221C310.412 512.191 310.742 516.191 313.302 518.581C315.822 520.931 320.212 521.331 325.992 519.731C329.772 518.681 332.382 516.711 333.962 513.701C337.692 506.611 334.202 496.301 334.172 496.201C333.812 495.161 334.362 494.021 335.412 493.661C336.452 493.301 337.592 493.851 337.952 494.891C338.122 495.381 342.052 506.911 337.522 515.551C335.432 519.541 331.912 522.241 327.072 523.591C324.362 524.341 321.882 524.721 319.662 524.721L319.652 524.701Z" fill="#B1BEC6"/>
<path d="M352.342 522.532C351.982 522.532 351.622 522.532 351.252 522.512C346.322 522.372 342.412 520.602 339.642 517.272C333.502 509.892 335.352 497.482 335.432 496.952C335.602 495.862 336.632 495.112 337.712 495.282C338.802 495.452 339.552 496.472 339.382 497.562C339.362 497.672 337.742 508.742 342.722 514.722C344.762 517.162 347.582 518.402 351.372 518.512C357.442 518.692 361.592 517.242 363.702 514.222C365.782 511.232 365.402 507.242 364.672 505.422C364.262 504.392 364.762 503.232 365.782 502.822C366.802 502.412 367.972 502.912 368.382 503.932C369.312 506.252 370.212 511.872 366.972 516.512C364.182 520.512 359.262 522.532 352.322 522.532H352.342Z" fill="#B1BEC6"/>
<path d="M328.401 494.552C328.401 494.552 311.871 485.102 317.671 480.512C323.461 475.922 349.131 471.972 350.901 478.832C352.671 485.692 340.811 502.352 328.401 494.552Z" fill="#B1BEC6"/>
<g opacity="0.75">
<path d="M291.839 458.142C299.587 458.142 305.869 451.261 305.869 442.772C305.869 434.284 299.587 427.402 291.839 427.402C284.09 427.402 277.809 434.284 277.809 442.772C277.809 451.261 284.09 458.142 291.839 458.142Z" fill="#B1BEC6"/>
<path d="M373.909 458.142C381.657 458.142 387.939 451.261 387.939 442.772C387.939 434.284 381.657 427.402 373.909 427.402C366.16 427.402 359.879 434.284 359.879 442.772C359.879 451.261 366.16 458.142 373.909 458.142Z" fill="#B1BEC6"/>
</g>
<path opacity="0.5" d="M842.041 523.671C841.921 523.661 841.811 523.661 841.681 523.661H801.501L770.051 721.071C755.751 810.811 678.351 876.861 587.481 876.861H501.761C493.081 876.861 485.231 873.331 479.541 867.641C473.861 861.961 470.341 854.101 470.341 845.421C470.341 828.061 484.411 813.991 501.761 813.991H558.541C634.921 813.991 699.811 758.061 711.061 682.481L734.741 523.651H541.071C528.031 523.651 516.191 531.381 510.971 543.361L501.651 564.791C501.431 565.291 501.191 565.791 500.951 566.281C500.931 566.321 500.911 566.371 500.871 566.421C500.641 566.901 500.381 567.381 500.111 567.851C499.841 568.331 499.551 568.811 499.251 569.281C499.231 569.311 499.221 569.351 499.191 569.371C498.901 569.831 498.601 570.271 498.291 570.711C497.981 571.161 497.661 571.591 497.321 572.011C497.291 572.051 497.241 572.101 497.211 572.141C496.891 572.541 496.551 572.941 496.221 573.331C495.851 573.751 495.471 574.151 495.081 574.551C494.691 574.951 494.301 575.331 493.891 575.711V680.621C493.891 704.801 474.301 724.371 450.151 724.371C426.001 724.371 406.401 704.791 406.401 680.621V584.511H332.151C331.071 584.511 329.991 584.511 328.911 584.511C327.981 584.511 327.051 584.511 326.121 584.511H158.331C138.171 584.511 122.771 602.511 125.861 622.441L168.721 897.771C171.201 913.781 184.991 925.601 201.171 925.601H788.111C804.281 925.601 818.041 913.851 820.581 897.891L874.101 561.651C877.261 541.821 862.071 523.851 842.031 523.641L842.041 523.671ZM180.581 676.951C180.581 656.691 197.011 640.271 217.261 640.271C237.511 640.271 253.931 656.701 253.931 676.951C253.931 697.201 237.521 713.631 217.261 713.631C197.001 713.631 180.581 697.201 180.581 676.951ZM307.491 813.861C306.011 815.351 303.941 816.281 301.671 816.281H201.431C196.881 816.281 193.191 812.581 193.191 808.031C193.191 805.761 194.111 803.691 195.611 802.211C197.101 800.721 199.151 799.791 201.431 799.791H301.671C306.221 799.791 309.911 803.481 309.911 808.031C309.911 810.301 308.991 812.371 307.491 813.871V813.861ZM307.491 778.601C306.011 780.091 303.941 781.021 301.671 781.021H201.431C196.881 781.021 193.191 777.321 193.191 772.771C193.191 770.501 194.111 768.431 195.611 766.951C197.101 765.461 199.151 764.531 201.431 764.531H301.671C306.221 764.531 309.911 768.221 309.911 772.771C309.911 775.041 308.991 777.111 307.491 778.611V778.601Z" fill="#B1BEC6"/>
<path d="M788.119 927.622H201.179C183.879 927.622 169.409 915.202 166.749 898.102L123.889 622.772C122.329 612.682 125.239 602.452 131.879 594.702C138.509 586.962 148.149 582.532 158.339 582.532H326.129C326.759 582.532 327.369 582.532 327.989 582.532H328.919H329.999C330.719 582.532 331.429 582.532 332.149 582.532H408.409V680.642C408.409 703.662 427.139 722.392 450.159 722.392C473.179 722.392 491.899 703.662 491.899 680.642V574.852L492.539 574.262C492.919 573.912 493.289 573.552 493.649 573.182C494.009 572.812 494.369 572.432 494.709 572.042C495.019 571.672 495.339 571.292 495.659 570.902L495.769 570.772C496.069 570.392 496.369 569.982 496.659 569.572C496.959 569.152 497.239 568.732 497.509 568.312V568.292C497.509 568.292 497.559 568.232 497.579 568.202C497.849 567.782 498.119 567.342 498.359 566.902C498.619 566.452 498.849 566.012 499.069 565.572L499.159 565.402C499.379 564.942 499.609 564.472 499.819 564.002L509.129 542.592C514.669 529.882 527.199 521.682 541.069 521.682H737.059L713.039 682.802C707.529 719.822 688.879 753.682 660.529 778.122C632.179 802.562 595.959 816.022 558.539 816.022H501.759C485.539 816.022 472.339 829.222 472.339 845.452C472.339 853.312 475.399 860.702 480.949 866.252C486.499 871.802 493.909 874.882 501.749 874.882H587.469C677.879 874.882 753.829 810.072 768.059 720.782L799.779 521.682H841.669C841.829 521.682 841.969 521.682 842.119 521.692C852.239 521.822 861.769 526.322 868.299 534.052C874.839 541.802 877.669 551.992 876.079 562.012L822.559 898.252C819.849 915.282 805.359 927.642 788.109 927.642L788.119 927.622ZM158.339 586.532C149.329 586.532 140.789 590.462 134.919 597.312C129.039 604.172 126.459 613.232 127.839 622.162L170.699 897.492C173.049 912.642 185.869 923.632 201.169 923.632H788.109C803.379 923.632 816.209 912.692 818.609 897.612L872.129 561.372C873.549 552.502 871.039 543.472 865.249 536.622C859.459 529.762 850.989 525.782 842.009 525.682H841.839C841.779 525.672 841.729 525.672 841.669 525.672H803.199L772.019 721.402C765.029 765.272 742.569 805.312 708.769 834.152C674.979 862.992 631.899 878.872 587.469 878.872H501.749C492.829 878.872 484.439 875.392 478.119 869.062C471.809 862.752 468.329 854.362 468.329 845.432C468.329 827.002 483.319 812.002 501.749 812.002H558.529C633.339 812.002 698.059 756.202 709.069 682.202L732.399 525.672H541.049C528.779 525.672 517.679 532.942 512.779 544.182L503.459 565.612C503.219 566.152 502.969 566.682 502.709 567.202C502.669 567.272 502.639 567.332 502.609 567.402C502.369 567.892 502.099 568.392 501.819 568.872C501.549 569.352 501.249 569.852 500.939 570.332C500.909 570.392 500.859 570.462 500.809 570.532C500.509 570.992 500.209 571.452 499.889 571.892C499.569 572.352 499.219 572.812 498.859 573.272L498.739 573.422C498.399 573.842 498.059 574.252 497.709 574.662C497.309 575.122 496.909 575.552 496.489 575.982C496.279 576.192 496.069 576.402 495.859 576.612V680.662C495.859 705.892 475.339 726.412 450.119 726.412C424.899 726.412 404.369 705.882 404.369 680.662V586.552H332.119C331.399 586.552 330.679 586.552 329.949 586.552H328.869H327.939C327.309 586.552 326.689 586.552 326.059 586.552H158.279L158.339 586.532Z" fill="#B1BEC6"/>
<path d="M217.258 715.631C195.928 715.631 178.578 698.281 178.578 676.951C178.578 655.621 195.928 638.271 217.258 638.271C238.588 638.271 255.928 655.621 255.928 676.951C255.928 698.281 238.578 715.631 217.258 715.631ZM217.258 642.261C198.138 642.261 182.578 657.821 182.578 676.941C182.578 696.061 198.138 711.621 217.258 711.621C236.378 711.621 251.928 696.061 251.928 676.941C251.928 657.821 236.378 642.261 217.258 642.261ZM301.658 818.271H201.418C195.768 818.271 191.178 813.671 191.178 808.021C191.178 805.271 192.248 802.701 194.188 800.781C196.118 798.851 198.688 797.781 201.418 797.781H301.658C307.308 797.781 311.898 802.371 311.898 808.021C311.898 810.761 310.828 813.331 308.898 815.271C306.978 817.211 304.408 818.271 301.658 818.271ZM201.418 801.781C199.758 801.781 198.188 802.431 197.008 803.611C195.828 804.781 195.178 806.351 195.178 808.021C195.178 811.471 197.978 814.271 201.418 814.271H301.658C303.328 814.271 304.898 813.621 306.058 812.441C307.238 811.251 307.888 809.681 307.888 808.011C307.888 804.571 305.088 801.771 301.648 801.771H201.408L201.418 801.781ZM301.658 783.011H201.418C195.768 783.011 191.178 778.411 191.178 772.761C191.178 770.011 192.248 767.441 194.188 765.521C196.118 763.591 198.688 762.521 201.418 762.521H301.658C307.308 762.521 311.898 767.111 311.898 772.761C311.898 775.501 310.828 778.071 308.898 780.011C306.978 781.951 304.398 783.011 301.658 783.011ZM201.418 766.521C199.758 766.521 198.188 767.171 197.008 768.351C195.828 769.521 195.178 771.091 195.178 772.761C195.178 776.211 197.978 779.011 201.418 779.011H301.658C303.328 779.011 304.898 778.361 306.058 777.191C307.238 776.001 307.888 774.431 307.888 772.761C307.888 769.321 305.088 766.521 301.648 766.521H201.408H201.418Z" fill="#B1BEC6"/>
<path opacity="0.25" d="M493.908 575.711V575.731C493.158 576.421 492.388 577.081 491.578 577.691C492.378 577.061 493.158 576.401 493.908 575.711Z" fill="#B1BEC6"/>
<path d="M434.969 720.681C433.869 720.681 432.969 719.781 432.969 718.681V703.361C432.969 702.261 433.869 701.361 434.969 701.361C436.069 701.361 436.969 702.261 436.969 703.361V718.681C436.969 719.781 436.069 720.681 434.969 720.681ZM452.659 724.061C451.559 724.061 450.659 723.161 450.659 722.061V703.361C450.659 702.261 451.559 701.361 452.659 701.361C453.759 701.361 454.659 702.261 454.659 703.361V722.061C454.659 723.161 453.759 724.061 452.659 724.061ZM470.339 720.681C469.239 720.681 468.339 719.781 468.339 718.681V703.361C468.339 702.261 469.239 701.361 470.339 701.361C471.439 701.361 472.339 702.261 472.339 703.361V718.681C472.339 719.781 471.439 720.681 470.339 720.681Z" fill="#B1BEC6"/>
<path d="M561.708 304.18C560.608 304.18 559.708 303.28 559.708 302.18V286.86C559.708 285.76 560.608 284.86 561.708 284.86C562.808 284.86 563.708 285.76 563.708 286.86V302.18C563.708 303.28 562.808 304.18 561.708 304.18ZM544.018 304.18C542.918 304.18 542.018 303.28 542.018 302.18V283.48C542.018 282.38 542.918 281.48 544.018 281.48C545.118 281.48 546.018 282.38 546.018 283.48V302.18C546.018 303.28 545.118 304.18 544.018 304.18ZM526.328 304.18C525.228 304.18 524.328 303.28 524.328 302.18V286.86C524.328 285.76 525.228 284.86 526.328 284.86C527.428 284.86 528.328 285.76 528.328 286.86V302.18C528.328 303.28 527.428 304.18 526.328 304.18Z" fill="#B1BEC6"/>
<path opacity="0.5" d="M566.241 333.65C566.241 345.92 556.301 355.86 544.031 355.86C531.761 355.86 521.801 345.92 521.801 333.65C521.801 321.38 531.741 311.42 544.031 311.42C556.321 311.42 566.241 321.37 566.241 333.65Z" fill="#B1BEC6"/>
<path d="M627.5 267.741H610.89C609.79 267.741 608.89 266.841 608.89 265.741C608.89 264.641 609.79 263.741 610.89 263.741H627.5C629.63 263.741 631.66 263.101 633.22 261.931C634.11 261.271 635.36 261.451 636.02 262.331C636.68 263.211 636.5 264.471 635.61 265.131C633.36 266.811 630.48 267.731 627.49 267.731L627.5 267.741ZM586.89 267.741H562.89C561.79 267.741 560.89 266.841 560.89 265.741C560.89 264.641 561.79 263.741 562.89 263.741H586.89C587.99 263.741 588.89 264.641 588.89 265.741C588.89 266.841 587.99 267.741 586.89 267.741ZM538.89 267.741H514.89C513.79 267.741 512.89 266.841 512.89 265.741C512.89 264.641 513.79 263.741 514.89 263.741H538.89C539.99 263.741 540.89 264.641 540.89 265.741C540.89 266.841 539.99 267.741 538.89 267.741ZM490.89 267.741H466.89C465.79 267.741 464.89 266.841 464.89 265.741C464.89 264.641 465.79 263.741 466.89 263.741H490.89C491.99 263.741 492.89 264.641 492.89 265.741C492.89 266.841 491.99 267.741 490.89 267.741ZM450.16 256.411C449.06 256.411 448.16 255.511 448.16 254.411V230.411C448.16 229.311 449.06 228.411 450.16 228.411C451.26 228.411 452.16 229.311 452.16 230.411V254.411C452.16 255.511 451.26 256.411 450.16 256.411ZM637.89 242.681C636.79 242.681 635.89 241.781 635.89 240.681V216.681C635.89 215.581 636.79 214.681 637.89 214.681C638.99 214.681 639.89 215.581 639.89 216.681V240.681C639.89 241.781 638.99 242.681 637.89 242.681ZM450.16 208.411C449.06 208.411 448.16 207.511 448.16 206.411V182.411C448.16 181.311 449.06 180.411 450.16 180.411C451.26 180.411 452.16 181.311 452.16 182.411V206.411C452.16 207.511 451.26 208.411 450.16 208.411ZM637.89 194.681C636.79 194.681 635.89 193.781 635.89 192.681V168.681C635.89 167.581 636.79 166.681 637.89 166.681C638.99 166.681 639.89 167.581 639.89 168.681V192.681C639.89 193.781 638.99 194.681 637.89 194.681ZM450.16 160.411C449.06 160.411 448.16 159.511 448.16 158.411V134.411C448.16 133.311 449.06 132.411 450.16 132.411C451.26 132.411 452.16 133.311 452.16 134.411V158.411C452.16 159.511 451.26 160.411 450.16 160.411ZM637.89 146.681C636.79 146.681 635.89 145.781 635.89 144.681V120.681C635.89 119.581 636.79 118.681 637.89 118.681C638.99 118.681 639.89 119.581 639.89 120.681V144.681C639.89 145.781 638.99 146.681 637.89 146.681ZM450.16 112.411C449.06 112.411 448.16 111.511 448.16 110.411V86.4109C448.16 85.3109 449.06 84.4109 450.16 84.4109C451.26 84.4109 452.16 85.3109 452.16 86.4109V110.411C452.16 111.511 451.26 112.411 450.16 112.411ZM621.25 106.761C620.75 106.761 620.25 106.581 619.87 106.211L602.53 89.6209C601.73 88.8609 601.7 87.5909 602.47 86.7909C603.24 85.9909 604.5 85.9609 605.3 86.7309L622.64 103.321C623.44 104.081 623.47 105.351 622.7 106.151C622.31 106.561 621.78 106.771 621.25 106.771V106.761ZM586.18 76.3809H562.18C561.08 76.3809 560.18 75.4809 560.18 74.3809C560.18 73.2809 561.08 72.3809 562.18 72.3809H586.18C587.28 72.3809 588.18 73.2809 588.18 74.3809C588.18 75.4809 587.28 76.3809 586.18 76.3809ZM538.18 76.3809H514.18C513.08 76.3809 512.18 75.4809 512.18 74.3809C512.18 73.2809 513.08 72.3809 514.18 72.3809H538.18C539.28 72.3809 540.18 73.2809 540.18 74.3809C540.18 75.4809 539.28 76.3809 538.18 76.3809ZM490.18 76.3809H466.18C465.08 76.3809 464.18 75.4809 464.18 74.3809C464.18 73.2809 465.08 72.3809 466.18 72.3809H490.18C491.28 72.3809 492.18 73.2809 492.18 74.3809C492.18 75.4809 491.28 76.3809 490.18 76.3809ZM722.99 315.731H698.99C697.89 315.731 696.99 314.831 696.99 313.731C696.99 312.631 697.89 311.731 698.99 311.731H722.99C724.09 311.731 724.99 312.631 724.99 313.731C724.99 314.831 724.09 315.731 722.99 315.731ZM674.99 315.731H673.51C670 315.731 667.14 312.881 667.14 309.371V293.701C667.14 292.601 668.04 291.701 669.14 291.701C670.24 291.701 671.14 292.601 671.14 293.701V309.371C671.14 310.671 672.2 311.731 673.51 311.731H674.99C676.09 311.731 676.99 312.631 676.99 313.731C676.99 314.831 676.09 315.731 674.99 315.731ZM746.7 314.571C746.16 314.571 745.62 314.351 745.23 313.921C744.48 313.111 744.53 311.841 745.35 311.091C745.84 310.641 746.11 310.021 746.11 309.361V288.961C746.11 287.861 747.01 286.961 748.11 286.961C749.21 286.961 750.11 287.861 750.11 288.961V309.361C750.11 311.131 749.36 312.831 748.06 314.031C747.68 314.381 747.19 314.561 746.71 314.561L746.7 314.571ZM669.15 271.701C668.05 271.701 667.15 270.801 667.15 269.701V245.701C667.15 244.601 668.05 243.701 669.15 243.701C670.25 243.701 671.15 244.601 671.15 245.701V269.701C671.15 270.801 670.25 271.701 669.15 271.701ZM748.11 266.971C747.01 266.971 746.11 266.071 746.11 264.971V240.971C746.11 239.871 747.01 238.971 748.11 238.971C749.21 238.971 750.11 239.871 750.11 240.971V264.971C750.11 266.071 749.21 266.971 748.11 266.971ZM734.97 227.971C734.41 227.971 733.86 227.741 733.47 227.291L726.85 219.741H715.07C713.97 219.741 713.07 218.841 713.07 217.741C713.07 216.641 713.97 215.741 715.07 215.741H727.6C728.22 215.741 728.77 216.001 729.17 216.411C729.33 216.521 729.48 216.661 729.61 216.811L736.48 224.651C737.21 225.481 737.12 226.741 736.29 227.471C735.91 227.801 735.44 227.971 734.97 227.971ZM726.93 219.741C727.22 219.931 727.57 220.041 727.93 220.041C728.93 220.041 729.75 219.221 729.75 218.221H725.78C725.87 218.731 726.17 219.171 726.58 219.441C726.58 219.451 726.6 219.461 726.61 219.471L726.58 219.441C726.87 219.631 727.22 219.741 727.59 219.741H726.93ZM669.17 223.701C669.11 223.701 669.05 223.701 668.99 223.701C667.89 223.601 667.08 222.631 667.18 221.531C667.48 218.241 670.21 215.751 673.52 215.751H691.06C692.16 215.751 693.06 216.651 693.06 217.751C693.06 218.851 692.16 219.751 691.06 219.751H673.52C672.31 219.751 671.27 220.691 671.16 221.891C671.07 222.931 670.19 223.711 669.17 223.711V223.701Z" fill="#B1BEC6"/>
<path opacity="0.5" d="M346.638 174.112H169.508C159.888 174.112 152.078 181.822 152.078 191.332V291.522C152.078 301.032 159.878 308.742 169.508 308.742H277.958L303.848 331.442C309.498 336.402 318.428 332.432 318.428 324.962V308.732H346.648C356.268 308.732 364.078 301.022 364.078 291.512V191.322C364.078 181.812 356.278 174.102 346.648 174.102L346.638 174.112ZM287.868 246.982C287.868 258.312 285.268 267.102 280.058 273.322C274.848 279.552 267.488 282.662 257.978 282.662C248.468 282.662 241.238 279.572 236.048 273.382C230.858 267.192 228.268 258.392 228.268 246.982V231.602C228.268 220.232 230.868 211.432 236.078 205.202C241.288 198.972 248.628 195.862 258.098 195.862C267.568 195.862 274.898 198.962 280.088 205.142C285.278 211.332 287.868 220.132 287.868 231.542V246.972V246.982Z" fill="#D39800"/>
<path opacity="0.5" d="M258.099 210.942C254.619 210.942 252.069 212.442 250.469 215.442C248.869 218.442 248.059 222.972 248.059 229.052V249.942C248.099 256.012 248.919 260.472 250.529 263.312C252.139 266.152 254.619 267.572 257.989 267.572C261.359 267.572 264.019 266.112 265.619 263.192C267.229 260.272 268.029 255.662 268.029 249.352V227.762C267.909 222.112 267.079 217.902 265.529 215.112C263.979 212.322 261.509 210.932 258.099 210.932V210.942Z" fill="#B1BEC6"/>
<path d="M309.618 335.642C307.058 335.642 304.558 334.722 302.528 332.942L277.198 310.732H169.508C158.798 310.732 150.078 302.112 150.078 291.512V191.322C150.078 180.722 158.788 172.102 169.508 172.102H346.638C357.348 172.102 366.068 180.722 366.068 191.322V291.512C366.068 302.112 357.358 310.732 346.638 310.732H320.418V324.962C320.418 329.182 318.008 332.892 314.138 334.652C312.678 335.312 311.138 335.642 309.618 335.642ZM169.508 176.112C160.998 176.112 154.078 182.942 154.078 191.332V291.522C154.078 299.912 160.998 306.742 169.508 306.742H278.708L305.168 329.942C307.608 332.082 310.548 331.902 312.498 331.022C314.958 329.902 316.428 327.642 316.428 324.972V306.742H346.648C355.158 306.742 362.078 299.912 362.078 291.522V191.332C362.078 182.942 355.158 176.112 346.648 176.112H169.518H169.508Z" fill="black" fill-opacity="0.87"/>
<path d="M257.98 284.662C247.97 284.662 240.08 281.302 234.52 274.662C229.05 268.132 226.27 258.822 226.27 246.972V231.592C226.27 219.792 229.05 210.482 234.55 203.912C240.13 197.232 248.05 193.852 258.1 193.852C268.15 193.852 276.06 197.212 281.62 203.852C287.09 210.382 289.87 219.702 289.87 231.542V246.972C289.87 258.732 287.09 268.032 281.59 274.602C276.01 281.272 268.07 284.662 257.98 284.662ZM258.1 197.862C249.17 197.862 242.47 200.682 237.61 206.482C232.74 212.312 230.27 220.762 230.27 231.602V246.982C230.27 257.862 232.73 266.312 237.58 272.102C242.41 277.872 249.08 280.672 257.98 280.672C266.88 280.672 273.67 277.852 278.52 272.052C283.39 266.222 285.86 257.792 285.86 246.992V231.562C285.86 220.682 283.4 212.232 278.55 206.442C273.72 200.672 267.03 197.872 258.09 197.872L258.1 197.862Z" fill="black" fill-opacity="0.87"/>
<path d="M257.979 269.581C253.909 269.581 250.729 267.751 248.779 264.301C246.989 261.131 246.099 256.431 246.059 249.951V229.051C246.059 222.581 246.929 217.821 248.699 214.501C250.649 210.871 253.899 208.951 258.099 208.951C262.299 208.951 265.389 210.751 267.279 214.161C268.999 217.261 269.899 221.701 270.029 227.741V249.371C270.029 256.081 269.159 260.921 267.379 264.171C265.429 267.711 262.189 269.591 257.989 269.591L257.979 269.581ZM258.099 212.951C255.349 212.951 253.489 214.041 252.229 216.391C250.789 219.081 250.059 223.341 250.059 229.051V249.941C250.099 255.631 250.839 259.801 252.269 262.331C253.519 264.551 255.339 265.581 257.979 265.581C260.619 265.581 262.609 264.521 263.859 262.241C265.289 259.631 266.019 255.301 266.019 249.361V227.781C265.909 222.531 265.159 218.581 263.779 216.101C262.589 213.951 260.779 212.951 258.099 212.951Z" fill="black" fill-opacity="0.87"/>
<path opacity="0.25" d="M471.29 539.471C472.09 538.571 472.85 537.681 473.6 536.761C474.26 535.961 474.91 535.141 475.52 534.311C474.9 535.131 474.25 535.951 473.59 536.761C472.85 537.661 472.09 538.561 471.28 539.471H471.29ZM499.26 569.281C499.26 569.281 499.23 569.331 499.22 569.351C499.23 569.331 499.25 569.311 499.26 569.281C499.5 568.911 499.72 568.521 499.95 568.141C499.73 568.521 499.5 568.901 499.26 569.281Z" fill="#A8AEBE"/>
<path opacity="0.25" d="M472.93 419.77L472.48 416.99L471.25 409.43L472.47 416.98L472.93 419.77Z" fill="#A8AEBE"/>
<path opacity="0.25" d="M566.209 334.791C566.099 336.991 565.659 339.111 564.949 341.101C565.659 339.111 566.089 336.991 566.209 334.791ZM501.649 564.821C501.649 564.821 501.649 564.801 501.659 564.791C501.659 564.791 501.659 564.811 501.649 564.821ZM521.799 333.651C521.799 331.191 522.199 328.831 522.939 326.621C522.199 328.831 521.799 331.201 521.799 333.651ZM513.759 538.311C515.909 535.071 518.599 532.281 521.669 530.031C518.589 532.281 515.909 535.081 513.759 538.311ZM501.769 813.991H558.549C576.449 813.991 593.729 810.921 609.819 805.241C593.719 810.921 576.449 813.991 558.549 813.991H501.769C497.969 813.991 494.319 814.671 490.949 815.911C494.319 814.671 497.969 814.001 501.769 814.001V813.991Z" fill="#A8AEBE"/>
<path opacity="0.25" d="M450.161 724.391C427.511 724.391 408.881 707.181 406.641 685.121C408.881 707.191 427.521 724.401 450.171 724.401L450.161 724.391ZM451.701 555.741C451.811 555.671 451.911 555.611 452.011 555.541C451.911 555.611 451.801 555.671 451.701 555.741ZM123.851 218.641H152.081V191.331C152.081 181.821 159.881 174.111 169.511 174.111H346.641C356.261 174.111 364.071 181.821 364.071 191.331V291.521C364.071 301.031 356.271 308.741 346.641 308.741H321.361C321.371 309.091 321.391 309.451 321.401 309.801H347.871C357.561 309.801 365.411 301.941 365.411 292.261V285.721H387.301C396.181 285.721 404.451 290.331 409.191 297.891L429.351 330.301C434.061 337.851 442.321 342.441 451.241 342.441H499.991V409.441V324.271C499.991 300.191 519.501 280.681 543.581 280.681C555.621 280.681 566.521 285.551 574.411 293.451C582.301 301.331 587.191 312.231 587.191 324.271V342.441H710.071C706.891 333.021 705.171 322.921 705.171 312.431C705.171 286.521 715.671 263.081 732.641 246.111C749.611 229.141 773.051 218.641 798.961 218.641H876.141C902.041 218.641 925.491 208.141 942.461 191.171C959.431 174.201 969.931 150.761 969.931 124.851C969.931 73.0505 927.931 31.0605 876.141 31.0605H123.851C97.9508 31.0605 74.5008 41.5605 57.5308 58.5305C40.5508 75.5005 30.0608 98.9405 30.0608 124.851C30.0608 176.651 72.0508 218.641 123.851 218.641ZM436.611 563.771C437.881 563.191 439.141 562.591 440.361 562.001C439.121 562.601 437.871 563.191 436.601 563.771H436.611ZM423.031 569.271C421.611 569.781 420.191 570.301 418.731 570.791C416.671 571.481 414.591 572.151 412.461 572.791C412.001 572.931 411.521 573.061 411.061 573.191C411.531 573.051 412.001 572.931 412.461 572.791C414.571 572.161 416.671 571.491 418.731 570.791C420.191 570.301 421.601 569.781 423.031 569.261V569.271ZM123.851 593.791H125.051C128.401 593.791 131.711 593.971 134.961 594.311C140.881 588.311 149.101 584.531 158.331 584.531H169.841V406.221H123.841C97.9408 406.221 74.4908 416.721 57.5208 433.691C40.5408 450.661 30.0508 474.101 30.0508 500.011C30.0508 551.811 72.0408 593.801 123.841 593.801L123.851 593.791ZM197.671 437.931C196.861 439.191 196.061 440.491 195.291 441.831C196.071 440.491 196.861 439.191 197.671 437.931ZM341.901 584.251C343.871 584.171 345.841 584.091 347.811 583.961C345.841 584.081 343.871 584.171 341.901 584.251ZM587.491 876.851C656.401 876.851 717.561 838.861 749.331 781.361C717.561 838.851 656.401 876.851 587.491 876.851H501.771C494.181 876.851 487.221 874.151 481.781 869.661C487.211 874.151 494.171 876.851 501.771 876.851H587.491ZM388.591 578.741C385.571 579.341 382.521 579.901 379.441 580.411C379.241 580.441 379.051 580.481 378.851 580.511C376.371 580.921 373.871 581.281 371.361 581.631C373.871 581.291 376.371 580.921 378.851 580.521C379.051 580.481 379.241 580.451 379.441 580.421C382.521 579.901 385.571 579.351 388.591 578.751C389.961 578.481 391.331 578.191 392.681 577.901C395.801 577.231 398.881 576.511 401.911 575.741C398.881 576.511 395.801 577.221 392.681 577.901C391.331 578.191 389.961 578.481 388.591 578.751V578.741Z" fill="#A8AEBE"/>
<path opacity="0.25" d="M566.21 334.68C566.23 334.34 566.24 334 566.24 333.65C566.24 333.99 566.23 334.34 566.21 334.68ZM876.15 406.21H842.04V523.66C841.92 523.65 841.8 523.65 841.68 523.65H823.4C820.78 510.8 816.42 498.58 810.6 487.23C816.42 498.58 820.77 510.8 823.4 523.65H841.68C841.8 523.65 841.91 523.65 842.04 523.66C862.09 523.87 877.28 541.83 874.11 561.67L869 593.78H876.15C902.05 593.78 925.5 583.28 942.47 566.31C959.44 549.34 969.94 525.9 969.94 499.99C969.94 448.19 927.94 406.2 876.15 406.2V406.21ZM876.15 781.36H839.14L820.59 897.91C818.05 913.87 804.29 925.62 788.12 925.62H201.18C185 925.62 171.21 913.8 168.73 897.79L150.08 777.98C142.11 780.18 133.73 781.36 125.06 781.36H123.86C97.9603 781.36 74.5103 791.86 57.5403 808.83C40.5603 825.8 30.0703 849.25 30.0703 875.15C30.0703 926.95 72.0603 968.94 123.86 968.94H876.16C902.06 968.94 925.51 958.44 942.48 941.47C959.45 924.5 969.95 901.06 969.95 875.15C969.95 823.36 927.95 781.36 876.16 781.36H876.15ZM484.25 519.86C484.56 519.19 484.88 518.53 485.17 517.86C485.33 517.49 485.48 517.12 485.63 516.75C485.48 517.12 485.32 517.5 485.16 517.87C484.87 518.54 484.55 519.2 484.24 519.86H484.25Z" fill="#A8AEBE"/>
<path opacity="0.25" d="M724.301 593.791L727.201 574.311L724.301 593.791Z" fill="#A8AEBE"/>
<path opacity="0.25" d="M486.649 514.18C486.479 514.63 486.299 515.08 486.129 515.53C486.309 515.08 486.489 514.63 486.659 514.18H486.649ZM485.199 447.26C489.729 460.69 493.289 477.91 491.089 495.79C493.289 477.91 489.729 460.7 485.199 447.26Z" fill="#A8AEBE"/>
</svg>
