<svg xmlns="http://www.w3.org/2000/svg" viewBox="0 0 122.88 122.88" style="enable-background:new 0 0 122.88 122.88" xml:space="preserve">
    <path d="M30.72 27.97c16.95 0 30.72 13.77 30.72 30.72v2.83H2.83c-1.52 0-2.75-1.23-2.83-2.83 0-16.96 13.77-30.72 30.72-30.72z" style="fill:#f6b704"/>
    <path d="M94.91 30.72c0 16.95-13.77 30.72-30.72 30.72h-2.75V2.83C61.44 1.3 62.67 0 64.19 0c17.03 0 30.72 13.77 30.72 30.72z" style="fill:#e54335"/>
    <path d="M92.16 94.99c-16.95 0-30.72-13.77-30.72-30.72v-2.83h58.61c1.52 0 2.83 1.23 2.83 2.75 0 17.03-13.77 30.8-30.72 30.8z" style="fill:#4280ef"/>
    <path d="M27.97 92.16c0-16.95 13.77-30.72 30.72-30.72h2.75v58.61c0 1.52-1.23 2.75-2.83 2.83-16.95 0-30.64-13.77-30.64-30.72z" style="fill:#34a353"/>
</svg>
