<svg width="18" height="16" viewBox="0 0 18 16" fill="none" xmlns="http://www.w3.org/2000/svg">
<path d="M9 9.15604L3.66126 6.02484L0 8.80992L5.29519 12.0935L9 9.15604Z" fill="#1083DD"/>
<path d="M0 8.80994L5.29519 12.0935L9 9.15605" fill="#0A6CBC"/>
<path d="M9 9.15612L12.7054 12.0936L18 8.81028L14.3393 6.02438H14.339L9 9.15612Z" fill="#38B4F9"/>
<path d="M12.7053 12.0936L17.9999 8.81028L14.3393 6.02438H14.339" fill="#0594DB"/>
<path d="M12.7054 0L9.00058 2.98235H9L14.3393 6.02435L17.9434 3.27292L12.7054 0Z" fill="#1083DD"/>
<path d="M14.3393 6.02435L17.9999 3.27292L12.7053 0" fill="#0A6CBC"/>
<path d="M9.00049 2.98235L5.2951 0L0.000488281 3.26171L3.66117 6.07989L8.99991 2.98235H9.00049Z" fill="#38B4F9"/>
<path d="M3.66113 6.06895L8.99988 2.98235H9.00046L5.29507 0" fill="#0594DB"/>
<path d="M9.00004 9.74701L5.27312 12.8581L3.71729 11.8717V12.9771L8.94309 16L14.1689 12.9771V11.8717L12.6965 12.7763L9.00004 9.74701Z" fill="#1083DD"/>
</svg>
