<svg width="90" height="82" viewBox="0 0 90 82" fill="none" xmlns="http://www.w3.org/2000/svg">
<path d="M74.8 79.3C72.8 80.5 70.5 81.1 68.1 81.1H21.8C19.4 81.1 17.1 80.5 15.1 79.3C22.4 66.7 29.5 54.3 29.5 54.3H60.3C60.4 54.4 69.2 69.6 74.8 79.3Z" fill="#1E88E5"/>
<path d="M59.4 2.70007C61.4 3.90007 63.1 5.50007 64.3 7.60007L87.5 47.7001C88.7 49.8001 89.3 52.1001 89.3 54.4001C78.8 54.5001 60.5 54.4001 60.5 54.4001L45 27.6001C45 27.6001 53 13.8001 59.4 2.70007Z" fill="#FBC02D"/>
<path d="M89.3 54.4C89.3 56.7 88.7 59 87.5 61.1L79.3 75.3C78.1 77 76.6 78.4 74.9 79.4L60.5 54.4H89.3Z" fill="#E53935"/>
<path d="M0.699951 54.4C0.699951 52.1 1.29995 49.8 2.49995 47.7L25.7 7.60003C26.9 5.50003 28.5999 3.90003 30.5999 2.70003C32.5999 1.50003 45 27.7 45 27.7L29.5999 54.4C29.5999 54.4 9.39995 54.4 0.699951 54.4Z" fill="#4CAF50"/>
<path d="M29.5999 54.4L15.1999 79.4C13.4999 78.4 11.8999 77 10.7999 75.3L2.59993 61.1C1.39993 59 0.799927 56.7 0.799927 54.4H29.5999Z" fill="#1565C0"/>
<path d="M59.4 2.70005L45 27.6L30.6 2.60005C32.3 1.60005 34.3 1.00005 36.4 0.800049H52.7C55.1 0.900049 57.4 1.50005 59.4 2.70005Z" fill="#2E7D32"/>
</svg>
